<svg width="12" height="13" viewBox="0 0 12 13" fill="none" xmlns="http://www.w3.org/2000/svg">
<path fill-rule="evenodd" clip-rule="evenodd" d="M8.5 3.67749C8.5 5.0582 7.38071 6.17749 6 6.17749C4.61929 6.17749 3.5 5.0582 3.5 3.67749C3.5 2.29678 4.61929 1.17749 6 1.17749C7.38071 1.17749 8.5 2.29678 8.5 3.67749ZM9.5 3.67749C9.5 5.61049 7.933 7.17749 6 7.17749C4.067 7.17749 2.5 5.61049 2.5 3.67749C2.5 1.74449 4.067 0.17749 6 0.17749C7.933 0.17749 9.5 1.74449 9.5 3.67749ZM2.5 8.17749C1.11929 8.17749 0 9.29678 0 10.6775V11.6775C0 11.9536 0.223858 12.1775 0.5 12.1775C0.776142 12.1775 1 11.9536 1 11.6775V10.6775C1 9.84906 1.67157 9.17749 2.5 9.17749H9.5C10.3284 9.17749 11 9.84906 11 10.6775V11.6775C11 11.9536 11.2239 12.1775 11.5 12.1775C11.7761 12.1775 12 11.9536 12 11.6775V10.6775C12 9.29678 10.8807 8.17749 9.5 8.17749H2.5Z" fill="#868686"/>
</svg>
