<svg viewBox="0 0 16 17" fill="currentColor" xmlns="http://www.w3.org/2000/svg">
<path d="M13.0004 5.58622L8.00036 10.4612L3.00036 5.58622C2.90669 5.49256 2.79736 5.44572 2.67236 5.44572C2.54736 5.44572 2.43802 5.49256 2.34436 5.58622C2.25069 5.67989 2.20386 5.78922 2.20386 5.91422C2.20386 6.03922 2.24552 6.14339 2.32886 6.22672L7.65686 11.4142C7.75052 11.5079 7.86519 11.5547 8.00086 11.5547C8.13652 11.5547 8.25119 11.5079 8.34486 11.4142L13.6729 6.24222C13.7562 6.14856 13.7979 6.03656 13.7979 5.90622C13.7979 5.77589 13.751 5.66656 13.6574 5.57822C13.5637 5.48989 13.4544 5.44556 13.3294 5.44522C13.2044 5.44489 13.095 5.49172 13.0014 5.58572L13.0004 5.58622Z" fill="black"/>
</svg>
