<svg  viewBox="0 0 20 20" fill="currentColor" xmlns="http://www.w3.org/2000/svg">
<path d="M2.68281 9.55771L8.30781 3.93271C8.42509 3.81543 8.58415 3.74955 8.75 3.74955C8.91585 3.74955 9.07491 3.81543 9.19219 3.93271C9.30947 4.04998 9.37535 4.20904 9.37535 4.3749C9.37535 4.54075 9.30947 4.69981 9.19219 4.81708L4.6336 9.3749L16.875 9.3749C17.0408 9.3749 17.1997 9.44074 17.3169 9.55796C17.4342 9.67517 17.5 9.83414 17.5 9.9999C17.5 10.1657 17.4342 10.3246 17.3169 10.4418C17.1997 10.559 17.0408 10.6249 16.875 10.6249L4.6336 10.6249L9.19219 15.1827C9.30946 15.3 9.37535 15.459 9.37535 15.6249C9.37535 15.7907 9.30946 15.9498 9.19219 16.0671C9.07491 16.1844 8.91585 16.2502 8.75 16.2502C8.58415 16.2502 8.42509 16.1844 8.30781 16.0671L2.68281 10.4421C2.6247 10.384 2.5786 10.3151 2.54715 10.2392C2.5157 10.1634 2.49951 10.082 2.49951 9.9999C2.49951 9.91776 2.5157 9.83643 2.54715 9.76056C2.5786 9.68468 2.6247 9.61575 2.68281 9.55771Z" fill="#2F4252"/>
</svg>
