<svg viewBox="0 0 16 16" fill="currentColor" xmlns="http://www.w3.org/2000/svg">
<path fill-rule="evenodd" clip-rule="evenodd" d="M4.5 2H11.5C11.7652 2 12.0196 2.10536 12.2071 2.29289C12.3946 2.48043 12.5 2.73478 12.5 3V14C12.4999 14.0891 12.4759 14.1766 12.4307 14.2534C12.3854 14.3302 12.3204 14.3934 12.2424 14.4367C12.1645 14.4799 12.0764 14.5015 11.9873 14.4992C11.8982 14.4969 11.8113 14.4709 11.7356 14.4237L8 12.0894L4.265 14.4237C4.18933 14.471 4.10239 14.4972 4.01319 14.4996C3.92399 14.5019 3.83578 14.4804 3.75772 14.4371C3.67967 14.3939 3.6146 14.3306 3.56929 14.2537C3.52397 14.1768 3.50004 14.0892 3.5 14V3C3.5 2.73478 3.60536 2.48043 3.79289 2.29289C3.98043 2.10536 4.23478 2 4.5 2ZM8.44849 4.84366C8.26509 4.47204 7.73517 4.47204 7.55176 4.84366L7.09938 5.76028L6.08783 5.90727C5.67772 5.96686 5.51396 6.47085 5.81072 6.76011L6.54269 7.47361L6.36989 8.48107C6.29984 8.88952 6.72855 9.201 7.09537 9.00816L8.00013 8.5325L8.90489 9.00816C9.2717 9.201 9.70042 8.88952 9.63036 8.48107L9.45757 7.47361L10.1895 6.76011C10.4863 6.47085 10.3225 5.96686 9.91243 5.90727L8.90088 5.76028L8.44849 4.84366Z" fill="currentColor"/>
</svg>
