<svg viewBox="20 0 140 32" fill="none" xmlns="http://www.w3.org/2000/svg">
<g id="&#235;&#160;&#136;&#236;&#157;&#180;&#236;&#150;&#180;_1" clip-path="url(#clip0_2276_29985)">
<path id="Vector" d="M54.7341 4.35199V15.7559H40.4251V4.35199H44.8329V6.73086H50.3799V4.35199H54.7341ZM62.2073 23.8779H45.009V24.9927H62.5864V28.1831H40.4251V20.9395H57.6213V19.9273H40.4251V16.806H62.2073V23.8779ZM50.391 12.3782V10.1264H44.8329V12.3782H50.391ZM57.6837 4.35199H62.2185V16.1683H57.6725L57.6837 4.35199Z" fill="#2F4252"/>
<path id="Vector_2" d="M89.3269 22.8657V26.7896H65.5204V22.8657H89.3269ZM87.7819 19.323H67.3441V5.18573H87.3761V9.03607H71.9525V15.5195H87.7819V19.323Z" fill="#2F4252"/>
<path id="Vector_3" d="M92.5397 4.98517H97.0723V21.3296C100.341 21.0532 103.556 20.8235 106.824 20.5448V24.4197C101.962 24.8255 97.4022 25.2558 92.5397 25.6615V4.98517ZM108.267 4.35199H112.801V12.4116H116.092V16.3623H112.801V28.0627H108.267V4.35199Z" fill="#2F4252"/>
<path id="Vector_4" d="M117.178 18.5341H140.985V22.4602H131.411V28.2413H126.651V22.4669H117.178V18.5341ZM132.602 16.6346H125.536C120.953 16.6346 118.402 14.628 118.402 10.4544C118.402 6.28077 120.883 4.17389 125.536 4.17389H132.602C137.284 4.17389 139.769 6.27631 139.769 10.4544C139.769 14.6325 137.186 16.6346 132.602 16.6346ZM131.264 7.97296H126.899C124.341 7.97296 122.972 8.25165 122.972 10.4544C122.972 12.6571 124.341 12.9358 126.899 12.9358H131.255C133.763 12.9358 135.181 12.6326 135.181 10.4544C135.186 8.22712 133.768 7.97296 131.259 7.97296H131.264Z" fill="#2F4252"/>
<path id="Vector_5" d="M6.1333 3.65421L16.6342 6.10352e-05V3.65421L11.3838 5.58719L6.1333 3.65421Z" fill="#5085EA"/>
<path id="Vector_6" d="M27.1374 3.65421L16.6343 6.10352e-05V3.65421L21.887 5.58719L27.1374 3.65421Z" fill="#5085EA"/>
<path id="Vector_7" d="M16.6343 11.0717L0 5.02087V8.48552L16.5942 15.2498L16.6388 15.2297V11.0695L16.6343 11.0717Z" fill="url(#paint0_linear_2276_29985)"/>
<path id="Vector_8" d="M33.186 8.57024V5.02087L16.6387 11.0695V15.2297L30.0915 9.81653V14.5275L16.6387 19.4457V23.606L33.186 16.9465V13.3971H33.1816L33.1726 8.5747L33.186 8.57024Z" fill="url(#paint1_linear_2276_29985)"/>
<path id="Vector_9" d="M33.186 25.3227V21.7734L16.6387 27.822V31.9823L33.186 25.3227Z" fill="url(#paint2_linear_2276_29985)"/>
<path id="Vector_10" d="M16.5942 23.626L16.6388 23.6059V19.4457L16.6343 19.4479L0 13.397V16.8617V21.7733V25.2379L16.5942 32L16.6388 31.9821V27.8219L16.6343 27.8241L3.09009 22.8969L3.0834 18.1191L16.5942 23.626Z" fill="url(#paint3_linear_2276_29985)"/>
</g>
<defs>
<linearGradient id="paint0_linear_2276_29985" x1="0" y1="10.1353" x2="16.6388" y2="10.1353" gradientUnits="userSpaceOnUse">
<stop stop-color="#346167"/>
<stop offset="1" stop-color="#2E3C4E"/>
</linearGradient>
<linearGradient id="paint1_linear_2276_29985" x1="16.6387" y1="14.3134" x2="33.186" y2="14.3134" gradientUnits="userSpaceOnUse">
<stop stop-color="#346167"/>
<stop offset="1" stop-color="#2E3C4E"/>
</linearGradient>
<linearGradient id="paint2_linear_2276_29985" x1="16.6387" y1="26.8767" x2="33.186" y2="26.8767" gradientUnits="userSpaceOnUse">
<stop stop-color="#346167"/>
<stop offset="1" stop-color="#2E3C4E"/>
</linearGradient>
<linearGradient id="paint3_linear_2276_29985" x1="0" y1="22.6985" x2="16.6388" y2="22.6985" gradientUnits="userSpaceOnUse">
<stop stop-color="#346167"/>
<stop offset="1" stop-color="#2E3C4E"/>
</linearGradient>
<clipPath id="clip0_2276_29985">
<rect width="140.987" height="32" fill="white"/>
</clipPath>
</defs>
</svg>
