<svg viewBox="0 0 141 32" fill="none" xmlns="http://www.w3.org/2000/svg">
<g clip-path="url(#clip0_2390_932)">
<path d="M54.7337 4.35205V15.7559H40.4248V4.35205H44.8325V6.73092H50.3795V4.35205H54.7337ZM62.207 23.878H45.0087V24.9928H62.586V28.1832H40.4248V20.9395H57.6209V19.9273H40.4248V16.806H62.207V23.878ZM50.3907 12.3782V10.1265H44.8325V12.3782H50.3907ZM57.6834 4.35205H62.2182V16.1684H57.6722L57.6834 4.35205Z" fill="#2F4252"/>
<path d="M89.3271 22.8655V26.7894H65.5205V22.8655H89.3271ZM87.7821 19.3228H67.3442V5.18555H87.3763V9.03589H71.9526V15.5193H87.7821V19.3228Z" fill="#2F4252"/>
<path d="M92.54 4.98523H97.0726V21.3297C100.341 21.0532 103.556 20.8236 106.824 20.5449V24.4198C101.962 24.8255 97.4026 25.2558 92.54 25.6616V4.98523ZM108.267 4.35205H112.802V12.4117H116.092V16.3624H112.802V28.0628H108.267V4.35205Z" fill="#2F4252"/>
<path d="M117.178 18.534H140.984V22.4602H131.411V28.2413H126.651V22.4669H117.178V18.534ZM132.601 16.6345H125.536C120.952 16.6345 118.402 14.628 118.402 10.4543C118.402 6.28071 120.883 4.17383 125.536 4.17383H132.601C137.283 4.17383 139.769 6.27625 139.769 10.4543C139.769 14.6324 137.185 16.6345 132.601 16.6345ZM131.264 7.9729H126.898C124.341 7.9729 122.972 8.25158 122.972 10.4543C122.972 12.6571 124.341 12.9358 126.898 12.9358H131.255C133.763 12.9358 135.181 12.6326 135.181 10.4543C135.185 8.22706 133.767 7.9729 131.259 7.9729H131.264Z" fill="#2F4252"/>
<path d="M6.13281 3.65415L16.6338 0V3.65415L11.3833 5.58713L6.13281 3.65415Z" fill="#5085EA"/>
<path d="M27.137 3.65415L16.6338 0V3.65415L21.8865 5.58713L27.137 3.65415Z" fill="#5085EA"/>
<path d="M16.6343 11.0719L0 5.021V8.48564L16.5942 15.2499L16.6388 15.2299V11.0696L16.6343 11.0719Z" fill="url(#paint0_linear_2390_932)"/>
<path d="M33.186 8.57036V5.021L16.6387 11.0696V15.2299L30.0915 9.81665V14.5276L16.6387 19.4459V23.6061L33.186 16.9466V13.3972H33.1816L33.1726 8.57482L33.186 8.57036Z" fill="url(#paint1_linear_2390_932)"/>
<path d="M33.186 25.3228V21.7734L16.6387 27.8221V31.9823L33.186 25.3228Z" fill="url(#paint2_linear_2390_932)"/>
<path d="M16.5942 23.6259L16.6388 23.6058V19.4456L16.6343 19.4478L0 13.397V16.8616V21.7732V25.2378L16.5942 31.9999L16.6388 31.9821V27.8218L16.6343 27.8241L3.09009 22.8969L3.0834 18.1191L16.5942 23.6259Z" fill="url(#paint3_linear_2390_932)"/>
</g>
<defs>
<linearGradient id="paint0_linear_2390_932" x1="0" y1="10.1355" x2="16.6388" y2="10.1355" gradientUnits="userSpaceOnUse">
<stop stop-color="#346167"/>
<stop offset="1" stop-color="#2E3C4E"/>
</linearGradient>
<linearGradient id="paint1_linear_2390_932" x1="16.6387" y1="14.3135" x2="33.186" y2="14.3135" gradientUnits="userSpaceOnUse">
<stop stop-color="#346167"/>
<stop offset="1" stop-color="#2E3C4E"/>
</linearGradient>
<linearGradient id="paint2_linear_2390_932" x1="16.6387" y1="26.8768" x2="33.186" y2="26.8768" gradientUnits="userSpaceOnUse">
<stop stop-color="#346167"/>
<stop offset="1" stop-color="#2E3C4E"/>
</linearGradient>
<linearGradient id="paint3_linear_2390_932" x1="0" y1="22.6984" x2="16.6388" y2="22.6984" gradientUnits="userSpaceOnUse">
<stop stop-color="#346167"/>
<stop offset="1" stop-color="#2E3C4E"/>
</linearGradient>
<clipPath id="clip0_2390_932">
<rect width="140.987" height="32" fill="white"/>
</clipPath>
</defs>
</svg>
