<svg viewBox="0 0 142 33" fill="none" xmlns="http://www.w3.org/2000/svg">
<g clip-path="url(#clip0_52_4254)">
<path d="M54.9064 5.24207V16.646H40.5975V5.24207H45.0052V7.62094H50.5522V5.24207H54.9064ZM62.3797 24.768H45.1813V25.8828H62.7587V29.0732H40.5975V21.8295H57.7936V20.8173H40.5975V17.696H62.3797V24.768ZM50.5633 13.2683V11.0165H45.0052V13.2683H50.5633ZM57.856 5.24207H62.3908V17.0584H57.8449L57.856 5.24207Z" fill="#2F4252"/>
<path d="M89.4993 23.7556V27.6795H65.6927V23.7556H89.4993ZM87.9542 20.2129H67.5164V6.07568H87.5485V9.92603H72.1248V16.4094H87.9542V20.2129Z" fill="#2F4252"/>
<path d="M92.7119 5.87524H97.2445V22.2197C100.513 21.9432 103.728 21.7136 106.996 21.4349V25.3098C102.134 25.7156 97.5745 26.1458 92.7119 26.5516V5.87524ZM108.439 5.24207H112.974V13.3017H116.264V17.2524H112.974V28.9528H108.439V5.24207Z" fill="#2F4252"/>
<path d="M117.35 19.424H141.157V23.3502H131.583V29.1313H126.823V23.3569H117.35V19.424ZM132.774 17.5245H125.709C121.125 17.5245 118.574 15.518 118.574 11.3443C118.574 7.17072 121.056 5.06384 125.709 5.06384H132.774C137.456 5.06384 139.942 7.16626 139.942 11.3443C139.942 15.5224 137.358 17.5245 132.774 17.5245ZM131.436 8.86291H127.071C124.514 8.86291 123.145 9.1416 123.145 11.3443C123.145 13.5471 124.514 13.8258 127.071 13.8258H131.427C133.935 13.8258 135.353 13.5226 135.353 11.3443C135.358 9.11707 133.94 8.86291 131.432 8.86291H131.436Z" fill="#2F4252"/>
<path d="M6.3056 4.54416L16.8065 0.890015V4.54416L11.5561 6.47714L6.3056 4.54416Z" fill="#5085EA"/>
<path d="M27.3097 4.54416L16.8066 0.890015V4.54416L22.0593 6.47714L27.3097 4.54416Z" fill="#5085EA"/>
<path d="M16.8065 11.9617L0.172241 5.91089V9.37553L16.7664 16.1398L16.811 16.1198V11.9595L16.8065 11.9617Z" fill="url(#paint0_linear_52_4254)"/>
<path d="M33.3583 9.46025V5.91089L16.811 11.9595V16.1198L30.2638 10.7065V15.4175L16.811 20.3357V24.496L33.3583 17.8365V14.2871H33.3539L33.3449 9.46471L33.3583 9.46025Z" fill="url(#paint1_linear_52_4254)"/>
<path d="M33.3583 26.2127V22.6633L16.811 28.712V32.8722L33.3583 26.2127Z" fill="url(#paint2_linear_52_4254)"/>
<path d="M16.7664 24.516L16.811 24.496V20.3357L16.8065 20.338L0.172241 14.2871V17.7517V22.6633V26.128L16.7664 32.89L16.811 32.8722V28.712L16.8065 28.7142L3.26233 23.787L3.25564 19.0092L16.7664 24.516Z" fill="url(#paint3_linear_52_4254)"/>
</g>
<defs>
<linearGradient id="paint0_linear_52_4254" x1="0.172241" y1="11.0254" x2="16.811" y2="11.0254" gradientUnits="userSpaceOnUse">
<stop stop-color="#346167"/>
<stop offset="1" stop-color="#2E3C4E"/>
</linearGradient>
<linearGradient id="paint1_linear_52_4254" x1="16.811" y1="15.2034" x2="33.3583" y2="15.2034" gradientUnits="userSpaceOnUse">
<stop stop-color="#346167"/>
<stop offset="1" stop-color="#2E3C4E"/>
</linearGradient>
<linearGradient id="paint2_linear_52_4254" x1="16.811" y1="27.7667" x2="33.3583" y2="27.7667" gradientUnits="userSpaceOnUse">
<stop stop-color="#346167"/>
<stop offset="1" stop-color="#2E3C4E"/>
</linearGradient>
<linearGradient id="paint3_linear_52_4254" x1="0.172241" y1="23.5886" x2="16.811" y2="23.5886" gradientUnits="userSpaceOnUse">
<stop stop-color="#346167"/>
<stop offset="1" stop-color="#2E3C4E"/>
</linearGradient>
<clipPath id="clip0_52_4254">
<rect width="140.987" height="32" fill="white" transform="translate(0.172302 0.890015)"/>
</clipPath>
</defs>
</svg>
