<svg  viewBox="0 0 18 18" fill="currentColor" xmlns="http://www.w3.org/2000/svg">
<path fill-rule="evenodd" clip-rule="evenodd" d="M2.25 7.3125C2.25 7.00184 2.50184 6.75 2.8125 6.75H7.875C8.18566 6.75 8.4375 7.00184 8.4375 7.3125V15.1875C8.4375 15.4982 8.18566 15.75 7.875 15.75H2.8125C2.50184 15.75 2.25 15.4982 2.25 15.1875V7.3125ZM3.375 7.875V14.625H7.3125V7.875H3.375Z" fill="currentColor"/>
<path fill-rule="evenodd" clip-rule="evenodd" d="M7.3125 2.8125C7.3125 2.50184 7.56434 2.25 7.875 2.25H15.1875C15.4982 2.25 15.75 2.50184 15.75 2.8125V15.1875C15.75 15.4982 15.4982 15.75 15.1875 15.75H7.875C7.56434 15.75 7.3125 15.4982 7.3125 15.1875V2.8125ZM8.4375 3.375V14.625H14.625V3.375H8.4375Z" fill="currentColor"/>
<path fill-rule="evenodd" clip-rule="evenodd" d="M9.5625 5.0625C9.5625 4.75184 9.81434 4.5 10.125 4.5H10.6875C10.9982 4.5 11.25 4.75184 11.25 5.0625V5.625C11.25 5.93566 10.9982 6.1875 10.6875 6.1875H10.125C9.81434 6.1875 9.5625 5.93566 9.5625 5.625V5.0625Z" fill="currentColor"/>
<path fill-rule="evenodd" clip-rule="evenodd" d="M9.5625 7.3125C9.5625 7.00184 9.81434 6.75 10.125 6.75H10.6875C10.9982 6.75 11.25 7.00184 11.25 7.3125V7.875C11.25 8.18566 10.9982 8.4375 10.6875 8.4375H10.125C9.81434 8.4375 9.5625 8.18566 9.5625 7.875V7.3125Z" fill="currentColor"/>
<path fill-rule="evenodd" clip-rule="evenodd" d="M4.5 9.5625C4.5 9.25184 4.75184 9 5.0625 9H5.625C5.93566 9 6.1875 9.25184 6.1875 9.5625V10.125C6.1875 10.4357 5.93566 10.6875 5.625 10.6875H5.0625C4.75184 10.6875 4.5 10.4357 4.5 10.125V9.5625Z" fill="currentColor"/>
<path fill-rule="evenodd" clip-rule="evenodd" d="M4.5 11.8125C4.5 11.5018 4.75184 11.25 5.0625 11.25H5.625C5.93566 11.25 6.1875 11.5018 6.1875 11.8125V12.375C6.1875 12.6857 5.93566 12.9375 5.625 12.9375H5.0625C4.75184 12.9375 4.5 12.6857 4.5 12.375V11.8125Z" fill="currentColor"/>
<path fill-rule="evenodd" clip-rule="evenodd" d="M11.8125 5.0625C11.8125 4.75184 12.0643 4.5 12.375 4.5H12.9375C13.2482 4.5 13.5 4.75184 13.5 5.0625V5.625C13.5 5.93566 13.2482 6.1875 12.9375 6.1875H12.375C12.0643 6.1875 11.8125 5.93566 11.8125 5.625V5.0625Z" fill="currentColor"/>
<path fill-rule="evenodd" clip-rule="evenodd" d="M11.8125 7.3125C11.8125 7.00184 12.0643 6.75 12.375 6.75H12.9375C13.2482 6.75 13.5 7.00184 13.5 7.3125V7.875C13.5 8.18566 13.2482 8.4375 12.9375 8.4375H12.375C12.0643 8.4375 11.8125 8.18566 11.8125 7.875V7.3125Z" fill="currentColor"/>
<path fill-rule="evenodd" clip-rule="evenodd" d="M9.5625 11.8125C9.5625 11.5018 9.81434 11.25 10.125 11.25H12.9375C13.2482 11.25 13.5 11.5018 13.5 11.8125V15.1875C13.5 15.4982 13.2482 15.75 12.9375 15.75H10.125C9.81434 15.75 9.5625 15.4982 9.5625 15.1875V11.8125ZM10.6875 12.375V14.625H12.375V12.375H10.6875Z" fill="currentColor"/>
</svg>
