<svg viewBox="0 0 24 24" fill="none" xmlns="http://www.w3.org/2000/svg">
<path d="M19.2807 18.9693C19.3504 19.039 19.4057 19.1217 19.4434 19.2128C19.4811 19.3038 19.5005 19.4014 19.5005 19.4999C19.5005 19.5985 19.4811 19.6961 19.4434 19.7871C19.4057 19.8781 19.3504 19.9609 19.2807 20.0306C19.211 20.1002 19.1283 20.1555 19.0373 20.1932C18.9462 20.2309 18.8486 20.2503 18.7501 20.2503C18.6516 20.2503 18.554 20.2309 18.4629 20.1932C18.3719 20.1555 18.2892 20.1002 18.2195 20.0306L10.7195 12.5306C10.6497 12.4609 10.5944 12.3782 10.5567 12.2871C10.5189 12.1961 10.4995 12.0985 10.4995 11.9999C10.4995 11.9014 10.5189 11.8038 10.5567 11.7127C10.5944 11.6217 10.6497 11.539 10.7195 11.4693L18.2195 3.9693C18.3602 3.82857 18.5511 3.74951 18.7501 3.74951C18.9491 3.74951 19.14 3.82857 19.2807 3.9693C19.4215 4.11003 19.5005 4.30091 19.5005 4.49993C19.5005 4.69895 19.4215 4.88982 19.2807 5.03055L12.3104 11.9999L19.2807 18.9693ZM4.81041 11.9999L11.7807 5.03055C11.9215 4.88982 12.0005 4.69895 12.0005 4.49993C12.0005 4.30091 11.9215 4.11003 11.7807 3.9693C11.64 3.82857 11.4491 3.74951 11.2501 3.74951C11.0511 3.74951 10.8602 3.82857 10.7195 3.9693L3.21948 11.4693C3.14974 11.539 3.09443 11.6217 3.05668 11.7127C3.01894 11.8038 2.99951 11.9014 2.99951 11.9999C2.99951 12.0985 3.01894 12.1961 3.05668 12.2871C3.09443 12.3782 3.14974 12.4609 3.21948 12.5306L10.7195 20.0306C10.7892 20.1002 10.8719 20.1555 10.9629 20.1932C11.054 20.2309 11.1516 20.2503 11.2501 20.2503C11.3486 20.2503 11.4462 20.2309 11.5373 20.1932C11.6283 20.1555 11.711 20.1002 11.7807 20.0306C11.8504 19.9609 11.9057 19.8781 11.9434 19.7871C11.9811 19.6961 12.0005 19.5985 12.0005 19.4999C12.0005 19.4014 11.9811 19.3038 11.9434 19.2128C11.9057 19.1217 11.8504 19.039 11.7807 18.9693L4.81041 11.9999Z" fill="#75899A"/>
</svg>
