<svg width="16" height="16" viewBox="0 0 16 16" fill="none" xmlns="http://www.w3.org/2000/svg">
<g id="CaretUpDown">
<path id="Vector" d="M11.3535 10.6466C11.4 10.6931 11.4369 10.7482 11.4621 10.8089C11.4872 10.8696 11.5002 10.9347 11.5002 11.0004C11.5002 11.0661 11.4872 11.1312 11.4621 11.1919C11.4369 11.2526 11.4 11.3077 11.3535 11.3541L8.35354 14.3541C8.3071 14.4006 8.25196 14.4375 8.19126 14.4627C8.13056 14.4878 8.0655 14.5008 7.99979 14.5008C7.93408 14.5008 7.86902 14.4878 7.80832 14.4627C7.74762 14.4375 7.69248 14.4006 7.64604 14.3541L4.64604 11.3541C4.55222 11.2603 4.49951 11.1331 4.49951 11.0004C4.49951 10.8677 4.55222 10.7405 4.64604 10.6466C4.73986 10.5528 4.86711 10.5001 4.99979 10.5001C5.13247 10.5001 5.25972 10.5528 5.35354 10.6466L7.99979 13.2935L10.646 10.6466C10.6925 10.6002 10.7476 10.5633 10.8083 10.5381C10.869 10.513 10.9341 10.5 10.9998 10.5C11.0655 10.5 11.1306 10.513 11.1913 10.5381C11.252 10.5633 11.3071 10.6002 11.3535 10.6466ZM5.35354 5.35414L7.99979 2.70727L10.646 5.35414C10.7399 5.44796 10.8671 5.50067 10.9998 5.50067C11.1325 5.50067 11.2597 5.44796 11.3535 5.35414C11.4474 5.26032 11.5001 5.13308 11.5001 5.00039C11.5001 4.86771 11.4474 4.74046 11.3535 4.64664L8.35354 1.64664C8.3071 1.60016 8.25196 1.56328 8.19126 1.53811C8.13056 1.51295 8.0655 1.5 7.99979 1.5C7.93408 1.5 7.86902 1.51295 7.80832 1.53811C7.74762 1.56328 7.69248 1.60016 7.64604 1.64664L4.64604 4.64664C4.55222 4.74046 4.49951 4.86771 4.49951 5.00039C4.49951 5.13308 4.55222 5.26032 4.64604 5.35414C4.73986 5.44796 4.86711 5.50067 4.99979 5.50067C5.13247 5.50067 5.25972 5.44796 5.35354 5.35414Z" fill="#2F4252"/>
</g>
</svg>
