<svg viewBox="0 0 32 32" fill="none" xmlns="http://www.w3.org/2000/svg">
<g id="Frame 3471">
<path id="Subtract" fill-rule="evenodd" clip-rule="evenodd" d="M8.8167 2.51703C9.16776 2.45145 9.52715 2.57807 9.75957 2.84923L15.4603 9.50002H16.5404L22.2411 2.84923C22.4735 2.57807 22.8329 2.45145 23.1839 2.51703C23.535 2.5826 23.8244 2.83043 23.9433 3.1672L26.9253 11.6163C27.5875 13.0002 28.1374 14.4 28.5041 15.7352C28.69 16.4122 28.8179 17.0492 28.8982 17.6455L21.5045 19.6559C20.9715 19.8009 20.657 20.3504 20.8019 20.8833C20.9468 21.4162 21.4963 21.7308 22.0292 21.5859L28.9982 19.691C28.9507 20.7812 28.7376 21.672 28.4731 22.3592C28.3399 22.7053 28.1881 23.037 28.019 23.3545L23.1436 22.5193C22.5992 22.4261 22.0823 22.7917 21.9891 23.3361C21.8958 23.8805 22.2615 24.3973 22.8058 24.4906L26.7375 25.1641C24.3345 27.7868 20.3784 29 16.0004 29C11.6225 29 7.66623 27.7868 5.26323 25.1642L9.19517 24.4906C9.73952 24.3973 10.1052 23.8805 10.012 23.3361C9.9187 22.7917 9.40182 22.4261 8.85746 22.5193L3.9817 23.3546C3.81251 23.037 3.66077 22.7053 3.52758 22.3592C3.27606 21.7056 3.14902 20.7377 3.11357 19.7515L9.85998 21.5859C10.3929 21.7308 10.9424 21.4162 11.0873 20.8833C11.2322 20.3504 10.9177 19.8009 10.3847 19.6559L3.16651 17.6933C3.22771 17.0008 3.33504 16.3233 3.49654 15.7352C3.86323 14.4 4.41313 13.0002 5.07528 11.6163L8.05733 3.1672C8.17619 2.83043 8.46563 2.5826 8.8167 2.51703ZM3.16651 17.6933L2.14007 17.4142C1.60713 17.2693 1.05763 17.5838 0.912727 18.1168C0.767819 18.6497 1.08238 19.1992 1.61531 19.3441L3.11357 19.7515C3.10753 19.5836 3.10415 19.4151 3.10326 19.2476C3.10059 18.7422 3.12053 18.2135 3.16651 17.6933ZM3.9817 23.3546L2.83151 23.5516C2.28716 23.6449 1.92147 24.1618 2.01473 24.7061C2.10798 25.2505 2.62487 25.6162 3.16922 25.5229L5.26323 25.1642C4.7663 24.6218 4.33578 24.0192 3.9817 23.3546ZM26.7375 25.1641L28.8318 25.5229C29.3762 25.6162 29.893 25.2505 29.9863 24.7061C30.0795 24.1618 29.7139 23.6449 29.1695 23.5516L28.019 23.3545C27.6649 24.0192 27.2344 24.6218 26.7375 25.1641ZM28.9982 19.691L30.2739 19.3441C30.8068 19.1992 31.1214 18.6497 30.9765 18.1168C30.8316 17.5838 30.2821 17.2693 29.7491 17.4142L28.8982 17.6455C28.9987 18.3909 29.0251 19.073 28.9982 19.691ZM13.6289 20.509C13.8061 20.1945 14.139 20 14.5 20H17.5C17.8609 20 18.1939 20.1945 18.3711 20.5089C18.5484 20.8234 18.5424 21.2089 18.3555 21.5177L17.5 21C18.3555 21.5177 18.355 21.5186 18.3549 21.5189L18.3541 21.5201L18.3524 21.5229L18.3483 21.5295L18.3372 21.5473L18.3286 21.5607C18.3214 21.5718 18.313 21.5846 18.3034 21.599C18.2758 21.6402 18.2378 21.6948 18.1898 21.7584C18.0951 21.884 17.9554 22.053 17.7744 22.225C17.592 22.3983 17.3307 22.6093 17 22.7674V27C17 27.5523 16.5523 28 16 28C15.4477 28 15 27.5523 15 27V22.7674C14.6694 22.6093 14.4081 22.3983 14.2258 22.225C14.0447 22.0531 13.905 21.8841 13.8102 21.7585C13.7623 21.6949 13.7242 21.6403 13.6967 21.5991C13.6828 21.5785 13.6716 21.561 13.6629 21.5473L13.6517 21.5296L13.6476 21.5229L13.6459 21.5202L13.6445 21.5178L14.4987 21.0008L13.7513 21.453L13.7512 21.453C13.6444 21.5177 13.6444 21.5177 13.6445 21.5178C13.4576 21.209 13.4516 20.8234 13.6289 20.509ZM11.982 11C12.3974 11 12.6316 10.523 12.3777 10.1943L9.57006 6.56054C9.32617 6.24488 8.82899 6.3279 8.70089 6.70567L7.24463 11H11.982ZM20.018 11C19.6026 11 19.3684 10.523 19.6223 10.1943L22.4299 6.56054C22.6738 6.24488 23.171 6.3279 23.2991 6.70567L24.7554 11H20.018Z" fill="white"/>
</g>
</svg>
