<svg viewBox="0 0 32 32" fill="none" xmlns="http://www.w3.org/2000/svg">
<g id="&#236;&#149;&#188;&#236;&#152;&#185;&#236;&#157;&#180;">
<path id="Subtract" fill-rule="evenodd" clip-rule="evenodd" d="M16 3.76404C12.4236 3.76404 9.37875 4.76909 7.22794 6.90137C5.07474 9.03603 4 12.1195 4 15.9044V28C4 28.7364 4.59695 29.3333 5.33333 29.3333H26.6667C27.403 29.3333 28 28.7364 28 28V15.9044C28 12.1195 26.9253 9.03603 24.7721 6.90137C22.6212 4.76909 19.5764 3.76404 16 3.76404ZM18.6668 10C18.6668 11.1046 17.4729 12 16.0002 12C14.5274 12 13.3335 11.1046 13.3335 10C13.3335 8.89543 14.5274 8 16.0002 8C17.4729 8 18.6668 8.89543 18.6668 10ZM12.4074 15.2109C13.197 14.4642 14.3804 14 16 14C17.6196 14 18.803 14.4642 19.5926 15.2109C20.0172 15.6124 20.2996 16.0703 20.4678 16.5203C20.8534 16.6276 21.2617 16.8061 21.64 17.0843C22.4265 17.6627 23 18.6163 23 19.9579C23 21.8411 21.6139 23.0646 20.2013 23.6057C18.9343 24.091 17.3771 24.1588 16 23.6376C14.6229 24.1588 13.0657 24.091 11.7987 23.6057C10.3861 23.0646 9 21.8411 9 19.9579C9 18.6163 9.57345 17.6627 10.36 17.0843C10.7383 16.8061 11.1466 16.6276 11.5322 16.5203C11.7004 16.0703 11.9828 15.6124 12.4074 15.2109ZM10 14.6666C11.1046 14.6666 12 13.7712 12 12.6666C12 11.5621 11.1046 10.6666 10 10.6666C8.89543 10.6666 8 11.5621 8 12.6666C8 13.7712 8.89543 14.6666 10 14.6666ZM24 12.6666C24 13.7712 23.1046 14.6666 22 14.6666C20.8954 14.6666 20 13.7712 20 12.6666C20 11.5621 20.8954 10.6666 22 10.6666C23.1046 10.6666 24 11.5621 24 12.6666Z" fill="white"/>
</g>
</svg>
