<svg viewBox="0 0 18 18" fill="currentColor" xmlns="http://www.w3.org/2000/svg">
<path d="M12.9375 2.25H5.0625C4.76413 2.25 4.47798 2.36853 4.267 2.5795C4.05603 2.79048 3.9375 3.07663 3.9375 3.375V15.75C3.93755 15.8504 3.96446 15.9489 4.01545 16.0354C4.06643 16.1219 4.13963 16.1931 4.22744 16.2418C4.31525 16.2904 4.41448 16.3147 4.51483 16.312C4.61519 16.3094 4.713 16.2799 4.79812 16.2267L9 13.6005L13.2026 16.2267C13.2877 16.2797 13.3854 16.309 13.4857 16.3116C13.5859 16.3142 13.685 16.2899 13.7727 16.2412C13.8604 16.1926 13.9335 16.1214 13.9845 16.0351C14.0354 15.9487 14.0624 15.8503 14.0625 15.75V3.375C14.0625 3.07663 13.944 2.79048 13.733 2.5795C13.522 2.36853 13.2359 2.25 12.9375 2.25ZM12.9375 14.7354L9.29742 12.4608C9.20802 12.4049 9.10472 12.3753 8.9993 12.3753C8.89387 12.3753 8.79057 12.4049 8.70117 12.4608L5.0625 14.7354V3.375H12.9375V14.7354Z" fill="currentColor"/>
<path fill-rule="evenodd" clip-rule="evenodd" d="M8.49573 5.44905C8.70206 5.03098 9.29822 5.03098 9.50456 5.44905L10.0135 6.48025L11.1515 6.64561C11.6129 6.71266 11.7971 7.27964 11.4632 7.60507L10.6398 8.40774L10.8342 9.54114C10.913 10.0007 10.4307 10.3511 10.018 10.1341L9.00014 9.599L7.98229 10.1341C7.56962 10.3511 7.08732 10.0007 7.16613 9.54114L7.36052 8.40774L6.53706 7.60507C6.20321 7.27964 6.38743 6.71266 6.84881 6.64561L7.9868 6.48025L8.49573 5.44905Z" fill="currentColor"/>
</svg>
