<svg viewBox="0 0 20 20" fill="currentColor" xmlns="http://www.w3.org/2000/svg">
<path fill-rule="evenodd" clip-rule="evenodd" d="M1.875 16.875C1.875 16.5298 2.15482 16.25 2.5 16.25L17.5 16.25C17.8452 16.25 18.125 16.5298 18.125 16.875C18.125 17.2202 17.8452 17.5 17.5 17.5L2.5 17.5C2.15482 17.5 1.875 17.2202 1.875 16.875Z" fill="currentColor"/>
<path fill-rule="evenodd" clip-rule="evenodd" d="M3.125 11.875C3.125 11.5298 3.40482 11.25 3.75 11.25H6.25C6.59518 11.25 6.875 11.5298 6.875 11.875V16.875C6.875 17.2202 6.59518 17.5 6.25 17.5H3.75C3.40482 17.5 3.125 17.2202 3.125 16.875V11.875Z" fill="currentColor"/>
<path fill-rule="evenodd" clip-rule="evenodd" d="M8.125 9.375C8.125 9.02982 8.40482 8.75 8.75 8.75H11.25C11.5952 8.75 11.875 9.02982 11.875 9.375V16.875C11.875 17.2202 11.5952 17.5 11.25 17.5H8.75C8.40482 17.5 8.125 17.2202 8.125 16.875V9.375Z" fill="currentColor"/>
<path fill-rule="evenodd" clip-rule="evenodd" d="M13.125 6.875C13.125 6.52982 13.4048 6.25 13.75 6.25H16.25C16.5952 6.25 16.875 6.52982 16.875 6.875V16.875C16.875 17.2202 16.5952 17.5 16.25 17.5H13.75C13.4048 17.5 13.125 17.2202 13.125 16.875V6.875Z" fill="currentColor"/>
<path d="M6.25 8.125C6.25 8.81536 5.69036 9.375 5 9.375C4.30964 9.375 3.75 8.81536 3.75 8.125C3.75 7.43464 4.30964 6.875 5 6.875C5.69036 6.875 6.25 7.43464 6.25 8.125Z" fill="currentColor"/>
<path d="M11.25 5.625C11.25 6.31536 10.6904 6.875 10 6.875C9.30964 6.875 8.75 6.31536 8.75 5.625C8.75 4.93464 9.30964 4.375 10 4.375C10.6904 4.375 11.25 4.93464 11.25 5.625Z" fill="currentColor"/>
<path d="M16.25 3.125C16.25 3.81536 15.6904 4.375 15 4.375C14.3096 4.375 13.75 3.81536 13.75 3.125C13.75 2.43464 14.3096 1.875 15 1.875C15.6904 1.875 16.25 2.43464 16.25 3.125Z" fill="currentColor"/>
<path fill-rule="evenodd" clip-rule="evenodd" d="M4.44101 8.40448C4.28664 8.09574 4.41178 7.72032 4.72052 7.56595L14.7205 2.56595C15.0293 2.41158 15.4047 2.53672 15.559 2.84546C15.7134 3.1542 15.5883 3.52962 15.2795 3.68398L5.27953 8.68398C4.9708 8.83835 4.59538 8.71321 4.44101 8.40448Z" fill="currentColor"/>
</svg>
