<svg viewBox="0 0 18 18" fill="currentColor" xmlns="http://www.w3.org/2000/svg">
<mask id="path-1-inside-1_8_2449" fill="currentColor">
<path fill-rule="evenodd" clip-rule="evenodd" d="M9 15.75C12.7279 15.75 15.75 12.7279 15.75 9C15.75 5.27208 12.7279 2.25 9 2.25C5.27208 2.25 2.25 5.27208 2.25 9C2.25 12.7279 5.27208 15.75 9 15.75ZM8.27328 12.2108L13.3358 7.14828C13.4413 7.04273 13.5006 6.89958 13.5006 6.75031C13.5006 6.60105 13.4413 6.45789 13.3358 6.35234C13.2302 6.2468 13.0871 6.1875 12.9378 6.1875C12.7885 6.1875 12.6454 6.2468 12.5398 6.35234L7.87531 11.0176L5.46078 8.60234C5.35523 8.4968 5.21208 8.4375 5.06281 8.4375C4.91355 8.4375 4.77039 8.4968 4.66484 8.60234C4.5593 8.70789 4.5 8.85105 4.5 9.00031C4.5 9.14958 4.5593 9.29273 4.66484 9.39828L7.47734 12.2108C7.52958 12.2631 7.59162 12.3046 7.65991 12.3329C7.7282 12.3612 7.80139 12.3758 7.87531 12.3758C7.94923 12.3758 8.02243 12.3612 8.09072 12.3329C8.159 12.3046 8.22104 12.2631 8.27328 12.2108Z"/>
</mask>
<path fill-rule="evenodd" clip-rule="evenodd" d="M9 15.75C12.7279 15.75 15.75 12.7279 15.75 9C15.75 5.27208 12.7279 2.25 9 2.25C5.27208 2.25 2.25 5.27208 2.25 9C2.25 12.7279 5.27208 15.75 9 15.75ZM8.27328 12.2108L13.3358 7.14828C13.4413 7.04273 13.5006 6.89958 13.5006 6.75031C13.5006 6.60105 13.4413 6.45789 13.3358 6.35234C13.2302 6.2468 13.0871 6.1875 12.9378 6.1875C12.7885 6.1875 12.6454 6.2468 12.5398 6.35234L7.87531 11.0176L5.46078 8.60234C5.35523 8.4968 5.21208 8.4375 5.06281 8.4375C4.91355 8.4375 4.77039 8.4968 4.66484 8.60234C4.5593 8.70789 4.5 8.85105 4.5 9.00031C4.5 9.14958 4.5593 9.29273 4.66484 9.39828L7.47734 12.2108C7.52958 12.2631 7.59162 12.3046 7.65991 12.3329C7.7282 12.3612 7.80139 12.3758 7.87531 12.3758C7.94923 12.3758 8.02243 12.3612 8.09072 12.3329C8.159 12.3046 8.22104 12.2631 8.27328 12.2108Z" fill="currentColor"/>
<path d="M13.3358 7.14828L14.75 8.5625L14.75 8.5625L13.3358 7.14828ZM8.27328 12.2108L6.85907 10.7966L6.85827 10.7974L8.27328 12.2108ZM12.5398 6.35234L11.1256 4.93813L11.1255 4.93824L12.5398 6.35234ZM7.87531 11.0176L6.46089 12.4316L7.87521 13.8463L9.28963 12.4317L7.87531 11.0176ZM5.46078 8.60234L6.8752 7.18834L6.875 7.18813L5.46078 8.60234ZM4.66484 8.60234L6.07906 10.0166L6.07906 10.0166L4.66484 8.60234ZM4.66484 9.39828L6.07906 7.98407L6.07906 7.98407L4.66484 9.39828ZM7.47734 12.2108L8.89235 10.7974L8.89156 10.7966L7.47734 12.2108ZM7.65991 12.3329L8.4258 10.4853L8.42578 10.4853L7.65991 12.3329ZM8.09072 12.3329L7.32485 10.4853L7.32482 10.4853L8.09072 12.3329ZM13.75 9C13.75 11.6234 11.6234 13.75 9 13.75V17.75C13.8325 17.75 17.75 13.8325 17.75 9H13.75ZM9 4.25C11.6234 4.25 13.75 6.37665 13.75 9H17.75C17.75 4.16751 13.8325 0.25 9 0.25V4.25ZM4.25 9C4.25 6.37665 6.37665 4.25 9 4.25V0.25C4.16751 0.25 0.25 4.16751 0.25 9H4.25ZM9 13.75C6.37665 13.75 4.25 11.6234 4.25 9H0.25C0.25 13.8325 4.16751 17.75 9 17.75V13.75ZM11.9216 5.73407L6.85907 10.7966L9.6875 13.625L14.75 8.5625L11.9216 5.73407ZM11.5006 6.75031C11.5006 6.36914 11.652 6.00359 11.9216 5.73407L14.75 8.5625C15.2306 8.08188 15.5006 7.43002 15.5006 6.75031H11.5006ZM11.9216 7.76656C11.652 7.49703 11.5006 7.13148 11.5006 6.75031H15.5006C15.5006 6.07061 15.2306 5.41875 14.75 4.93813L11.9216 7.76656ZM12.9378 8.1875C12.5567 8.1875 12.1911 8.03608 11.9216 7.76656L14.75 4.93813C14.2694 4.45751 13.6175 4.1875 12.9378 4.1875V8.1875ZM13.9541 7.76656C13.6845 8.03608 13.319 8.1875 12.9378 8.1875V4.1875C12.2581 4.1875 11.6063 4.45751 11.1256 4.93813L13.9541 7.76656ZM9.28963 12.4317L13.9542 7.76645L11.1255 4.93824L6.46099 9.60347L9.28963 12.4317ZM4.04636 10.0164L6.46089 12.4316L9.28973 9.60357L6.8752 7.18834L4.04636 10.0164ZM5.06281 10.4375C4.68165 10.4375 4.31609 10.2861 4.04657 10.0166L6.875 7.18813C6.39437 6.70751 5.74251 6.4375 5.06281 6.4375V10.4375ZM6.07906 10.0166C5.80953 10.2861 5.44398 10.4375 5.06281 10.4375V6.4375C4.38311 6.4375 3.73125 6.70751 3.25063 7.18813L6.07906 10.0166ZM6.5 9.00031C6.5 9.38148 6.34858 9.74703 6.07906 10.0166L3.25063 7.18813C2.77001 7.66875 2.5 8.32061 2.5 9.00031H6.5ZM6.07906 7.98407C6.34858 8.25359 6.5 8.61915 6.5 9.00031H2.5C2.5 9.68001 2.77001 10.3319 3.25063 10.8125L6.07906 7.98407ZM8.89156 10.7966L6.07906 7.98407L3.25063 10.8125L6.06313 13.625L8.89156 10.7966ZM8.42578 10.4853C8.6003 10.5577 8.75884 10.6637 8.89235 10.7974L6.06234 13.6242C6.30033 13.8625 6.58295 14.0515 6.89404 14.1804L8.42578 10.4853ZM7.87531 10.3758C8.06421 10.3758 8.25127 10.413 8.4258 10.4853L6.89402 14.1804C7.20512 14.3094 7.53858 14.3758 7.87531 14.3758V10.3758ZM7.32482 10.4853C7.49936 10.413 7.68642 10.3758 7.87531 10.3758V14.3758C8.21205 14.3758 8.5455 14.3094 8.85661 14.1804L7.32482 10.4853ZM6.85827 10.7974C6.99178 10.6637 7.15033 10.5577 7.32485 10.4853L8.85659 14.1804C9.16768 14.0515 9.4503 13.8625 9.68829 13.6242L6.85827 10.7974Z" fill="currentColor" mask="url(#path-1-inside-1_8_2449)"/>
</svg>
