<svg  fill="currentColor" xmlns="http://www.w3.org/2000/svg">
<path d="M15.6184 5.72265L7.28508 14.056C7.23671 14.1044 7.17927 14.1428 7.11604 14.169C7.05281 14.1952 6.98504 14.2087 6.91659 14.2087C6.84814 14.2087 6.78037 14.1952 6.71714 14.169C6.65391 14.1428 6.59647 14.1044 6.5481 14.056L2.90227 10.4102C2.80454 10.3124 2.74963 10.1799 2.74963 10.0417C2.74963 9.90345 2.80454 9.7709 2.90227 9.67317C3 9.57544 3.13255 9.52054 3.27076 9.52054C3.40897 9.52054 3.54152 9.57544 3.63925 9.67317L6.91659 12.9512L14.8814 4.98567C14.9792 4.88794 15.1117 4.83304 15.2499 4.83304C15.3881 4.83304 15.5207 4.88794 15.6184 4.98567C15.7161 5.0834 15.771 5.21595 15.771 5.35416C15.771 5.49237 15.7161 5.62492 15.6184 5.72265Z" fill="currentColor"/>
</svg>
