<svg viewBox="0 0 16 17" fill="currentColor" xmlns="http://www.w3.org/2000/svg">
<g id="Component 31">
<path id="Vector" d="M14 10V13.5C14 13.7652 13.8946 14.0196 13.7071 14.2071C13.5196 14.3946 13.2652 14.5 13 14.5H3C2.73478 14.5 2.48043 14.3946 2.29289 14.2071C2.10536 14.0196 2 13.7652 2 13.5V10C2 9.86739 2.05268 9.74021 2.14645 9.64645C2.24021 9.55268 2.36739 9.5 2.5 9.5C2.63261 9.5 2.75979 9.55268 2.85355 9.64645C2.94732 9.74021 3 9.86739 3 10V13.5H13V10C13 9.86739 13.0527 9.74021 13.1464 9.64645C13.2402 9.55268 13.3674 9.5 13.5 9.5C13.6326 9.5 13.7598 9.55268 13.8536 9.64645C13.9473 9.74021 14 9.86739 14 10ZM7.64625 10.3538C7.69269 10.4002 7.74783 10.4371 7.80853 10.4623C7.86923 10.4874 7.93429 10.5004 8 10.5004C8.06571 10.5004 8.13077 10.4874 8.19147 10.4623C8.25217 10.4371 8.30731 10.4002 8.35375 10.3538L10.8538 7.85375C10.9002 7.8073 10.9371 7.75214 10.9622 7.69145C10.9873 7.63075 11.0003 7.5657 11.0003 7.5C11.0003 7.4343 10.9873 7.36925 10.9622 7.30855C10.9371 7.24786 10.9002 7.1927 10.8538 7.14625C10.8073 7.09979 10.7521 7.06294 10.6914 7.0378C10.6308 7.01266 10.5657 6.99972 10.5 6.99972C10.4343 6.99972 10.3692 7.01266 10.3086 7.0378C10.2479 7.06294 10.1927 7.09979 10.1462 7.14625L8.5 8.79313V3C8.5 2.86739 8.44732 2.74021 8.35355 2.64645C8.25979 2.55268 8.13261 2.5 8 2.5C7.86739 2.5 7.74021 2.55268 7.64645 2.64645C7.55268 2.74021 7.5 2.86739 7.5 3V8.79313L5.85375 7.14625C5.75993 7.05243 5.63268 6.99972 5.5 6.99972C5.36732 6.99972 5.24007 7.05243 5.14625 7.14625C5.05243 7.24007 4.99972 7.36732 4.99972 7.5C4.99972 7.63268 5.05243 7.75993 5.14625 7.85375L7.64625 10.3538Z" fill="currentColor"/>
</g>
</svg>
