<svg  viewBox="0 0 24 24" fill="none" xmlns="http://www.w3.org/2000/svg">
<path fill-rule="evenodd" clip-rule="evenodd" d="M2.25 5.25C2.25 4.83579 2.58579 4.5 3 4.5H21C21.4142 4.5 21.75 4.83579 21.75 5.25V18.75C21.75 19.1642 21.4142 19.5 21 19.5H3C2.58579 19.5 2.25 19.1642 2.25 18.75V5.25ZM3.75 6V18H20.25V6H3.75Z" fill="black"/>
<path fill-rule="evenodd" clip-rule="evenodd" d="M2.29369 4.99786C2.40027 4.69931 2.683 4.5 3 4.5H21C21.317 4.5 21.5998 4.69931 21.7064 4.99786C21.813 5.29641 21.7203 5.62973 21.475 5.83047L12.475 13.3305C12.1987 13.5565 11.8014 13.5565 11.5251 13.3305L2.52511 5.83047C2.27976 5.62973 2.18712 5.29641 2.29369 4.99786ZM5.1011 6L12 11.781L18.899 6H5.1011Z" fill="black"/>
</svg>
