<svg viewBox="0 0 24 24" fill="currentColor" xmlns="http://www.w3.org/2000/svg">
<path fill-rule="evenodd" clip-rule="evenodd" d="M3 10.5C3 10.0858 3.33579 9.75 3.75 9.75H9C9.41421 9.75 9.75 10.0858 9.75 10.5V12.6389H14.25V10.5C14.25 10.0858 14.5858 9.75 15 9.75H20.25C20.6642 9.75 21 10.0858 21 10.5V20.25C21 20.6642 20.6642 21 20.25 21H3.75C3.33579 21 3 20.6642 3 20.25V10.5ZM4.5 11.25V19.5H19.5V11.25H15.75V13.3889C15.75 13.8031 15.4142 14.1389 15 14.1389H9C8.58579 14.1389 8.25 13.8031 8.25 13.3889V11.25H4.5Z" fill="currentColor"/>
<path fill-rule="evenodd" clip-rule="evenodd" d="M5.25 3.75C5.25 3.33579 5.58579 3 6 3H18C18.4142 3 18.75 3.33579 18.75 3.75V10.5H17.25V4.5H6.75V10.5H5.25V3.75Z" fill="currentColor"/>
</svg>
