<svg viewBox="0 0 12 12" fill="currentColorColor" xmlns="http://www.w3.org/2000/svg">
<path d="M6 1.125C5.03582 1.125 4.09329 1.41091 3.2916 1.94659C2.48991 2.48226 1.86507 3.24363 1.49609 4.13442C1.12711 5.02521 1.03057 6.00541 1.21867 6.95107C1.40678 7.89672 1.87108 8.76536 2.55286 9.44715C3.23464 10.1289 4.10328 10.5932 5.04894 10.7813C5.99459 10.9694 6.97479 10.8729 7.86558 10.5039C8.75637 10.1349 9.51775 9.51009 10.0534 8.7084C10.5891 7.90671 10.875 6.96418 10.875 6C10.8736 4.70749 10.3596 3.46831 9.44564 2.55436C8.5317 1.64042 7.29251 1.12636 6 1.125ZM6 10.125C5.18415 10.125 4.38663 9.88307 3.70827 9.42981C3.02992 8.97655 2.50121 8.33231 2.189 7.57857C1.87679 6.82482 1.7951 5.99542 1.95426 5.19525C2.11343 4.39508 2.5063 3.66008 3.08319 3.08318C3.66008 2.50629 4.39508 2.11342 5.19525 1.95426C5.99543 1.7951 6.82483 1.87679 7.57857 2.189C8.33232 2.50121 8.97655 3.02992 9.42981 3.70827C9.88307 4.38663 10.125 5.18415 10.125 6C10.1238 7.09364 9.68877 8.14213 8.91545 8.91545C8.14213 9.68876 7.09364 10.1238 6 10.125ZM6.5625 8.0625C6.5625 8.17375 6.52951 8.28251 6.4677 8.37501C6.4059 8.46751 6.31804 8.53961 6.21526 8.58218C6.11248 8.62476 5.99938 8.6359 5.89026 8.61419C5.78115 8.59249 5.68092 8.53891 5.60225 8.46025C5.52359 8.38158 5.47001 8.28135 5.44831 8.17224C5.42661 8.06312 5.43775 7.95002 5.48032 7.84724C5.52289 7.74446 5.59499 7.65661 5.68749 7.5948C5.78 7.53299 5.88875 7.5 6 7.5C6.14919 7.5 6.29226 7.55926 6.39775 7.66475C6.50324 7.77024 6.5625 7.91332 6.5625 8.0625Z" fill="currentColor"/>
<path fill-rule="evenodd" clip-rule="evenodd" d="M6 4.125C5.4481 4.125 5.25 4.491 5.25 4.6875C5.25 4.89461 5.08211 5.0625 4.875 5.0625C4.66789 5.0625 4.5 4.89461 4.5 4.6875C4.5 4.059 5.0519 3.375 6 3.375C6.94461 3.375 7.5 4.04146 7.5 4.6875C7.5 5.07155 7.36151 5.346 7.16603 5.54972C7.03728 5.6839 6.86482 5.79839 6.74934 5.87506C6.71701 5.89652 6.68915 5.91501 6.66796 5.93015C6.47894 6.06517 6.42766 6.15222 6.40658 6.20743C6.37941 6.27858 6.37499 6.36001 6.37498 6.56252C6.37496 6.76963 6.20706 6.93751 5.99995 6.9375C5.79285 6.93749 5.62496 6.76958 5.62498 6.56248C5.62498 6.55449 5.62497 6.54639 5.62496 6.53818C5.62477 6.36902 5.62453 6.15303 5.70592 5.93989C5.79734 5.70046 5.97106 5.50626 6.23204 5.31985C6.29588 5.27425 6.34968 5.23852 6.39678 5.20725C6.49058 5.14497 6.55781 5.10033 6.62488 5.03044C6.69493 4.95744 6.75 4.86595 6.75 4.6875C6.75 4.48023 6.55539 4.125 6 4.125Z" fill="currentColor"/>
</svg>
