<svg viewBox="0 0 16 16" fill="none" xmlns="http://www.w3.org/2000/svg">
<g id="Component 31">
<path id="Vector" d="M10 8.50049C10 8.36788 9.94732 8.2407 9.85355 8.14693C9.75979 8.05317 9.63261 8.00049 9.5 8.00049H2.5C2.36739 8.00049 2.24021 8.05317 2.14645 8.14693C2.05268 8.2407 2 8.36788 2 8.50049C2 8.6331 2.05268 8.76027 2.14645 8.85404C2.24021 8.94781 2.36739 9.00049 2.5 9.00049H9.5C9.63261 9.00049 9.75979 8.94781 9.85355 8.85404C9.94732 8.76027 10 8.6331 10 8.50049ZM2.5 12.0005H13.5C13.6326 12.0005 13.7598 12.0532 13.8536 12.1469C13.9473 12.2407 14 12.3679 14 12.5005C14 12.6331 13.9473 12.7603 13.8536 12.854C13.7598 12.9478 13.6326 13.0005 13.5 13.0005H2.5C2.36739 13.0005 2.24021 12.9478 2.14645 12.854C2.05268 12.7603 2 12.6331 2 12.5005C2 12.3679 2.05268 12.2407 2.14645 12.1469C2.24021 12.0532 2.36739 12.0005 2.5 12.0005ZM7 5.00049H2.5C2.36739 5.00049 2.24021 4.94781 2.14645 4.85404C2.05268 4.76027 2 4.6331 2 4.50049C2 4.36788 2.05268 4.2407 2.14645 4.14693C2.24021 4.05317 2.36739 4.00049 2.5 4.00049H7C7.13261 4.00049 7.25979 4.05317 7.35355 4.14693C7.44732 4.2407 7.5 4.36788 7.5 4.50049C7.5 4.6331 7.44732 4.76027 7.35355 4.85404C7.25979 4.94781 7.13261 5.00049 7 5.00049Z" fill="black"/>
<path id="Vector_2" d="M9.1467 4.85414C9.19314 4.90063 9.24829 4.93751 9.30899 4.96267C9.36968 4.98784 9.43475 5.00079 9.50045 5.00079C9.56616 5.00079 9.63123 4.98784 9.69193 4.96267C9.75262 4.93751 9.80777 4.90063 9.8542 4.85414L11.5005 3.20727L11.5005 10.0004C11.5005 10.133 11.5531 10.2602 11.6469 10.3539C11.7407 10.4477 11.8678 10.5004 12.0005 10.5004C12.1331 10.5004 12.2602 10.4477 12.354 10.3539C12.4478 10.2602 12.5005 10.133 12.5005 10.0004L12.5005 3.20727L14.1467 4.85414C14.2405 4.94796 14.3678 5.00067 14.5005 5.00067C14.6331 5.00067 14.7604 4.94796 14.8542 4.85414C14.948 4.76032 15.0007 4.63308 15.0007 4.50039C15.0007 4.36771 14.948 4.24046 14.8542 4.14664L12.3542 1.64664C12.3078 1.60016 12.2526 1.56328 12.1919 1.53811C12.1312 1.51295 12.0662 1.5 12.0005 1.5C11.9347 1.5 11.8697 1.51295 11.809 1.53811C11.7483 1.56328 11.6931 1.60016 11.6467 1.64664L9.1467 4.14664C9.10022 4.19308 9.06334 4.24822 9.03817 4.30892C9.01301 4.36962 9.00006 4.43469 9.00006 4.50039C9.00006 4.5661 9.01301 4.63117 9.03817 4.69186C9.06334 4.75256 9.10022 4.80771 9.1467 4.85414Z" fill="black"/>
</g>
</svg>
