<svg viewBox="0 0 14 14" fill="#8C9DAE" xmlns="http://www.w3.org/2000/svg">
<g id="Component 31">
<path id="Vector" d="M7 12.6875C8.12488 12.6875 9.2245 12.3539 10.1598 11.729C11.0951 11.104 11.8241 10.2158 12.2546 9.17651C12.685 8.13726 12.7977 6.99369 12.5782 5.89042C12.3588 4.78716 11.8171 3.77374 11.0217 2.97833C10.2263 2.18292 9.21284 1.64124 8.10957 1.42178C7.00631 1.20233 5.86274 1.31496 4.82349 1.74544C3.78423 2.17591 2.89597 2.90489 2.27102 3.84019C1.64607 4.7755 1.3125 5.87512 1.3125 7C1.31409 8.50793 1.91382 9.95364 2.98009 11.0199C4.04636 12.0862 5.49207 12.6859 7 12.6875ZM7 2.1875C7.95182 2.1875 8.88227 2.46975 9.67368 2.99855C10.4651 3.52736 11.0819 4.27897 11.4462 5.15834C11.8104 6.03771 11.9057 7.00534 11.72 7.93887C11.5343 8.87241 11.076 9.72991 10.4029 10.403C9.72991 11.076 8.8724 11.5343 7.93887 11.72C7.00534 11.9057 6.0377 11.8104 5.15833 11.4462C4.27896 11.0819 3.52736 10.4651 2.99855 9.67368C2.46975 8.88227 2.1875 7.95182 2.1875 7C2.18895 5.72409 2.69644 4.50085 3.59865 3.59865C4.50085 2.69644 5.72409 2.18895 7 2.1875ZM7.4375 6.5625L7.4375 9.625C7.4375 9.74103 7.3914 9.85231 7.30936 9.93436C7.22731 10.0164 7.11603 10.0625 7 10.0625C6.88397 10.0625 6.77269 10.0164 6.69064 9.93436C6.60859 9.85231 6.5625 9.74103 6.5625 9.625L6.5625 6.5625C6.5625 6.44647 6.60859 6.33519 6.69064 6.25314C6.77269 6.17109 6.88397 6.125 7 6.125C7.11603 6.125 7.22731 6.17109 7.30936 6.25314C7.3914 6.33519 7.4375 6.44647 7.4375 6.5625ZM6.34375 4.59375C6.34375 4.46396 6.38224 4.33708 6.45435 4.22916C6.52646 4.12124 6.62895 4.03712 6.74886 3.98745C6.86878 3.93778 7.00073 3.92479 7.12803 3.95011C7.25533 3.97543 7.37226 4.03793 7.46404 4.12971C7.55582 4.22149 7.61832 4.33842 7.64364 4.46572C7.66896 4.59302 7.65596 4.72497 7.60629 4.84489C7.55662 4.9648 7.47251 5.06729 7.36459 5.1394C7.25667 5.21151 7.12979 5.25 7 5.25C6.82595 5.25 6.65903 5.18086 6.53596 5.05779C6.41289 4.93472 6.34375 4.7678 6.34375 4.59375Z" fill="#8C9DAE"/>
</g>
</svg>
