<svg  viewBox="0 0 19 18" fill="none" xmlns="http://www.w3.org/2000/svg">
<path d="M9.5 1.6875C8.05373 1.6875 6.63993 2.11637 5.4374 2.91988C4.23486 3.72339 3.2976 4.86544 2.74413 6.20163C2.19067 7.53781 2.04586 9.00811 2.32801 10.4266C2.61017 11.8451 3.30661 13.148 4.32928 14.1707C5.35196 15.1934 6.65492 15.8898 8.07341 16.172C9.49189 16.4541 10.9622 16.3093 12.2984 15.7559C13.6346 15.2024 14.7766 14.2651 15.5801 13.0626C16.3836 11.8601 16.8125 10.4463 16.8125 9C16.8105 7.06123 16.0394 5.20246 14.6685 3.83154C13.2975 2.46063 11.4388 1.68955 9.5 1.6875Z" fill="currentColor"/>
<path fill-rule="evenodd" clip-rule="evenodd" d="M5.3703 6.2214C5.66226 6.11523 5.985 6.26584 6.09116 6.5578L7.73588 11.0808L8.79037 7.21428C8.98748 6.49157 10.0126 6.49157 10.2097 7.21428L11.2642 11.0808L12.9089 6.5578C13.0151 6.26584 13.3378 6.11523 13.6298 6.2214C13.9217 6.32756 14.0723 6.65031 13.9662 6.94226L11.9024 12.6176C11.6572 13.292 10.6903 13.252 10.5015 12.5598L9.50003 8.88786L8.4986 12.5598C8.3098 13.252 7.34288 13.292 7.09766 12.6176L5.0339 6.94226C4.92773 6.65031 5.07834 6.32756 5.3703 6.2214Z" fill="white"/>
<path fill-rule="evenodd" clip-rule="evenodd" d="M4.4375 9.5625C4.4375 9.25184 4.68934 9 5 9H14C14.3107 9 14.5625 9.25184 14.5625 9.5625C14.5625 9.87316 14.3107 10.125 14 10.125H5C4.68934 10.125 4.4375 9.87316 4.4375 9.5625Z" fill="white"/>
</svg>
