<svg viewBox="0 0 12 13" fill="none" xmlns="http://www.w3.org/2000/svg">
<path fill-rule="evenodd" clip-rule="evenodd" d="M6 1.17749C4.60592 1.17749 3.5 2.27265 3.5 3.59416V4.17749H8.5V3.59416C8.5 2.27265 7.39408 1.17749 6 1.17749ZM2.5 3.59416V4.17749H1C0.723858 4.17749 0.5 4.40135 0.5 4.67749V11.6775C0.5 11.9536 0.723858 12.1775 1 12.1775H11C11.2761 12.1775 11.5 11.9536 11.5 11.6775V4.67749C11.5 4.40135 11.2761 4.17749 11 4.17749H9.5V3.59416C9.5 1.694 7.91963 0.17749 6 0.17749C4.08037 0.17749 2.5 1.694 2.5 3.59416ZM1.5 5.17749H2.5H3.5H8.5H9.5H10.5V11.1775H1.5V5.17749ZM7 7.42749C7 7.80408 6.79183 8.13206 6.48428 8.30261C6.49454 8.34253 6.5 8.38437 6.5 8.42749V9.42749C6.5 9.70363 6.27614 9.92749 6 9.92749C5.72386 9.92749 5.5 9.70363 5.5 9.42749V8.42749C5.5 8.38437 5.50546 8.34253 5.51572 8.30261C5.20817 8.13206 5 7.80408 5 7.42749C5 6.87521 5.44772 6.42749 6 6.42749C6.55228 6.42749 7 6.87521 7 7.42749Z" fill="#868686"/>
</svg>
