<svg  viewBox="0 0 32 33" fill="none" xmlns="http://www.w3.org/2000/svg">
<path d="M16.0001 29.9984C21.1547 29.9984 25.3334 25.8197 25.3334 20.665C25.3334 15.5104 21.1547 11.3317 16.0001 11.3317C10.8454 11.3317 6.66675 15.5104 6.66675 20.665C6.66675 25.8197 10.8454 29.9984 16.0001 29.9984Z" fill="#C6C6C6"/>
<path d="M9.4681 13.9984H9.33341V11.3317C9.33341 7.64981 12.3182 4.66504 16.0001 4.66504C19.682 4.66504 22.6667 7.64981 22.6667 11.3317V13.9984H22.5321M16.0001 19.3317V21.9984M25.3334 20.665C25.3334 25.8197 21.1547 29.9984 16.0001 29.9984C10.8454 29.9984 6.66675 25.8197 6.66675 20.665C6.66675 15.5104 10.8454 11.3317 16.0001 11.3317C21.1547 11.3317 25.3334 15.5104 25.3334 20.665Z" stroke="#C6C6C6" stroke-width="2.10244" stroke-linecap="round" stroke-linejoin="round"/>
</svg>
