<svg width="244" height="175" viewBox="0 0 244 175" fill="none" xmlns="http://www.w3.org/2000/svg">
<g clip-path="url(#clip0_2280_41815)">
<path d="M34.6774 116.471V144.095H-0.000244141V116.471H10.6778V122.266H24.1245V116.492L34.6774 116.471ZM52.764 163.775H11.1091V166.474H53.6961V174.209H-0.000244141V156.679H41.6755V154.223H-0.000244141V146.676H52.7918L52.764 163.775ZM24.0967 135.9V130.44H10.6778V135.9H24.0967ZM41.7729 116.422H52.764V145.09H41.8007L41.7729 116.422Z" fill="#2F4252"/>
<path d="M118.53 161.346V170.863H60.7917V161.346H118.53ZM114.78 152.748H65.2438V118.495H113.799V127.831H76.4158V143.545H114.78V152.748Z" fill="#2F4252"/>
<path d="M126.314 118.008H137.305V157.604C145.221 156.908 153.02 156.373 160.957 155.698V165.089C149.173 166.07 138.126 167.12 126.335 168.101L126.314 118.008ZM164.435 116.471H175.433V135.99H183.412V145.569H175.433V173.931H164.442L164.435 116.471Z" fill="#2F4252"/>
<path d="M186.035 150.849H243.773V160.366H220.538V174.362H208.998V160.366H186.042L186.035 150.849ZM223.432 146.244H206.292C195.161 146.244 188.984 141.375 188.984 131.267C188.984 121.159 195.001 116.04 206.292 116.04H223.432C234.785 116.04 240.823 121.139 240.823 131.267C240.823 141.396 234.562 146.244 223.432 146.244ZM220.177 125.25H209.61C203.412 125.25 200.094 125.945 200.094 131.267C200.094 136.589 203.412 137.284 209.61 137.284H220.17C226.243 137.284 229.686 136.547 229.686 131.267C229.693 125.862 226.215 125.25 220.17 125.25H220.177Z" fill="#2F4252"/>
<path d="M89.2363 11.4015L122.001 0V11.4015L105.619 17.4327L89.2363 11.4015Z" fill="#5085EA"/>
<path d="M154.773 11.4015L122.001 0V11.4015L138.39 17.4327L154.773 11.4015Z" fill="#5085EA"/>
<path d="M122.001 34.5457L70.0996 15.666V26.4762L121.869 47.5819L122.015 47.5193V34.5387L122.001 34.5457Z" fill="url(#paint0_linear_2280_41815)"/>
<path d="M173.645 26.7406V15.666L122.015 34.5387V47.5193L163.99 30.6292V45.3281L122.015 60.6739V73.6545L173.645 52.8758V41.8012H173.631L173.603 26.7545L173.645 26.7406Z" fill="url(#paint1_linear_2280_41815)"/>
<path d="M173.645 79.0106V67.936L122.015 86.8087V99.7893L173.645 79.0106Z" fill="url(#paint2_linear_2280_41815)"/>
<path d="M121.869 73.7167L122.015 73.6541V60.6735L122.001 60.6804L70.0996 41.8008V52.611V67.9359V78.7462L121.869 99.8449L122.015 99.7893V86.8086L122.001 86.8156L79.7412 71.442L79.7203 56.5344L121.869 73.7167Z" fill="url(#paint3_linear_2280_41815)"/>
</g>
<defs>
<linearGradient id="paint0_linear_2280_41815" x1="70.0996" y1="31.624" x2="122.015" y2="31.624" gradientUnits="userSpaceOnUse">
<stop stop-color="#346167"/>
<stop offset="1" stop-color="#2E3C4E"/>
</linearGradient>
<linearGradient id="paint1_linear_2280_41815" x1="122.015" y1="44.6603" x2="173.645" y2="44.6603" gradientUnits="userSpaceOnUse">
<stop stop-color="#346167"/>
<stop offset="1" stop-color="#2E3C4E"/>
</linearGradient>
<linearGradient id="paint2_linear_2280_41815" x1="122.015" y1="83.8592" x2="173.645" y2="83.8592" gradientUnits="userSpaceOnUse">
<stop stop-color="#346167"/>
<stop offset="1" stop-color="#2E3C4E"/>
</linearGradient>
<linearGradient id="paint3_linear_2280_41815" x1="70.0996" y1="70.8228" x2="122.015" y2="70.8228" gradientUnits="userSpaceOnUse">
<stop stop-color="#346167"/>
<stop offset="1" stop-color="#2E3C4E"/>
</linearGradient>
<clipPath id="clip0_2280_41815">
<rect width="243.745" height="174.355" fill="white"/>
</clipPath>
</defs>
</svg>
