<svg viewBox="0 0 80 13" fill="currentColor" xmlns="http://www.w3.org/2000/svg">
<path d="M78.2683 12.5015C77.7417 12.5015 77.3164 12.3598 76.9924 12.0762C76.6785 11.7825 76.5215 11.4129 76.5215 10.9674C76.5215 10.5218 76.6785 10.1522 76.9924 9.85848C77.3164 9.56481 77.7417 9.41797 78.2683 9.41797C78.7848 9.41797 79.2 9.56481 79.5139 9.85848C79.838 10.1522 80 10.5218 80 10.9674C80 11.4028 79.838 11.7674 79.5139 12.061C79.2 12.3547 78.7848 12.5015 78.2683 12.5015Z" fill="#DCE94E"/>
<path d="M75.9782 3.8584L73.8061 12.38H70.4642L69.2794 7.21539L68.049 12.38H64.7224L62.5654 3.8584H65.5275L66.4845 9.50909L67.7452 3.8584H70.9351L72.2415 9.52428L73.1833 3.8584H75.9782Z" fill="#2F4252"/>
<path d="M57.6934 12.4862C56.8427 12.4862 56.0781 12.309 55.3997 11.9546C54.7313 11.6001 54.2047 11.0938 53.8199 10.4356C53.4351 9.77733 53.2427 9.00264 53.2427 8.11149C53.2427 7.23047 53.4351 6.46084 53.8199 5.80261C54.2148 5.14437 54.7465 4.63804 55.4148 4.2836C56.0933 3.92917 56.8579 3.75195 57.7085 3.75195C58.5592 3.75195 59.3187 3.92917 59.987 4.2836C60.6655 4.63804 61.1972 5.14437 61.582 5.80261C61.9769 6.46084 62.1744 7.23047 62.1744 8.11149C62.1744 8.99251 61.9769 9.7672 61.582 10.4356C61.1972 11.0938 60.6655 11.6001 59.987 11.9546C59.3086 12.309 58.544 12.4862 57.6934 12.4862ZM57.6934 9.90391C58.1085 9.90391 58.4529 9.75201 58.7263 9.44821C59.0098 9.13428 59.1516 8.68871 59.1516 8.11149C59.1516 7.53427 59.0098 7.09376 58.7263 6.78996C58.4529 6.48616 58.1136 6.33426 57.7085 6.33426C57.3035 6.33426 56.9642 6.48616 56.6908 6.78996C56.4174 7.09376 56.2807 7.53427 56.2807 8.11149C56.2807 8.69884 56.4123 9.14441 56.6756 9.44821C56.9389 9.75201 57.2782 9.90391 57.6934 9.90391Z" fill="currentColor"/>
<path d="M48.89 3.78247C49.8723 3.78247 50.652 4.11159 51.2293 4.76982C51.8065 5.41793 52.0951 6.29895 52.0951 7.41289V12.38H49.1178V7.80783C49.1178 7.32175 48.9913 6.942 48.7381 6.66858C48.4849 6.38503 48.1457 6.24325 47.7204 6.24325C47.2748 6.24325 46.9254 6.38503 46.6722 6.66858C46.4191 6.942 46.2925 7.32175 46.2925 7.80783V12.38H43.3152V3.85842H46.2925V5.07362C46.5558 4.68881 46.9102 4.37994 47.3558 4.14703C47.8014 3.90399 48.3128 3.78247 48.89 3.78247Z" fill="currentColor"/>
<path d="M29.5973 8.11162C29.5973 7.2306 29.7542 6.46098 30.0681 5.80274C30.3922 5.14451 30.8327 4.63817 31.3897 4.28374C31.9467 3.92931 32.5644 3.75209 33.2429 3.75209C33.7897 3.75209 34.2758 3.86855 34.7011 4.10146C35.1366 4.32425 35.4758 4.63311 35.7188 5.02805V1.1394H38.7113V12.38H35.7188V11.1952C35.4859 11.5901 35.1568 11.9041 34.7315 12.137C34.3062 12.3699 33.8049 12.4864 33.2277 12.4864C32.5492 12.4864 31.9315 12.3091 31.3745 11.9547C30.8276 11.6003 30.3922 11.0939 30.0681 10.4357C29.7542 9.76734 29.5973 8.99265 29.5973 8.11162ZM35.734 8.11162C35.734 7.56478 35.5821 7.1344 35.2783 6.82047C34.9847 6.50655 34.6201 6.34958 34.1846 6.34958C33.7391 6.34958 33.3694 6.50655 33.0758 6.82047C32.7821 7.12427 32.6353 7.55466 32.6353 8.11162C32.6353 8.65847 32.7821 9.09391 33.0758 9.41797C33.3694 9.73189 33.7391 9.88886 34.1846 9.88886C34.6201 9.88886 34.9847 9.73189 35.2783 9.41797C35.5821 9.10404 35.734 8.66859 35.734 8.11162Z" fill="currentColor"/>
<path d="M28.3878 1.1394V12.38H25.4106V1.1394H28.3878Z" fill="currentColor"/>
<path d="M23.7151 3.8584V12.38H20.7379V3.8584H23.7151Z" fill="currentColor"/>
<path d="M19.0436 3.8584V12.38H16.0512V11.1648C15.798 11.5496 15.4486 11.8635 15.0031 12.1066C14.5575 12.3395 14.0461 12.456 13.4689 12.456C12.4764 12.456 11.6916 12.1319 11.1144 11.4838C10.5473 10.8256 10.2638 9.93441 10.2638 8.81035V3.8584H13.2258V8.4306C13.2258 8.91668 13.3524 9.30149 13.6056 9.58504C13.8689 9.85846 14.2132 9.99517 14.6385 9.99517C15.0739 9.99517 15.4182 9.85846 15.6714 9.58504C15.9246 9.30149 16.0512 8.91668 16.0512 8.4306V3.8584H19.0436Z" fill="currentColor"/>
<path d="M2.97724 5.04324C3.21016 4.63817 3.53928 4.32425 3.9646 4.10146C4.38992 3.86855 4.89119 3.75209 5.46841 3.75209C6.1469 3.75209 6.75956 3.92931 7.3064 4.28374C7.86337 4.63817 8.29882 5.14451 8.61274 5.80274C8.9368 6.46098 9.09882 7.2306 9.09882 8.11162C9.09882 8.99265 8.9368 9.76734 8.61274 10.4357C8.29882 11.0939 7.86337 11.6003 7.3064 11.9547C6.75956 12.3091 6.1469 12.4864 5.46841 12.4864C4.89119 12.4864 4.38992 12.375 3.9646 12.1522C3.53928 11.9193 3.21016 11.6003 2.97724 11.1952V12.38H0V1.1394H2.97724V5.04324ZM6.07601 8.11162C6.07601 7.55466 5.92411 7.12427 5.62031 6.82047C5.32664 6.50655 4.96207 6.34958 4.52663 6.34958C4.09118 6.34958 3.72156 6.50655 3.41776 6.82047C3.12408 7.1344 2.97724 7.56478 2.97724 8.11162C2.97724 8.66859 3.12408 9.10404 3.41776 9.41797C3.72156 9.73189 4.09118 9.88886 4.52663 9.88886C4.96207 9.88886 5.32664 9.73189 5.62031 9.41797C5.92411 9.09391 6.07601 8.65847 6.07601 8.11162Z" fill="currentColor"/>
<path d="M20.9658 2.64306C21.2899 2.92661 21.7152 3.06839 22.2418 3.06839C22.7582 3.06839 23.1734 2.92661 23.4874 2.64306C23.8114 2.34939 23.9735 1.98483 23.9735 1.54938C23.9735 1.10381 23.8114 0.734185 23.4874 0.440511C23.1734 0.146837 22.7582 0 22.2418 0C21.7152 0 21.2899 0.146837 20.9658 0.440511C20.6519 0.734185 20.4949 1.10381 20.4949 1.54938C20.4949 1.98483 20.6519 2.34939 20.9658 2.64306Z" fill="#DCE94E"/>
</svg>
