<svg viewBox="0 0 16 16" fill="currentColor" xmlns="http://www.w3.org/2000/svg">
<g id="Component 31">
<path id="Vector" d="M10 7.5C10 7.63261 9.94732 7.75979 9.85355 7.85355C9.75979 7.94732 9.63261 8 9.5 8H2.5C2.36739 8 2.24021 7.94732 2.14645 7.85355C2.05268 7.75979 2 7.63261 2 7.5C2 7.36739 2.05268 7.24021 2.14645 7.14645C2.24021 7.05268 2.36739 7 2.5 7H9.5C9.63261 7 9.75979 7.05268 9.85355 7.14645C9.94732 7.24021 10 7.36739 10 7.5ZM2.5 4H13.5C13.6326 4 13.7598 3.94732 13.8536 3.85355C13.9473 3.75979 14 3.63261 14 3.5C14 3.36739 13.9473 3.24021 13.8536 3.14645C13.7598 3.05268 13.6326 3 13.5 3H2.5C2.36739 3 2.24021 3.05268 2.14645 3.14645C2.05268 3.24021 2 3.36739 2 3.5C2 3.63261 2.05268 3.75979 2.14645 3.85355C2.24021 3.94732 2.36739 4 2.5 4ZM7 11H2.5C2.36739 11 2.24021 11.0527 2.14645 11.1464C2.05268 11.2402 2 11.3674 2 11.5C2 11.6326 2.05268 11.7598 2.14645 11.8536C2.24021 11.9473 2.36739 12 2.5 12H7C7.13261 12 7.25979 11.9473 7.35355 11.8536C7.44732 11.7598 7.5 11.6326 7.5 11.5C7.5 11.3674 7.44732 11.2402 7.35355 11.1464C7.25979 11.0527 7.13261 11 7 11Z" fill="currentColor"/>
<path id="Vector_2" d="M9.1467 11.1463C9.19314 11.0999 9.24829 11.063 9.30899 11.0378C9.36968 11.0127 9.43475 10.9997 9.50045 10.9997C9.56616 10.9997 9.63123 11.0127 9.69193 11.0378C9.75262 11.063 9.80777 11.0999 9.8542 11.1463L11.5005 12.7932L11.5005 6.00012C11.5005 5.86751 11.5531 5.74034 11.6469 5.64657C11.7407 5.5528 11.8678 5.50012 12.0005 5.50012C12.1331 5.50012 12.2602 5.5528 12.354 5.64657C12.4478 5.74034 12.5005 5.86751 12.5005 6.00012L12.5005 12.7932L14.1467 11.1463C14.2405 11.0525 14.3678 10.9998 14.5005 10.9998C14.6331 10.9998 14.7604 11.0525 14.8542 11.1463C14.948 11.2402 15.0007 11.3674 15.0007 11.5001C15.0007 11.6328 14.948 11.76 14.8542 11.8538L12.3542 14.3538C12.3078 14.4003 12.2526 14.4372 12.1919 14.4624C12.1312 14.4875 12.0662 14.5005 12.0005 14.5005C11.9347 14.5005 11.8697 14.4875 11.809 14.4624C11.7483 14.4372 11.6931 14.4003 11.6467 14.3538L9.1467 11.8538C9.10022 11.8074 9.06334 11.7523 9.03817 11.6916C9.01301 11.6309 9.00006 11.5658 9.00006 11.5001C9.00006 11.4344 9.01301 11.3693 9.03817 11.3086C9.06334 11.2479 9.10022 11.1928 9.1467 11.1463Z" fill="currentColor"/>
</g>
</svg>
