<svg viewBox="0 0 32 32" fill="none" xmlns="http://www.w3.org/2000/svg">
<path d="M22.875 7.41261C20.9918 5.90299 18.6014 5 16 5C9.92487 5 5 9.92487 5 16C5 22.0751 9.92487 27 16 27C22.0751 27 27 22.0751 27 16C27 15.317 26.9378 14.6486 26.8186 14" stroke="#C6C6C6" stroke-width="2" stroke-linecap="round"/>
<circle cx="11.5" cy="14.5" r="1.5" fill="#C6C6C6"/>
<circle cx="20.5" cy="14.5" r="1.5" fill="#C6C6C6"/>
<path d="M13 20H19" stroke="#C6C6C6" stroke-width="2" stroke-linecap="round"/>
<path d="M27.1651 8.09673C27.1586 8.08192 27.1517 8.06726 27.1444 8.05279L26.3944 6.55279C26.225 6.214 25.8788 6 25.5 6C25.1212 6 24.775 6.214 24.6056 6.55279L23.8556 8.05279C23.849 8.06588 23.8428 8.07911 23.8368 8.09248C23.4471 8.96577 23 10.0421 23 11.0971C23 12.903 24.2029 14 25.5 14C26.7971 14 28 12.903 28 11.0971C28 10.0796 27.5478 8.96522 27.1651 8.09673Z" stroke="#C6C6C6" stroke-width="2" stroke-linejoin="round"/>
</svg>
