<svg  viewBox="0 0 20 20" fill="none" xmlns="http://www.w3.org/2000/svg">
<path fill-rule="evenodd" clip-rule="evenodd" d="M3.75 1.875C3.40482 1.875 3.125 2.15482 3.125 2.5V17.5C3.125 17.8452 3.40482 18.125 3.75 18.125H8.125C8.47018 18.125 8.75 17.8452 8.75 17.5C8.75 17.1548 8.47018 16.875 8.125 16.875H4.375V3.125H11.25V6.875C11.25 7.22018 11.5298 7.5 11.875 7.5H15.625V9.375C15.625 9.72018 15.9048 10 16.25 10C16.5952 10 16.875 9.72018 16.875 9.375V6.875C16.875 6.70924 16.8092 6.55027 16.6919 6.43306L12.3169 2.05806C12.1997 1.94085 12.0408 1.875 11.875 1.875H3.75ZM14.7411 6.25L12.5 4.00888V6.25H14.7411ZM12.1875 16.25C13.7408 16.25 15 14.9908 15 13.4375C15 11.8842 13.7408 10.625 12.1875 10.625C10.6342 10.625 9.375 11.8842 9.375 13.4375C9.375 14.9908 10.6342 16.25 12.1875 16.25ZM15.1866 16.1778C15.8471 15.4554 16.25 14.4935 16.25 13.4375C16.25 11.1938 14.4312 9.375 12.1875 9.375C9.94384 9.375 8.125 11.1938 8.125 13.4375C8.125 15.6812 9.94384 17.5 12.1875 17.5C12.9219 17.5 13.6108 17.3051 14.2053 16.9643L15.8081 18.567C16.0521 18.8111 16.4479 18.8111 16.6919 18.567C16.936 18.3229 16.936 17.9272 16.6919 17.6831L15.1866 16.1778Z" fill="#868686"/>
</svg>
