<svg  viewBox="0 0 24 24" fill="none" xmlns="http://www.w3.org/2000/svg">
<path fill-rule="evenodd" clip-rule="evenodd" d="M6.14433 2.25043C6.54216 2.25043 6.92369 2.40846 7.20499 2.68977L10.9809 6.46564C11.5666 7.05143 11.5666 8.00117 10.9809 8.58696L9.34447 10.2234L13.6961 14.575L15.3325 12.9386C15.9183 12.3528 16.868 12.3528 17.4538 12.9386L21.2297 16.7144C21.8154 17.3002 21.8154 18.25 21.2297 18.8358L20.2979 19.7675C17.6618 22.4036 13.388 22.4036 10.7519 19.7675L4.15187 13.1675C1.51583 10.5315 1.51584 6.2576 4.15188 3.62156L5.08367 2.68977C5.36497 2.40846 5.74651 2.25043 6.14433 2.25043ZM5.08587 4.81328C5.12718 4.76905 5.16941 4.72535 5.21254 4.68222L6.14433 3.75043L9.9202 7.5263L8.28381 9.16269C7.69803 9.74848 7.69802 10.6982 8.28381 11.284L12.6354 15.6356C13.2212 16.2214 14.1709 16.2214 14.7567 15.6356L16.3931 13.9992L20.169 17.7751L19.2372 18.7069C19.1941 18.75 19.1504 18.7922 19.1061 18.8336C17.0477 20.7562 13.8197 20.714 11.8126 18.7069L5.21253 12.1068C3.20541 10.0997 3.16319 6.87177 5.08587 4.81328Z" fill="black"/>
</svg>
