<svg  viewBox="0 0 21 20" fill="none" xmlns="http://www.w3.org/2000/svg">
<path d="M16.8038 6.43281L12.4288 2.05781C12.3707 1.99979 12.3017 1.95378 12.2259 1.92241C12.15 1.89105 12.0687 1.87494 11.9866 1.875H4.48657C4.15505 1.875 3.83711 2.0067 3.60269 2.24112C3.36827 2.47554 3.23657 2.79348 3.23657 3.125V16.875C3.23657 17.2065 3.36827 17.5245 3.60269 17.7589C3.83711 17.9933 4.15505 18.125 4.48657 18.125H15.7366C16.0681 18.125 16.386 17.9933 16.6205 17.7589C16.8549 17.5245 16.9866 17.2065 16.9866 16.875V6.875C16.9866 6.7929 16.9705 6.71159 16.9392 6.63572C16.9078 6.55985 16.8618 6.4909 16.8038 6.43281ZM12.6116 4.00859L14.853 6.25H12.6116V4.00859ZM15.7366 16.875H4.48657V3.125H11.3616V6.875C11.3616 7.04076 11.4274 7.19973 11.5446 7.31694C11.6618 7.43415 11.8208 7.5 11.9866 7.5H15.7366V16.875Z" fill="#727272"/>
</svg>
