<svg width="32" height="32" viewBox="0 0 32 32" fill="none" xmlns="http://www.w3.org/2000/svg">
<path d="M0 16C0 7.16345 7.16345 0 16 0V0C24.8366 0 32 7.16345 32 16V16C32 24.8366 24.8366 32 16 32V32C7.16345 32 0 24.8366 0 16V16Z" fill="#DDDDDD"/>
<path d="M18.3347 16.3379C20.0611 16.8426 21.5775 17.8932 22.6565 19.3322C23.7356 20.7713 24.3192 22.5213 24.32 24.3199H7.68002C7.68039 22.5212 8.26388 20.771 9.343 19.3319C10.4221 17.8927 11.9387 16.8422 13.6653 16.3379L16 19.8399L18.3347 16.3379ZM20.16 11.8399C20.16 12.9432 19.7217 14.0013 18.9416 14.7815C18.1614 15.5616 17.1033 15.9999 16 15.9999C14.8967 15.9999 13.8386 15.5616 13.0585 14.7815C12.2783 14.0013 11.84 12.9432 11.84 11.8399C11.84 10.7366 12.2783 9.67852 13.0585 8.89837C13.8386 8.11822 14.8967 7.67993 16 7.67993C17.1033 7.67993 18.1614 8.11822 18.9416 8.89837C19.7217 9.67852 20.16 10.7366 20.16 11.8399Z" fill="white"/>
</svg>
