<svg  viewBox="0 0 183 115" fill="none" xmlns="http://www.w3.org/2000/svg">
<rect x="0.933813" y="0.286718" width="181.779" height="113.708" rx="2.00703" fill="white"/>
<rect x="0.933813" y="0.286718" width="181.779" height="113.708" rx="2.00703" stroke="#DDDDDD" stroke-width="0.573437"/>
<path d="M16.486 17.9163H10.1043V17.4067H16.486V17.9163ZM13.5774 17.5635H12.9737V15.7211H13.5774V17.5635ZM11.4763 13.5965H15.0983V12.3342H15.702V15.9014H10.8569V12.3342H11.4763V13.5965ZM15.0983 15.3996V14.0982H11.4763V15.3996H15.0983ZM19.3241 18.81H18.689V16.1444H19.3241V18.81ZM21.7309 18.81H21.1116V16.1444H21.7309V18.81ZM23.4165 16.3248H17.0348V15.8152H23.4165V16.3248ZM20.21 12.1225C20.696 12.1225 21.1246 12.184 21.4957 12.3068C21.8668 12.4296 22.1543 12.606 22.3581 12.836C22.562 13.0659 22.6639 13.3351 22.6639 13.6435C22.6639 13.9466 22.562 14.2119 22.3581 14.4392C22.1543 14.6666 21.8668 14.8417 21.4957 14.9645C21.1246 15.0874 20.696 15.1488 20.21 15.1488C19.7239 15.1488 19.2966 15.0874 18.9281 14.9645C18.5597 14.8417 18.2722 14.6666 18.0657 14.4392C17.8593 14.2119 17.7561 13.9466 17.7561 13.6435C17.7561 13.3351 17.858 13.0659 18.0618 12.836C18.2657 12.606 18.5531 12.4296 18.9242 12.3068C19.2953 12.184 19.7239 12.1225 20.21 12.1225ZM20.21 12.6243C19.8493 12.6243 19.5318 12.6661 19.2574 12.7497C18.983 12.8334 18.77 12.9523 18.6185 13.1065C18.4669 13.2606 18.3911 13.4397 18.3911 13.6435C18.3911 13.8473 18.4669 14.025 18.6185 14.1766C18.77 14.3282 18.983 14.4458 19.2574 14.5294C19.5318 14.613 19.8493 14.6548 20.21 14.6548C20.5706 14.6548 20.8894 14.613 21.1664 14.5294C21.4435 14.4458 21.6577 14.3282 21.8093 14.1766C21.9609 14.025 22.0367 13.8473 22.0367 13.6435C22.0367 13.4397 21.9609 13.2606 21.8093 13.1065C21.6577 12.9523 21.4435 12.8334 21.1664 12.7497C20.8894 12.6661 20.5706 12.6243 20.21 12.6243ZM31.3427 13.5886H29.367V13.0712H31.3427V13.5886ZM31.3584 15.0782H29.367V14.5686H31.3584V15.0782ZM29.5238 15.7054H26.3251V12.4518H29.5238V15.7054ZM26.9367 15.2115H28.9202V12.9614H26.9367V15.2115ZM31.7739 16.9363H31.1545V11.8481H31.7739V16.9363ZM31.9307 18.6611H27.2659V18.1436H31.9307V18.6611ZM27.8853 18.371H27.2659V16.4816H27.8853V18.371ZM37.0816 13.471H32.9342V12.9614H37.0816V13.471ZM35.0118 14.0512C35.3254 14.0512 35.6063 14.1191 35.8546 14.255C36.1029 14.3909 36.2976 14.5804 36.4387 14.8234C36.5798 15.0664 36.6504 15.3421 36.6504 15.6505C36.6504 15.9537 36.5785 16.2268 36.4348 16.4698C36.291 16.7128 36.095 16.9036 35.8468 17.0421C35.5985 17.1806 35.3202 17.2499 35.0118 17.2499C34.7034 17.2499 34.4238 17.1806 34.1729 17.0421C33.9221 16.9036 33.7247 16.7128 33.581 16.4698C33.4373 16.2268 33.3654 15.9537 33.3654 15.6505C33.3654 15.3421 33.4373 15.0664 33.581 14.8234C33.7247 14.5804 33.9207 14.3909 34.169 14.255C34.4173 14.1191 34.6982 14.0512 35.0118 14.0512ZM35.0118 14.5764C34.8132 14.5764 34.6316 14.6235 34.4669 14.7176C34.3023 14.8116 34.1742 14.9397 34.0828 15.1017C33.9913 15.2637 33.9456 15.4467 33.9456 15.6505C33.9456 15.8544 33.9913 16.0386 34.0828 16.2032C34.1742 16.3679 34.3023 16.4946 34.4669 16.5835C34.6316 16.6723 34.8132 16.7168 35.0118 16.7168C35.2156 16.7168 35.3986 16.6723 35.5606 16.5835C35.7226 16.4946 35.8507 16.3679 35.9448 16.2032C36.0388 16.0386 36.0859 15.8544 36.0859 15.6505C36.0859 15.4467 36.0388 15.2637 35.9448 15.1017C35.8507 14.9397 35.7226 14.8116 35.5606 14.7176C35.3986 14.6235 35.2156 14.5764 35.0118 14.5764ZM35.3097 13.2123H34.6982V11.9265H35.3097V13.2123ZM38.7123 18.81H38.1008V11.8403H38.7123V18.81ZM38.5476 15.2899H36.9326V14.7724H38.5476V15.2899ZM44.1454 18.175H43.4319V13.2358H43.4006L42.0207 14.1531V13.4397L43.4319 12.4989H44.1454V18.175Z" fill="black"/>
<rect x="50.6963" y="13.168" width="4.01406" height="4.01406" rx="2.00703" fill="#DDDDDD"/>
<mask id="path-4-inside-1_4477_12663" fill="white">
<path fill-rule="evenodd" clip-rule="evenodd" d="M168.091 19.4758C170.466 19.4758 172.391 17.5502 172.391 15.175C172.391 12.7997 170.466 10.8742 168.091 10.8742C165.715 10.8742 163.79 12.7997 163.79 15.175C163.79 17.5502 165.715 19.4758 168.091 19.4758ZM167.628 17.2207L170.853 13.9952C170.92 13.9279 170.958 13.8367 170.958 13.7416C170.958 13.6465 170.92 13.5553 170.853 13.488C170.786 13.4208 170.695 13.383 170.6 13.383C170.505 13.383 170.413 13.4208 170.346 13.488L167.374 16.4605L165.836 14.9216C165.768 14.8544 165.677 14.8166 165.582 14.8166C165.487 14.8166 165.396 14.8544 165.329 14.9216C165.261 14.9889 165.223 15.0801 165.223 15.1752C165.223 15.2703 165.261 15.3615 165.329 15.4287L167.121 17.2207C167.154 17.2541 167.193 17.2805 167.237 17.2985C167.28 17.3166 167.327 17.3259 167.374 17.3259C167.421 17.3259 167.468 17.3166 167.511 17.2985C167.555 17.2805 167.594 17.2541 167.628 17.2207Z"/>
</mask>
<path fill-rule="evenodd" clip-rule="evenodd" d="M168.091 19.4758C170.466 19.4758 172.391 17.5502 172.391 15.175C172.391 12.7997 170.466 10.8742 168.091 10.8742C165.715 10.8742 163.79 12.7997 163.79 15.175C163.79 17.5502 165.715 19.4758 168.091 19.4758ZM167.628 17.2207L170.853 13.9952C170.92 13.9279 170.958 13.8367 170.958 13.7416C170.958 13.6465 170.92 13.5553 170.853 13.488C170.786 13.4208 170.695 13.383 170.6 13.383C170.505 13.383 170.413 13.4208 170.346 13.488L167.374 16.4605L165.836 14.9216C165.768 14.8544 165.677 14.8166 165.582 14.8166C165.487 14.8166 165.396 14.8544 165.329 14.9216C165.261 14.9889 165.223 15.0801 165.223 15.1752C165.223 15.2703 165.261 15.3615 165.329 15.4287L167.121 17.2207C167.154 17.2541 167.193 17.2805 167.237 17.2985C167.28 17.3166 167.327 17.3259 167.374 17.3259C167.421 17.3259 167.468 17.3166 167.511 17.2985C167.555 17.2805 167.594 17.2541 167.628 17.2207Z" fill="#4ECC8F"/>
<path d="M167.628 17.2207L167.121 16.7139L167.121 16.7142L167.628 17.2207ZM170.346 13.488L169.839 12.9812L169.839 12.9812L170.346 13.488ZM167.374 16.4605L166.867 16.9673L167.374 17.4743L167.881 16.9673L167.374 16.4605ZM165.836 14.9216L166.343 14.4148L166.343 14.4148L165.836 14.9216ZM165.329 14.9216L165.835 15.4285L165.835 15.4285L165.329 14.9216ZM165.329 15.4287L164.822 15.9356L164.822 15.9356L165.329 15.4287ZM167.121 17.2207L167.628 16.7142L167.627 16.7139L167.121 17.2207ZM167.237 17.2985L167.511 16.6364L167.511 16.6364L167.237 17.2985ZM167.511 17.2985L167.237 16.6364L167.237 16.6364L167.511 17.2985ZM171.675 15.175C171.675 17.1544 170.07 18.759 168.091 18.759V20.1926C170.862 20.1926 173.108 17.9461 173.108 15.175H171.675ZM168.091 11.591C170.07 11.591 171.675 13.1956 171.675 15.175H173.108C173.108 12.4039 170.862 10.1574 168.091 10.1574V11.591ZM164.507 15.175C164.507 13.1956 166.111 11.591 168.091 11.591V10.1574C165.319 10.1574 163.073 12.4039 163.073 15.175H164.507ZM168.091 18.759C166.111 18.759 164.507 17.1544 164.507 15.175H163.073C163.073 17.9461 165.319 20.1926 168.091 20.1926V18.759ZM170.346 13.4883L167.121 16.7139L168.134 17.7276L171.36 14.502L170.346 13.4883ZM170.241 13.7416C170.241 13.6466 170.279 13.5555 170.346 13.4883L171.36 14.502C171.562 14.3003 171.675 14.0268 171.675 13.7416H170.241ZM170.346 13.9949C170.279 13.9277 170.241 13.8366 170.241 13.7416H171.675C171.675 13.4564 171.562 13.1828 171.36 12.9812L170.346 13.9949ZM170.6 14.0998C170.505 14.0998 170.414 14.062 170.346 13.9949L171.36 12.9812C171.158 12.7795 170.885 12.6662 170.6 12.6662V14.0998ZM170.853 13.9949C170.786 14.0621 170.695 14.0998 170.6 14.0998V12.6662C170.314 12.6662 170.041 12.7795 169.839 12.9812L170.853 13.9949ZM167.881 16.9673L170.853 13.9948L169.839 12.9812L166.867 15.9537L167.881 16.9673ZM165.329 15.4284L166.867 16.9673L167.881 15.9537L166.343 14.4148L165.329 15.4284ZM165.582 15.5334C165.487 15.5334 165.396 15.4956 165.329 15.4285L166.343 14.4148C166.141 14.2131 165.867 14.0998 165.582 14.0998V15.5334ZM165.835 15.4285C165.768 15.4956 165.677 15.5334 165.582 15.5334V14.0998C165.297 14.0998 165.023 14.2131 164.822 14.4148L165.835 15.4285ZM165.94 15.1752C165.94 15.2702 165.903 15.3613 165.835 15.4285L164.822 14.4148C164.62 14.6164 164.507 14.89 164.507 15.1752H165.94ZM165.835 14.9219C165.903 14.9891 165.94 15.0802 165.94 15.1752H164.507C164.507 15.4604 164.62 15.7339 164.822 15.9356L165.835 14.9219ZM167.627 16.7139L165.835 14.9219L164.822 15.9356L166.614 17.7276L167.627 16.7139ZM167.511 16.6364C167.555 16.6544 167.594 16.6808 167.628 16.7142L166.613 17.7273C166.713 17.8273 166.832 17.9066 166.962 17.9607L167.511 16.6364ZM167.374 16.6091C167.421 16.6091 167.468 16.6183 167.511 16.6364L166.962 17.9607C167.093 18.0148 167.233 18.0426 167.374 18.0426V16.6091ZM167.237 16.6364C167.28 16.6183 167.327 16.6091 167.374 16.6091V18.0426C167.515 18.0426 167.655 18.0148 167.786 17.9607L167.237 16.6364ZM167.121 16.7142C167.154 16.6808 167.193 16.6544 167.237 16.6364L167.786 17.9607C167.916 17.9066 168.035 17.8273 168.135 17.7273L167.121 16.7142Z" fill="#4ECC8F" mask="url(#path-4-inside-1_4477_12663)"/>
<path d="M10.1087 25.7625C10.1087 24.654 11.0073 23.7555 12.1158 23.7555H171.531C172.64 23.7555 173.538 24.654 173.538 25.7625V46.4062C173.538 47.5147 172.64 48.4132 171.531 48.4132H12.1158C11.0073 48.4132 10.1087 47.5147 10.1087 46.4062V25.7625Z" fill="white"/>
<path d="M10.1087 25.7625C10.1087 24.654 11.0073 23.7555 12.1158 23.7555H171.531C172.64 23.7555 173.538 24.654 173.538 25.7625V46.4062C173.538 47.5147 172.64 48.4132 171.531 48.4132H12.1158C11.0073 48.4132 10.1087 47.5147 10.1087 46.4062V25.7625Z" stroke="#DDDDDD" stroke-width="0.573437"/>
<path d="M21.918 33.4127C21.918 33.8189 21.8209 34.1982 21.6268 34.5506C21.4327 34.903 21.1624 35.2062 20.8159 35.4601C20.4695 35.7139 20.0693 35.9036 19.6153 36.029L19.2927 35.4824C19.687 35.3749 20.0394 35.2181 20.35 35.0121C20.6606 34.806 20.904 34.5641 21.0803 34.2863C21.2565 34.0085 21.3446 33.7173 21.3446 33.4127V33.0633H21.918V33.4127ZM22.0345 33.4127C22.0345 33.6994 22.1256 33.9712 22.3078 34.2281C22.49 34.4849 22.7379 34.7089 23.0514 34.9001C23.365 35.0912 23.719 35.2346 24.1132 35.3301L23.7906 35.8677C23.3426 35.7542 22.9424 35.5795 22.59 35.3436C22.2376 35.1076 21.9643 34.8239 21.7702 34.4924C21.576 34.1609 21.479 33.801 21.479 33.4127V33.0633H22.0345V33.4127ZM23.8354 33.2245H19.5436V32.6511H23.8354V33.2245ZM22.0524 32.9737H21.3446V31.8089H22.0524V32.9737ZM25.6722 34.4073H23.5935V33.8338H25.6722V34.4073ZM25.9142 36.029H25.2153V31.8447H25.9142V36.029ZM25.9142 38.2959H21.47V39.4696H20.7711V37.7583H25.2153V36.9698H20.7532V36.4143H25.9142V38.2959ZM26.2188 39.7205H20.7711V39.156H26.2188V39.7205ZM33.3061 32.902H28.1721V32.3285H33.3061V32.902ZM34.5426 36.1007H27.2492V35.5093H34.5426V36.1007ZM33.5839 32.9468C33.5839 33.4485 33.5689 33.91 33.5391 34.3311C33.5092 34.7522 33.4375 35.2286 33.324 35.7602L32.6341 35.6975C32.7118 35.3271 32.7685 34.9807 32.8044 34.6581C32.8402 34.3356 32.8626 34.0518 32.8716 33.8069C32.8805 33.562 32.885 33.2753 32.885 32.9468V32.3285H33.5839V32.9468ZM33.8258 39.6309H28.2169V39.0396H33.8258V39.6309ZM28.9157 39.1292H28.2169V36.9967H28.9157V39.1292ZM41.2178 32.8124H36.0479V32.2389H41.2178V32.8124ZM41.5313 32.902C41.5313 33.2365 41.5284 33.5247 41.5224 33.7666C41.5164 34.0085 41.497 34.2803 41.4641 34.582C41.4313 34.8836 41.382 35.2047 41.3163 35.5452L40.6174 35.4824C40.6891 35.1539 40.7414 34.8418 40.7742 34.5461C40.8071 34.2505 40.8265 33.9846 40.8325 33.7487C40.8384 33.5128 40.8414 33.2305 40.8414 32.902V32.2389H41.5313V32.902ZM35.9493 34.4521L35.8507 33.8517L41.0386 33.6815V34.2101L35.9493 34.4521ZM42.4363 36.6562H35.1877V36.0828H42.4363V36.6562ZM38.8523 36.4501H38.1445V34.909H38.8523V36.4501ZM41.7195 39.6847H36.1106V39.1112H41.7195V39.6847ZM36.8184 39.3442H36.1106V37.3372H36.8184V39.3442ZM49.0756 33.2514H43.9864V32.6601H49.0756V33.2514ZM50.3659 38.6901H43.1083V38.0988H50.3659V38.6901ZM49.4609 33.6457C49.4609 34.1594 49.4564 34.5909 49.4475 34.9404C49.4385 35.2898 49.4101 35.6796 49.3623 36.1096C49.3146 36.5397 49.2369 37.0086 49.1294 37.5164L48.4216 37.4536C48.5291 36.9817 48.6082 36.5323 48.659 36.1052C48.7098 35.6781 48.7426 35.2943 48.7575 34.9538C48.7725 34.6133 48.7799 34.1773 48.7799 33.6457V32.6601H49.4609V33.6457ZM43.8699 35.6706L43.7713 35.0882L48.9591 34.8732V35.3929L43.8699 35.6706ZM57.6145 39.828H56.9156V31.8447H57.6145V39.828ZM52.1668 37.3013C52.9015 37.3013 53.5795 37.2804 54.2007 37.2386C54.8219 37.1968 55.47 37.1221 56.145 37.0146L56.2167 37.606C55.5298 37.7135 54.8712 37.7881 54.241 37.83C53.6109 37.8718 52.9194 37.8927 52.1668 37.8927H51.5038V37.3013H52.1668ZM55.1953 35.4197H52.2206V37.5253H51.5038V34.8463H54.4874V33.1708H51.4859V32.5884H55.1953V35.4197ZM65.4186 36.7279H59.9082V36.1544H65.4186V36.7279ZM66.2608 38.7708H58.9674V38.1884H66.2608V38.7708ZM65.329 33.126H60.625V36.3247H59.9082V32.5346H65.329V33.126ZM65.1587 34.8732H60.401V34.3087H65.1587V34.8732Z" fill="black"/>
<path d="M163.132 35.1404L160.265 38.0075C160.238 38.0342 160.207 38.0553 160.172 38.0698C160.137 38.0842 160.1 38.0916 160.062 38.0916C160.025 38.0916 159.987 38.0842 159.952 38.0698C159.918 38.0553 159.886 38.0342 159.859 38.0075L156.992 35.1404C156.938 35.0866 156.908 35.0136 156.908 34.9375C156.908 34.8614 156.938 34.7884 156.992 34.7346C157.046 34.6808 157.119 34.6506 157.195 34.6506C157.271 34.6506 157.344 34.6808 157.398 34.7346L160.062 37.3993L162.727 34.7346C162.753 34.708 162.785 34.6869 162.82 34.6725C162.854 34.658 162.892 34.6506 162.929 34.6506C162.967 34.6506 163.004 34.658 163.039 34.6725C163.074 34.6869 163.106 34.708 163.132 34.7346C163.159 34.7613 163.18 34.7929 163.194 34.8277C163.209 34.8625 163.216 34.8998 163.216 34.9375C163.216 34.9752 163.209 35.0125 163.194 35.0473C163.18 35.0821 163.159 35.1137 163.132 35.1404Z" fill="black"/>
<path d="M15.8823 61.1115H15.263V55.9606H15.8823V61.1115ZM15.3884 58.6262H13.7185V58.1088H15.3884V58.6262ZM13.7498 56.4937C13.7498 57.0791 13.6166 57.6201 13.35 58.1166C13.0834 58.6131 12.7058 59.0456 12.2171 59.4141C11.7284 59.7826 11.1496 60.0766 10.4806 60.2961L10.214 59.8022C10.7942 59.6088 11.2999 59.3618 11.7311 59.0613C12.1622 58.7608 12.4968 58.4119 12.7346 58.0147C12.9724 57.6175 13.0913 57.1941 13.0913 56.7446V56.4937H13.7498ZM13.4911 57.0112H10.5668V56.4937H13.4911V57.0112ZM16.0626 62.7735H11.4449V62.2561H16.0626V62.7735ZM12.0721 62.507H11.4449V60.5862H12.0721V62.507ZM22.46 57.7481H20.649V57.2385H22.46V57.7481ZM22.8207 59.5592H22.2013V55.9528H22.8207V59.5592ZM22.8207 61.574H18.9242V62.6403H18.3205V61.1036H22.2092V60.4059H18.3049V59.912H22.8207V61.574ZM23.0794 62.8284H18.3205V62.3345H23.0794V62.8284ZM19.3084 56.8387C19.3084 57.262 19.2287 57.6554 19.0693 58.0186C18.9098 58.3819 18.6838 58.6968 18.3911 58.9633C18.0984 59.2299 17.7587 59.4337 17.3719 59.5748L17.0348 59.0809C17.385 58.9659 17.6933 58.7961 17.9599 58.5713C18.2265 58.3466 18.4355 58.0852 18.5871 57.7873C18.7387 57.4894 18.8145 57.1732 18.8145 56.8387V56.1801H19.3084V56.8387ZM19.4181 56.8387C19.4181 57.1366 19.4913 57.4241 19.6376 57.7011C19.784 57.9781 19.9891 58.2224 20.2531 58.4341C20.517 58.6458 20.8163 58.8091 21.1508 58.9241L20.8215 59.4024C20.4504 59.2665 20.1198 59.0718 19.8297 58.8183C19.5396 58.5648 19.3136 58.2682 19.1516 57.9284C18.9895 57.5887 18.9085 57.2255 18.9085 56.8387V56.1801H19.4181V56.8387ZM29.4062 58.1323H27.5168V57.6227H29.4062V58.1323ZM25.9018 56.2821C26.2467 56.2768 26.5551 56.3422 26.8269 56.4781C27.0987 56.6139 27.313 56.8047 27.4698 57.0504C27.6266 57.296 27.705 57.5756 27.705 57.8892C27.705 58.2028 27.6266 58.4825 27.4698 58.7281C27.313 58.9738 27.0987 59.1645 26.8269 59.3004C26.5551 59.4363 26.2467 59.5043 25.9018 59.5043C25.5516 59.5043 25.2393 59.4363 24.9649 59.3004C24.6905 59.1645 24.4762 58.9738 24.322 58.7281C24.1678 58.4825 24.0907 58.2028 24.0907 57.8892C24.0907 57.5756 24.1678 57.296 24.322 57.0504C24.4762 56.8047 24.6918 56.6139 24.9688 56.4781C25.2458 56.3422 25.5568 56.2768 25.9018 56.2821ZM25.9018 56.8073C25.6666 56.8021 25.4562 56.8452 25.2707 56.9367C25.0851 57.0282 24.9401 57.1562 24.8355 57.3208C24.731 57.4855 24.6787 57.675 24.6787 57.8892C24.6787 58.0983 24.731 58.2865 24.8355 58.4537C24.9401 58.621 25.0851 58.7516 25.2707 58.8457C25.4562 58.9398 25.6666 58.9868 25.9018 58.9868C26.137 58.9868 26.346 58.9398 26.529 58.8457C26.7119 58.7516 26.8543 58.621 26.9563 58.4537C27.0582 58.2865 27.1091 58.0983 27.1091 57.8892C27.1091 57.675 27.0582 57.4855 26.9563 57.3208C26.8543 57.1562 26.7119 57.0282 26.529 56.9367C26.346 56.8452 26.137 56.8021 25.9018 56.8073ZM29.759 59.6924H29.1397V55.9528H29.759V59.6924ZM25.8861 60.9311H29.1397V60.0452H29.759V62.8284H25.2667V60.0452H25.8861V60.9311ZM29.1397 62.3267V61.4251H25.8861V62.3267H29.1397ZM39.2924 59.7865H32.9342V59.2691H39.2924V59.7865ZM38.5476 58.6027H33.7417V58.1009H38.5476V58.6027ZM38.5006 56.7524H34.3454V58.344H33.7417V56.235H38.5006V56.7524ZM36.1094 60.398C36.6059 60.398 37.0345 60.4464 37.3952 60.5431C37.7558 60.6398 38.0315 60.7822 38.2223 60.9703C38.413 61.1585 38.5084 61.3859 38.5084 61.6524C38.5084 61.919 38.413 62.1463 38.2223 62.3345C38.0315 62.5227 37.7571 62.6651 37.3991 62.7618C37.041 62.8585 36.6112 62.9068 36.1094 62.9068C35.6076 62.9068 35.1764 62.8585 34.8158 62.7618C34.4552 62.6651 34.1795 62.5227 33.9887 62.3345C33.7979 62.1463 33.7025 61.919 33.7025 61.6524C33.7025 61.3859 33.7979 61.1585 33.9887 60.9703C34.1795 60.7822 34.4552 60.6398 34.8158 60.5431C35.1764 60.4464 35.6076 60.398 36.1094 60.398ZM36.1094 60.8763C35.7383 60.8763 35.4195 60.9076 35.1529 60.9703C34.8864 61.0331 34.6825 61.1219 34.5414 61.2369C34.4003 61.3519 34.3297 61.4904 34.3297 61.6524C34.3297 61.8144 34.4003 61.953 34.5414 62.0679C34.6825 62.1829 34.8864 62.2705 35.1529 62.3306C35.4195 62.3907 35.7383 62.4207 36.1094 62.4207C36.4805 62.4207 36.7993 62.3907 37.0659 62.3306C37.3324 62.2705 37.5363 62.1829 37.6774 62.0679C37.8185 61.953 37.8891 61.8144 37.8891 61.6524C37.8891 61.4904 37.8185 61.3519 37.6774 61.2369C37.5363 61.1219 37.3324 61.0331 37.0659 60.9703C36.7993 60.9076 36.4805 60.8763 36.1094 60.8763ZM46.2465 60.304H39.8647V59.7944H46.2465V60.304ZM45.4233 57.8187H41.3073V58.7673H40.6958V57.3561H44.8039V56.6349H40.6723V56.1331H45.4233V57.8187ZM45.5722 59.0574H40.6958V58.5635H45.5722V59.0574ZM43.3535 60.0452H42.7498V58.8144H43.3535V60.0452ZM45.4625 62.8598H44.8431V61.3388H40.5782V60.8371H45.4625V62.8598ZM53.1613 59.7787H46.8109V59.2691H53.1613V59.7787ZM49.9861 60.3902C50.4827 60.3902 50.9112 60.4398 51.2719 60.5391C51.6325 60.6385 51.9082 60.7822 52.099 60.9703C52.2898 61.1585 52.3852 61.3859 52.3852 61.6524C52.3852 61.919 52.2898 62.1463 52.099 62.3345C51.9082 62.5227 51.6338 62.6651 51.2758 62.7618C50.9178 62.8585 50.4879 62.9068 49.9861 62.9068C49.4844 62.9068 49.0532 62.8585 48.6925 62.7618C48.3319 62.6651 48.0562 62.5227 47.8654 62.3345C47.6746 62.1463 47.5793 61.919 47.5793 61.6524C47.5793 61.3859 47.676 61.1585 47.8693 60.9703C48.0627 60.7822 48.3397 60.6385 48.7004 60.5391C49.061 60.4398 49.4896 60.3902 49.9861 60.3902ZM49.9861 60.8763C49.615 60.8763 49.2949 60.9063 49.0257 60.9664C48.7566 61.0265 48.5527 61.1154 48.4142 61.233C48.2757 61.3506 48.2065 61.4904 48.2065 61.6524C48.2065 61.8092 48.277 61.9451 48.4181 62.0601C48.5593 62.1751 48.7631 62.2626 49.0297 62.3227C49.2962 62.3828 49.615 62.4129 49.9861 62.4129C50.3572 62.4129 50.676 62.3828 50.9426 62.3227C51.2092 62.2626 51.413 62.1751 51.5541 62.0601C51.6952 61.9451 51.7658 61.8092 51.7658 61.6524C51.7658 61.4904 51.6952 61.3506 51.5541 61.233C51.413 61.1154 51.2092 61.0265 50.9426 60.9664C50.676 60.9063 50.3572 60.8763 49.9861 60.8763ZM50.1351 56.7916C50.1351 57.1523 50.0096 57.4776 49.7588 57.7677C49.5079 58.0578 49.1734 58.2956 48.7553 58.4812C48.3371 58.6667 47.8824 58.7908 47.3911 58.8536L47.1716 58.3596C47.5897 58.3126 47.9843 58.2146 48.3554 58.0656C48.7265 57.9167 49.0244 57.7311 49.2492 57.509C49.4739 57.2869 49.5863 57.0478 49.5863 56.7916V56.58H50.1351V56.7916ZM50.386 56.7916C50.386 57.0478 50.4983 57.2869 50.7231 57.509C50.9478 57.7311 51.2457 57.9167 51.6168 58.0656C51.9879 58.2146 52.3852 58.3126 52.8085 58.3596L52.5812 58.8536C52.0951 58.7908 51.643 58.6667 51.2248 58.4812C50.8067 58.2956 50.4709 58.0578 50.2174 57.7677C49.9639 57.4776 49.8372 57.1523 49.8372 56.7916V56.58H50.386V56.7916ZM52.5968 56.823H47.3911V56.3134H52.5968V56.823Z" fill="black"/>
<rect x="58.6963" y="57.2804" width="4.01406" height="4.01406" rx="2.00703" fill="#DDDDDD"/>
<mask id="path-11-inside-2_4477_12663" fill="white">
<path fill-rule="evenodd" clip-rule="evenodd" d="M168.091 63.5882C170.466 63.5882 172.391 61.6627 172.391 59.2875C172.391 56.9122 170.466 54.9867 168.091 54.9867C165.715 54.9867 163.79 56.9122 163.79 59.2875C163.79 61.6627 165.715 63.5882 168.091 63.5882ZM170.214 60.9424C170.196 60.8989 170.17 60.8594 170.136 60.8261L168.598 59.2877L170.136 57.7492C170.204 57.682 170.241 57.5908 170.241 57.4957C170.241 57.4006 170.204 57.3093 170.136 57.2421C170.069 57.1748 169.978 57.1371 169.883 57.1371C169.788 57.1371 169.697 57.1748 169.629 57.2421L168.091 58.781L166.552 57.2421C166.485 57.1748 166.394 57.1371 166.299 57.1371C166.204 57.1371 166.113 57.1748 166.045 57.2421C165.978 57.3093 165.94 57.4006 165.94 57.4957C165.94 57.5908 165.978 57.682 166.045 57.7492L167.584 59.2877L166.045 60.8261C165.978 60.8933 165.94 60.9845 165.94 61.0796C165.94 61.1748 165.978 61.266 166.045 61.3332C166.113 61.4005 166.204 61.4382 166.299 61.4382C166.394 61.4382 166.485 61.4005 166.552 61.3332L168.091 59.7943L169.629 61.3332C169.663 61.3665 169.702 61.3929 169.746 61.4109C169.789 61.429 169.836 61.4382 169.883 61.4382C169.93 61.4382 169.977 61.429 170.02 61.4109C170.064 61.3929 170.103 61.3665 170.136 61.3332C170.17 61.2999 170.196 61.2604 170.214 61.2169C170.232 61.1734 170.241 61.1267 170.241 61.0796C170.241 61.0326 170.232 60.9859 170.214 60.9424Z"/>
</mask>
<path fill-rule="evenodd" clip-rule="evenodd" d="M168.091 63.5882C170.466 63.5882 172.391 61.6627 172.391 59.2875C172.391 56.9122 170.466 54.9867 168.091 54.9867C165.715 54.9867 163.79 56.9122 163.79 59.2875C163.79 61.6627 165.715 63.5882 168.091 63.5882ZM170.214 60.9424C170.196 60.8989 170.17 60.8594 170.136 60.8261L168.598 59.2877L170.136 57.7492C170.204 57.682 170.241 57.5908 170.241 57.4957C170.241 57.4006 170.204 57.3093 170.136 57.2421C170.069 57.1748 169.978 57.1371 169.883 57.1371C169.788 57.1371 169.697 57.1748 169.629 57.2421L168.091 58.781L166.552 57.2421C166.485 57.1748 166.394 57.1371 166.299 57.1371C166.204 57.1371 166.113 57.1748 166.045 57.2421C165.978 57.3093 165.94 57.4006 165.94 57.4957C165.94 57.5908 165.978 57.682 166.045 57.7492L167.584 59.2877L166.045 60.8261C165.978 60.8933 165.94 60.9845 165.94 61.0796C165.94 61.1748 165.978 61.266 166.045 61.3332C166.113 61.4005 166.204 61.4382 166.299 61.4382C166.394 61.4382 166.485 61.4005 166.552 61.3332L168.091 59.7943L169.629 61.3332C169.663 61.3665 169.702 61.3929 169.746 61.4109C169.789 61.429 169.836 61.4382 169.883 61.4382C169.93 61.4382 169.977 61.429 170.02 61.4109C170.064 61.3929 170.103 61.3665 170.136 61.3332C170.17 61.2999 170.196 61.2604 170.214 61.2169C170.232 61.1734 170.241 61.1267 170.241 61.0796C170.241 61.0326 170.232 60.9859 170.214 60.9424Z" fill="#F52C00"/>
<path d="M170.136 60.8261L170.643 60.3192L170.643 60.3192L170.136 60.8261ZM168.598 59.2877L168.091 58.7807L167.584 59.2877L168.091 59.7946L168.598 59.2877ZM170.136 57.7492L170.643 58.2562L170.643 58.2561L170.136 57.7492ZM170.136 57.2421L169.63 57.7489L169.63 57.7489L170.136 57.2421ZM169.629 57.2421L169.122 56.7352L169.122 56.7353L169.629 57.2421ZM168.091 58.781L167.584 59.2877L168.091 59.7948L168.598 59.2877L168.091 58.781ZM166.552 57.2421L167.059 56.7353L167.059 56.7352L166.552 57.2421ZM166.045 57.7492L165.538 58.2561L165.539 58.2562L166.045 57.7492ZM167.584 59.2877L168.091 59.7946L168.598 59.2877L168.091 58.7807L167.584 59.2877ZM166.045 60.8261L165.539 60.3192L165.538 60.3192L166.045 60.8261ZM166.552 61.3332L167.059 61.8401L167.059 61.84L166.552 61.3332ZM168.091 59.7943L168.598 59.2876L168.091 58.7805L167.584 59.2876L168.091 59.7943ZM169.629 61.3332L169.122 61.84L169.122 61.8401L169.629 61.3332ZM169.746 61.4109L169.471 62.0732L169.471 62.0732L169.746 61.4109ZM170.02 61.4109L170.294 62.0732L170.294 62.0732L170.02 61.4109ZM170.136 61.3332L169.63 60.8264L169.63 60.8264L170.136 61.3332ZM171.675 59.2875C171.675 61.2668 170.07 62.8714 168.091 62.8714V64.305C170.862 64.305 173.108 62.0586 173.108 59.2875H171.675ZM168.091 55.7035C170.07 55.7035 171.675 57.3081 171.675 59.2875H173.108C173.108 56.5163 170.862 54.2699 168.091 54.2699V55.7035ZM164.507 59.2875C164.507 57.3081 166.111 55.7035 168.091 55.7035V54.2699C165.319 54.2699 163.073 56.5163 163.073 59.2875H164.507ZM168.091 62.8714C166.111 62.8714 164.507 61.2668 164.507 59.2875H163.073C163.073 62.0586 165.319 64.305 168.091 64.305V62.8714ZM169.63 61.3329C169.596 61.2997 169.57 61.2602 169.552 61.2167L170.876 60.6681C170.822 60.5376 170.743 60.4191 170.643 60.3192L169.63 61.3329ZM168.091 59.7946L169.63 61.333L170.643 60.3192L169.104 58.7807L168.091 59.7946ZM169.63 57.2423L168.091 58.7807L169.104 59.7946L170.643 58.2562L169.63 57.2423ZM169.525 57.4957C169.525 57.4007 169.562 57.3096 169.63 57.2424L170.643 58.2561C170.845 58.0544 170.958 57.7809 170.958 57.4957H169.525ZM169.63 57.7489C169.562 57.6818 169.525 57.5907 169.525 57.4957H170.958C170.958 57.2105 170.845 56.9369 170.643 56.7352L169.63 57.7489ZM169.883 57.8539C169.788 57.8539 169.697 57.8161 169.63 57.7489L170.643 56.7352C170.442 56.5336 170.168 56.4203 169.883 56.4203V57.8539ZM170.136 57.7489C170.069 57.8161 169.978 57.8539 169.883 57.8539V56.4203C169.598 56.4203 169.324 56.5336 169.122 56.7352L170.136 57.7489ZM168.598 59.2877L170.136 57.7489L169.122 56.7353L167.584 58.2742L168.598 59.2877ZM166.046 57.7489L167.584 59.2877L168.598 58.2742L167.059 56.7353L166.046 57.7489ZM166.299 57.8539C166.204 57.8539 166.113 57.8161 166.046 57.7489L167.059 56.7352C166.858 56.5336 166.584 56.4203 166.299 56.4203V57.8539ZM166.552 57.7489C166.485 57.8161 166.394 57.8539 166.299 57.8539V56.4203C166.014 56.4203 165.74 56.5336 165.538 56.7352L166.552 57.7489ZM166.657 57.4957C166.657 57.5907 166.619 57.6818 166.552 57.7489L165.538 56.7352C165.337 56.9369 165.223 57.2105 165.223 57.4957H166.657ZM166.552 57.2424C166.619 57.3096 166.657 57.4007 166.657 57.4957H165.223C165.223 57.7809 165.337 58.0544 165.538 58.2561L166.552 57.2424ZM168.091 58.7807L166.552 57.2423L165.539 58.2562L167.077 59.7946L168.091 58.7807ZM166.552 61.333L168.091 59.7946L167.077 58.7807L165.539 60.3192L166.552 61.333ZM166.657 61.0796C166.657 61.1746 166.619 61.2658 166.552 61.3329L165.538 60.3192C165.337 60.5209 165.223 60.7944 165.223 61.0796H166.657ZM166.552 60.8264C166.619 60.8935 166.657 60.9846 166.657 61.0796H165.223C165.223 61.3649 165.337 61.6384 165.538 61.8401L166.552 60.8264ZM166.299 60.7214C166.394 60.7214 166.485 60.7592 166.552 60.8264L165.538 61.8401C165.74 62.0417 166.014 62.155 166.299 62.155V60.7214ZM166.046 60.8264C166.113 60.7592 166.204 60.7214 166.299 60.7214V62.155C166.584 62.155 166.858 62.0417 167.059 61.8401L166.046 60.8264ZM167.584 59.2876L166.046 60.8264L167.059 61.84L168.598 60.3011L167.584 59.2876ZM170.136 60.8264L168.598 59.2876L167.584 60.3011L169.122 61.84L170.136 60.8264ZM170.02 60.7487C170.063 60.7667 170.103 60.7931 170.136 60.8264L169.122 61.8401C169.222 61.9399 169.341 62.0191 169.471 62.0732L170.02 60.7487ZM169.883 60.7214C169.93 60.7214 169.976 60.7307 170.02 60.7487L169.471 62.0732C169.602 62.1272 169.742 62.155 169.883 62.155V60.7214ZM169.746 60.7487C169.789 60.7307 169.836 60.7214 169.883 60.7214V62.155C170.024 62.155 170.164 62.1272 170.294 62.0732L169.746 60.7487ZM169.63 60.8264C169.663 60.7931 169.702 60.7667 169.746 60.7487L170.294 62.0732C170.425 62.0191 170.543 61.9399 170.643 61.8401L169.63 60.8264ZM169.552 60.9426C169.57 60.8991 169.596 60.8596 169.63 60.8264L170.643 61.8401C170.743 61.7402 170.822 61.6217 170.876 61.4912L169.552 60.9426ZM169.525 61.0796C169.525 61.0326 169.534 60.986 169.552 60.9426L170.876 61.4912C170.93 61.3607 170.958 61.2209 170.958 61.0796H169.525ZM169.552 61.2167C169.534 61.1733 169.525 61.1267 169.525 61.0796H170.958C170.958 60.9384 170.93 60.7986 170.876 60.6681L169.552 61.2167Z" fill="#F52C00" mask="url(#path-11-inside-2_4477_12663)"/>
<rect x="10.1087" y="67.8679" width="163.43" height="24.6578" rx="2.00703" fill="white"/>
<rect x="10.1087" y="67.8679" width="163.43" height="24.6578" rx="2.00703" stroke="#DDDDDD" stroke-width="0.573437"/>
<g clip-path="url(#clip0_4477_12663)">
<path d="M23.8982 77.4087H19.4182V76.8263H23.8982V77.4087ZM19.2211 81.3511C20.1469 81.3511 21.037 81.3361 21.8911 81.3063C22.7453 81.2764 23.5398 81.2167 24.2745 81.1271L24.3103 81.6468C23.5637 81.7662 22.7841 81.8454 21.9718 81.8842C21.1594 81.923 20.2724 81.9454 19.3107 81.9514L19.2211 81.3511ZM20.9772 81.5124H20.2963V77.2564H20.9772V81.5124ZM23.0111 81.5124H22.3391V77.2564H23.0111V81.5124ZM25.4841 83.9226H24.7852V75.9572H25.4841V83.9226ZM26.8191 79.7472H25.3228V79.1559H26.8191V79.7472ZM29.5071 76.2529C29.9013 76.2529 30.2552 76.3275 30.5688 76.4769C30.8824 76.6262 31.1274 76.8353 31.3036 77.1041C31.4798 77.3729 31.5679 77.6775 31.5679 78.018C31.5679 78.3584 31.4798 78.6616 31.3036 78.9274C31.1274 79.1932 30.8824 79.4008 30.5688 79.5501C30.2552 79.6995 29.9013 79.7741 29.5071 79.7741C29.1069 79.7741 28.75 79.6995 28.4364 79.5501C28.1228 79.4008 27.8779 79.1932 27.7017 78.9274C27.5255 78.6616 27.4373 78.3584 27.4373 78.018C27.4373 77.6775 27.5255 77.3729 27.7017 77.1041C27.8779 76.8353 28.1228 76.6262 28.4364 76.4769C28.75 76.3275 29.1069 76.2529 29.5071 76.2529ZM29.5071 76.8442C29.2443 76.8442 29.0083 76.8935 28.7993 76.9921C28.5902 77.0906 28.4259 77.2295 28.3065 77.4087C28.187 77.5879 28.1273 77.791 28.1273 78.018C28.1273 78.245 28.187 78.448 28.3065 78.6272C28.4259 78.8064 28.5902 78.9468 28.7993 79.0484C29.0083 79.1499 29.2443 79.2007 29.5071 79.2007C29.7699 79.2007 30.0059 79.1499 30.2149 79.0484C30.424 78.9468 30.5883 78.8064 30.7077 78.6272C30.8272 78.448 30.8869 78.245 30.8869 78.018C30.8869 77.791 30.8272 77.5879 30.7077 77.4087C30.5883 77.2295 30.424 77.0906 30.2149 76.9921C30.0059 76.8935 29.7699 76.8442 29.5071 76.8442ZM33.8258 80.0519H33.1269V75.9572H33.8258V80.0519ZM33.8258 82.3546H29.3548V83.5642H28.6649V81.826H33.1269V81.0016H28.6469V80.4372H33.8258V82.3546ZM34.1125 83.8151H28.6649V83.2506H34.1125V83.8151ZM43.6369 78.4301H41.603V77.8388H43.6369V78.4301ZM40.0798 77.4356C40.0798 77.9373 39.9873 78.4107 39.8021 78.8557C39.6169 79.3007 39.3586 79.689 39.027 80.0205C38.6955 80.352 38.3088 80.6074 37.8667 80.7866L37.4904 80.2132C37.8846 80.0638 38.2341 79.8488 38.5387 79.568C38.8434 79.2873 39.0823 78.9618 39.2555 78.5914C39.4287 78.2211 39.5154 77.8358 39.5154 77.4356V76.45H40.0798V77.4356ZM40.2053 77.4625C40.2053 77.8268 40.2889 78.1807 40.4562 78.5242C40.6234 78.8677 40.8564 79.1708 41.155 79.4336C41.4537 79.6965 41.7942 79.8996 42.1765 80.0429L41.7822 80.5895C41.3641 80.4222 40.9938 80.1818 40.6712 79.8682C40.3486 79.5546 40.0963 79.1902 39.9141 78.7751C39.7319 78.3599 39.6408 77.9224 39.6408 77.4625V76.45H40.2053V77.4625ZM44.0849 81.9335H43.3771V75.9661H44.0849V81.9335ZM44.2641 83.7523H38.933V83.161H44.2641V83.7523ZM39.6408 83.4208H38.933V81.2525H39.6408V83.4208ZM46.2712 79.7831C46.9402 79.7831 47.4867 79.7681 47.9108 79.7383C48.3349 79.7084 48.759 79.6517 49.1831 79.568L49.2548 80.1504C48.8009 80.2341 48.3588 80.2923 47.9288 80.3252C47.4987 80.358 46.9461 80.3744 46.2712 80.3744H45.7694V79.7831H46.2712ZM48.8606 77.1309H46.4414V80.0967H45.7694V76.5396H48.8606V77.1309ZM48.771 78.681H46.2264V78.1255H48.771V78.681ZM52.1758 80.7956H51.5038V75.9661H52.1758V80.7956ZM51.7188 78.6183H50.1867V78.0449H51.7188V78.6183ZM50.3838 80.7418H49.7297V76.1185H50.3838V80.7418ZM52.1758 83.9226H51.4859V81.7812H46.8088V81.2077H52.1758V83.9226Z" fill="#868686"/>
</g>
<path d="M65.2291 76.9697H60.0503V76.3873H65.2291V76.9697ZM66.4208 79.8996H59.1274V79.3172H66.4208V79.8996ZM65.4621 76.9786C65.4621 77.4386 65.4471 77.8582 65.4173 78.2375C65.3874 78.6168 65.3157 79.0514 65.2022 79.5412L64.5034 79.4964C64.587 79.1559 64.6467 78.8378 64.6826 78.5421C64.7184 78.2464 64.7408 77.9866 64.7498 77.7626C64.7587 77.5386 64.7632 77.2773 64.7632 76.9786V76.3873H65.4621V76.9786ZM65.4979 83.8151H60.0234V81.0016H65.4979V83.8151ZM60.7223 83.2416H64.799V81.5572H60.7223V83.2416ZM74.3414 80.5447H67.057V79.9623H74.3414V80.5447ZM71.0262 80.2221H70.3363V78.7348H71.0262V80.2221ZM70.9277 76.4589C70.9277 76.9129 70.7798 77.3281 70.4841 77.7044C70.1885 78.0807 69.7987 78.3943 69.3149 78.6452C68.831 78.896 68.3143 79.0693 67.7648 79.1648L67.496 78.6004C67.9739 78.5347 68.4308 78.3973 68.8669 78.1882C69.3029 77.9791 69.6553 77.7223 69.9241 77.4177C70.1929 77.113 70.3273 76.7934 70.3273 76.4589V76.0826H70.9277V76.4589ZM71.0352 76.4589C71.0352 76.7934 71.1711 77.113 71.4428 77.4177C71.7146 77.7223 72.07 77.9791 72.5091 78.1882C72.9481 78.3973 73.4036 78.5347 73.8755 78.6004L73.5888 79.1648C73.0452 79.0693 72.533 78.896 72.0521 78.6452C71.5713 78.3943 71.183 78.0792 70.8873 77.6999C70.5917 77.3206 70.4438 76.9069 70.4438 76.4589V76.0826H71.0352V76.4589ZM73.4185 83.9226H72.7107V81.8887H67.8633V81.3242H73.4185V83.9226ZM77.5849 77.6775C77.5849 78.1315 77.4908 78.5571 77.3027 78.9543C77.1145 79.3515 76.8517 79.695 76.5142 79.9847C76.1767 80.2744 75.7899 80.4939 75.3539 80.6432L74.9955 80.0877C75.3897 79.9623 75.7391 79.7801 76.0438 79.5412C76.3484 79.3022 76.5859 79.0215 76.7561 78.6989C76.9263 78.3764 77.0115 78.0359 77.0115 77.6775V77.346H77.5849V77.6775ZM77.7014 77.6775C77.7014 78.0001 77.785 78.3077 77.9523 78.6004C78.1195 78.8931 78.3525 79.1499 78.6511 79.3709C78.9498 79.5919 79.2933 79.7592 79.6815 79.8727L79.35 80.4372C78.914 80.2998 78.5272 80.0952 78.1897 79.8234C77.8522 79.5516 77.5909 79.2306 77.4057 78.8602C77.2205 78.4899 77.1279 78.0956 77.1279 77.6775V77.346H77.7014V77.6775ZM79.5023 77.5162H75.2105V76.9338H79.5023V77.5162ZM77.7193 77.1309H77.0115V75.9213H77.7193V77.1309ZM81.2137 80.8493H80.5148V75.9572H81.2137V80.8493ZM82.4143 78.6183H81.0166V78.0359H82.4143V78.6183ZM78.6601 81.0464C79.2037 81.0464 79.6726 81.1017 80.0668 81.2122C80.461 81.3227 80.7627 81.4855 80.9718 81.7005C81.1808 81.9156 81.2854 82.1724 81.2854 82.4711C81.2854 82.7697 81.1808 83.0266 80.9718 83.2416C80.7627 83.4567 80.4625 83.6194 80.0713 83.7299C79.68 83.8404 79.2096 83.8957 78.6601 83.8957C78.1105 83.8957 77.6387 83.8404 77.2444 83.7299C76.8502 83.6194 76.547 83.4567 76.335 83.2416C76.1229 83.0266 76.0169 82.7697 76.0169 82.4711C76.0169 82.1724 76.1229 81.9156 76.335 81.7005C76.547 81.4855 76.8517 81.3227 77.2489 81.2122C77.6461 81.1017 78.1165 81.0464 78.6601 81.0464ZM78.6601 81.602C78.2599 81.602 77.9134 81.6348 77.6207 81.7005C77.328 81.7662 77.1055 81.8648 76.9532 81.9962C76.8009 82.1276 76.7247 82.2859 76.7247 82.4711C76.7247 82.6503 76.8009 82.8071 76.9532 82.9415C77.1055 83.0759 77.328 83.1774 77.6207 83.2461C77.9134 83.3148 78.2599 83.3491 78.6601 83.3491C79.0663 83.3491 79.4142 83.3148 79.7039 83.2461C79.9936 83.1774 80.2161 83.0759 80.3714 82.9415C80.5267 82.8071 80.6044 82.6503 80.6044 82.4711C80.6044 82.2859 80.5267 82.1276 80.3714 81.9962C80.2161 81.8648 79.9936 81.7662 79.7039 81.7005C79.4142 81.6348 79.0663 81.602 78.6601 81.602ZM89.7973 77.7223H83.2745V77.1399H89.7973V77.7223ZM90.2095 82.9907H82.9161V82.4083H90.2095V82.9907ZM86.8853 82.6234H86.1954V81.1181H86.8853V82.6234ZM86.5448 78.2688C87.0765 78.2629 87.5394 78.3196 87.9336 78.4391C88.3279 78.5586 88.631 78.7303 88.8431 78.9543C89.0551 79.1783 89.1612 79.4486 89.1612 79.7652C89.1612 80.0817 89.0551 80.355 88.8431 80.585C88.631 80.815 88.3294 80.9912 87.9381 81.1136C87.5469 81.2361 87.0824 81.2973 86.5448 81.2973C86.0072 81.2973 85.5413 81.2361 85.1471 81.1136C84.7529 80.9912 84.4512 80.815 84.2421 80.585C84.0331 80.355 83.9285 80.0817 83.9285 79.7652C83.9285 79.4486 84.0331 79.1783 84.2421 78.9543C84.4512 78.7303 84.7529 78.5586 85.1471 78.4391C85.5413 78.3196 86.0072 78.2629 86.5448 78.2688ZM86.5448 78.8244C86.1506 78.8244 85.8101 78.8617 85.5234 78.9364C85.2367 79.011 85.0172 79.1186 84.8649 79.2589C84.7125 79.3993 84.6364 79.568 84.6364 79.7652C84.6364 79.9623 84.7125 80.1325 84.8649 80.2759C85.0172 80.4192 85.2367 80.5283 85.5234 80.6029C85.8101 80.6776 86.1506 80.7179 86.5448 80.7239C86.9391 80.7179 87.2781 80.6776 87.5618 80.6029C87.8455 80.5283 88.0636 80.4192 88.2159 80.2759C88.3682 80.1325 88.4444 79.9623 88.4444 79.7652C88.4444 79.568 88.3682 79.3993 88.2159 79.2589C88.0636 79.1186 87.844 79.011 87.5573 78.9364C87.2706 78.8617 86.9331 78.8244 86.5448 78.8244ZM86.8853 77.4983H86.1954V76.0916H86.8853V77.4983ZM94.5013 83.9047H90.4424V83.1968H94.5013V83.9047ZM102.01 80.3386H94.7432V79.7472H102.01V80.3386ZM101.159 78.9856H95.6661V78.4122H101.159V78.9856ZM101.105 76.8711H96.356V78.69H95.6661V76.2797H101.105V76.8711ZM98.372 81.0375C98.9394 81.0375 99.4293 81.0927 99.8414 81.2032C100.254 81.3137 100.569 81.4765 100.787 81.6916C101.005 81.9066 101.114 82.1664 101.114 82.4711C101.114 82.7757 101.005 83.0355 100.787 83.2506C100.569 83.4656 100.255 83.6284 99.8459 83.7389C99.4367 83.8494 98.9454 83.9047 98.372 83.9047C97.7985 83.9047 97.3057 83.8494 96.8936 83.7389C96.4814 83.6284 96.1663 83.4656 95.9483 83.2506C95.7303 83.0355 95.6213 82.7757 95.6213 82.4711C95.6213 82.1664 95.7303 81.9066 95.9483 81.6916C96.1663 81.4765 96.4814 81.3137 96.8936 81.2032C97.3057 81.0927 97.7985 81.0375 98.372 81.0375ZM98.372 81.584C97.9479 81.584 97.5835 81.6199 97.2789 81.6916C96.9742 81.7632 96.7413 81.8648 96.58 81.9962C96.4187 82.1276 96.3381 82.2859 96.3381 82.4711C96.3381 82.6562 96.4187 82.8145 96.58 82.9459C96.7413 83.0774 96.9742 83.1774 97.2789 83.2461C97.5835 83.3148 97.9479 83.3491 98.372 83.3491C98.7961 83.3491 99.1605 83.3148 99.4651 83.2461C99.7697 83.1774 100.003 83.0774 100.164 82.9459C100.325 82.8145 100.406 82.6562 100.406 82.4711C100.406 82.2859 100.325 82.1276 100.164 81.9962C100.003 81.8648 99.7697 81.7632 99.4651 81.6916C99.1605 81.6199 98.7961 81.584 98.372 81.584ZM109.957 80.93H102.664V80.3476H109.957V80.93ZM109.016 78.0897H104.312V79.1738H103.614V77.561H108.309V76.7367H103.587V76.1633H109.016V78.0897ZM109.187 79.5053H103.614V78.9408H109.187V79.5053ZM106.651 80.6343H105.961V79.2276H106.651V80.6343ZM109.061 83.8509H108.353V82.1127H103.479V81.5392H109.061V83.8509ZM117.86 80.3296H110.602V79.7472H117.86V80.3296ZM114.231 81.0285C114.799 81.0285 115.288 81.0853 115.701 81.1988C116.113 81.3122 116.428 81.4765 116.646 81.6916C116.864 81.9066 116.973 82.1664 116.973 82.4711C116.973 82.7757 116.864 83.0355 116.646 83.2506C116.428 83.4656 116.114 83.6284 115.705 83.7389C115.296 83.8494 114.805 83.9047 114.231 83.9047C113.658 83.9047 113.165 83.8494 112.753 83.7389C112.341 83.6284 112.025 83.4656 111.807 83.2506C111.589 83.0355 111.48 82.7757 111.48 82.4711C111.48 82.1664 111.591 81.9066 111.812 81.6916C112.033 81.4765 112.35 81.3122 112.762 81.1988C113.174 81.0853 113.664 81.0285 114.231 81.0285ZM114.231 81.584C113.807 81.584 113.441 81.6184 113.134 81.6871C112.826 81.7558 112.593 81.8573 112.435 81.9917C112.276 82.1261 112.197 82.2859 112.197 82.4711C112.197 82.6503 112.278 82.8056 112.439 82.937C112.6 83.0684 112.833 83.1684 113.138 83.2371C113.443 83.3058 113.807 83.3402 114.231 83.3402C114.655 83.3402 115.02 83.3058 115.324 83.2371C115.629 83.1684 115.862 83.0684 116.023 82.937C116.184 82.8056 116.265 82.6503 116.265 82.4711C116.265 82.2859 116.184 82.1261 116.023 81.9917C115.862 81.8573 115.629 81.7558 115.324 81.6871C115.02 81.6184 114.655 81.584 114.231 81.584ZM114.401 76.9159C114.401 77.3281 114.258 77.6999 113.971 78.0314C113.685 78.3629 113.302 78.6347 112.824 78.8468C112.347 79.0588 111.827 79.2007 111.265 79.2724L111.014 78.7079C111.492 78.6541 111.943 78.5421 112.367 78.3719C112.792 78.2016 113.132 77.9896 113.389 77.7357C113.646 77.4819 113.774 77.2086 113.774 76.9159V76.674H114.401V76.9159ZM114.688 76.9159C114.688 77.2086 114.816 77.4819 115.073 77.7357C115.33 77.9896 115.671 78.2016 116.095 78.3719C116.519 78.5421 116.973 78.6541 117.457 78.7079L117.197 79.2724C116.641 79.2007 116.125 79.0588 115.647 78.8468C115.169 78.6347 114.785 78.3629 114.495 78.0314C114.206 77.6999 114.061 77.3281 114.061 76.9159V76.674H114.688V76.9159ZM117.215 76.9517H111.265V76.3693H117.215V76.9517ZM119.374 83.2506C119.273 83.2506 119.177 83.2237 119.087 83.1699C118.998 83.1162 118.928 83.0445 118.877 82.9549C118.826 82.8653 118.801 82.7697 118.801 82.6682C118.801 82.5666 118.826 82.4711 118.877 82.3815C118.928 82.2919 118.998 82.2217 119.087 82.1709C119.177 82.1201 119.273 82.0947 119.374 82.0947C119.476 82.0947 119.571 82.1201 119.661 82.1709C119.75 82.2217 119.821 82.2919 119.871 82.3815C119.922 82.4711 119.948 82.5666 119.948 82.6682C119.948 82.7697 119.922 82.8653 119.871 82.9549C119.821 83.0445 119.75 83.1162 119.661 83.1699C119.571 83.2237 119.476 83.2506 119.374 83.2506ZM121.157 78.3316H121.901V79.1021H121.99C122.086 78.9468 122.179 78.8154 122.268 78.7079C122.358 78.6004 122.497 78.5003 122.685 78.4077C122.873 78.3151 123.11 78.2688 123.397 78.2688C123.803 78.2688 124.163 78.3704 124.477 78.5735C124.79 78.7766 125.034 79.0678 125.207 79.4471C125.38 79.8264 125.467 80.2699 125.467 80.7776C125.467 81.2794 125.38 81.7214 125.207 82.1037C125.034 82.486 124.79 82.7802 124.477 82.9863C124.163 83.1923 123.806 83.2954 123.406 83.2954C123.125 83.2954 122.889 83.2476 122.698 83.152C122.507 83.0565 122.364 82.9534 122.268 82.8429C122.173 82.7324 122.08 82.6025 121.99 82.4531H121.928V85.0247H121.157V78.3316ZM121.91 80.7597C121.91 81.1241 121.964 81.4452 122.071 81.7229C122.179 82.0007 122.337 82.2172 122.546 82.3725C122.755 82.5278 123.006 82.6055 123.299 82.6055C123.597 82.6055 123.853 82.5248 124.065 82.3635C124.277 82.2023 124.435 81.9827 124.54 81.705C124.644 81.4272 124.696 81.1121 124.696 80.7597C124.696 80.4133 124.644 80.1041 124.54 79.8324C124.435 79.5606 124.278 79.347 124.069 79.1917C123.86 79.0364 123.603 78.9588 123.299 78.9588C123 78.9588 122.748 79.0334 122.541 79.1828C122.335 79.3321 122.179 79.5412 122.071 79.81C121.964 80.0788 121.91 80.3953 121.91 80.7597ZM128.307 83.2954C127.907 83.2954 127.55 83.1923 127.236 82.9863C126.923 82.7802 126.678 82.486 126.502 82.1037C126.326 81.7214 126.237 81.2794 126.237 80.7776C126.237 80.2699 126.326 79.8264 126.502 79.4471C126.678 79.0678 126.923 78.7766 127.236 78.5735C127.55 78.3704 127.91 78.2688 128.316 78.2688C128.603 78.2688 128.84 78.3151 129.028 78.4077C129.217 78.5003 129.355 78.6004 129.445 78.7079C129.535 78.8154 129.627 78.9468 129.723 79.1021H129.777V76.7098H130.556V83.1968H129.803V82.4531H129.723C129.621 82.6085 129.526 82.7399 129.436 82.8474C129.347 82.9549 129.208 83.0565 129.02 83.152C128.831 83.2476 128.594 83.2954 128.307 83.2954ZM128.415 82.6055C128.707 82.6055 128.958 82.5278 129.167 82.3725C129.376 82.2172 129.535 82.0007 129.642 81.7229C129.75 81.4452 129.803 81.1241 129.803 80.7597C129.803 80.3953 129.751 80.0788 129.647 79.81C129.542 79.5412 129.385 79.3321 129.176 79.1828C128.967 79.0334 128.713 78.9588 128.415 78.9588C128.116 78.9588 127.862 79.0364 127.653 79.1917C127.444 79.347 127.286 79.5606 127.178 79.8324C127.071 80.1041 127.017 80.4133 127.017 80.7597C127.017 81.1121 127.071 81.4272 127.178 81.705C127.286 81.9827 127.444 82.2023 127.653 82.3635C127.862 82.5248 128.116 82.6055 128.415 82.6055ZM134.068 78.9767H131.434V78.3316H134.068V78.9767ZM132.214 77.6685C132.214 77.4057 132.27 77.1802 132.384 76.9921C132.497 76.8039 132.659 76.659 132.868 76.5575C133.077 76.456 133.322 76.4052 133.603 76.4052C133.692 76.4052 133.788 76.4097 133.889 76.4186C133.991 76.4276 134.086 76.441 134.176 76.4589V77.1489C134.033 77.125 133.898 77.113 133.773 77.113C133.504 77.113 133.307 77.1713 133.181 77.2877C133.056 77.4042 132.993 77.5879 132.993 77.8388V83.1968H132.214V77.6685Z" fill="black"/>
<path d="M162.846 82.5745C162.872 82.6011 162.894 82.6327 162.908 82.6675C162.922 82.7023 162.93 82.7396 162.93 82.7773C162.93 82.815 162.922 82.8523 162.908 82.8871C162.894 82.9219 162.872 82.9535 162.846 82.9802C162.819 83.0068 162.787 83.0279 162.753 83.0423C162.718 83.0568 162.681 83.0642 162.643 83.0642C162.605 83.0642 162.568 83.0568 162.533 83.0423C162.498 83.0279 162.467 83.0068 162.44 82.9802L160.062 80.6022L157.685 82.9802C157.631 83.034 157.558 83.0642 157.482 83.0642C157.406 83.0642 157.333 83.034 157.279 82.9802C157.225 82.9264 157.195 82.8534 157.195 82.7773C157.195 82.7012 157.225 82.6283 157.279 82.5745L159.657 80.1968L157.279 77.8192C157.225 77.7654 157.195 77.6925 157.195 77.6164C157.195 77.5403 157.225 77.4673 157.279 77.4135C157.333 77.3597 157.406 77.3295 157.482 77.3295C157.558 77.3295 157.631 77.3597 157.685 77.4135L160.062 79.7915L162.44 77.4135C162.494 77.3597 162.567 77.3295 162.643 77.3295C162.719 77.3295 162.792 77.3597 162.846 77.4135C162.9 77.4673 162.93 77.5403 162.93 77.6164C162.93 77.6925 162.9 77.7654 162.846 77.8192L160.468 80.1968L162.846 82.5745Z" fill="#868686"/>
<path d="M14.647 98.175H12.9535V97.7315H14.647V98.175ZM14.6604 99.4518H12.9535V99.015H14.6604V99.4518ZM13.0879 99.9894H10.3462V97.2006H13.0879V99.9894ZM10.8703 99.566H12.5705V97.6374H10.8703V99.566ZM15.0166 101.044H14.4857V96.6832H15.0166V101.044ZM15.151 102.523H11.1526V102.079H15.151V102.523ZM11.6835 102.274H11.1526V100.655H11.6835V102.274ZM19.566 98.0742H16.0111V97.6374H19.566V98.0742ZM17.7919 98.5715C18.0607 98.5715 18.3015 98.6297 18.5143 98.7462C18.7271 98.8627 18.894 99.0251 19.0149 99.2334C19.1359 99.4417 19.1964 99.678 19.1964 99.9423C19.1964 100.202 19.1348 100.436 19.0116 100.645C18.8884 100.853 18.7204 101.016 18.5076 101.135C18.2948 101.254 18.0562 101.313 17.7919 101.313C17.5276 101.313 17.2879 101.254 17.0729 101.135C16.8578 101.016 16.6887 100.853 16.5655 100.645C16.4423 100.436 16.3807 100.202 16.3807 99.9423C16.3807 99.678 16.4423 99.4417 16.5655 99.2334C16.6887 99.0251 16.8567 98.8627 17.0695 98.7462C17.2823 98.6297 17.5231 98.5715 17.7919 98.5715ZM17.7919 99.0217C17.6217 99.0217 17.466 99.062 17.3249 99.1427C17.1837 99.2233 17.074 99.3331 16.9956 99.4719C16.9172 99.6108 16.878 99.7676 16.878 99.9423C16.878 100.117 16.9172 100.275 16.9956 100.416C17.074 100.557 17.1837 100.666 17.3249 100.742C17.466 100.818 17.6217 100.856 17.7919 100.856C17.9666 100.856 18.1234 100.818 18.2623 100.742C18.4012 100.666 18.5109 100.557 18.5916 100.416C18.6722 100.275 18.7125 100.117 18.7125 99.9423C18.7125 99.7676 18.6722 99.6108 18.5916 99.4719C18.5109 99.3331 18.4012 99.2233 18.2623 99.1427C18.1234 99.062 17.9666 99.0217 17.7919 99.0217ZM18.0473 97.8524H17.5231V96.7504H18.0473V97.8524ZM20.9637 102.65H20.4396V96.6764H20.9637V102.65ZM20.8226 99.6332H19.4383V99.1897H20.8226V99.6332ZM28.6178 101.051H28.0936V96.6832H28.6178V101.051ZM28.8059 102.523H24.7605V102.079H28.8059V102.523ZM25.2847 102.227H24.7605V100.608H25.2847V102.227ZM25.3922 97.0998C25.6879 97.0998 25.9555 97.1614 26.1952 97.2846C26.4349 97.4078 26.6219 97.5814 26.7563 97.8054C26.8907 98.0294 26.9579 98.2825 26.9579 98.5647C26.9579 98.8515 26.8907 99.1057 26.7563 99.3275C26.6219 99.5492 26.4349 99.7228 26.1952 99.8483C25.9555 99.9737 25.6879 100.036 25.3922 100.036C25.0965 100.036 24.8299 99.9737 24.5925 99.8483C24.3551 99.7228 24.168 99.5492 24.0314 99.3275C23.8947 99.1057 23.8264 98.8515 23.8264 98.5647C23.8264 98.2825 23.8947 98.0294 24.0314 97.8054C24.168 97.5814 24.3551 97.4078 24.5925 97.2846C24.8299 97.1614 25.0965 97.0998 25.3922 97.0998ZM25.3922 97.5635C25.1951 97.5635 25.0159 97.606 24.8546 97.6912C24.6933 97.7763 24.5679 97.895 24.4783 98.0473C24.3887 98.1996 24.3439 98.3721 24.3439 98.5647C24.3439 98.7574 24.3887 98.931 24.4783 99.0855C24.5679 99.2401 24.6933 99.3599 24.8546 99.4451C25.0159 99.5302 25.1951 99.5727 25.3922 99.5727C25.5893 99.5727 25.7674 99.5302 25.9264 99.4451C26.0855 99.3599 26.2109 99.2401 26.3027 99.0855C26.3946 98.931 26.4405 98.7574 26.4405 98.5647C26.4405 98.3721 26.3946 98.1996 26.3027 98.0473C26.2109 97.895 26.0855 97.7763 25.9264 97.6912C25.7674 97.606 25.5893 97.5635 25.3922 97.5635ZM35.0756 99.9558H29.6325V99.519H35.0756V99.9558ZM32.3541 100.48C32.7797 100.48 33.147 100.522 33.4561 100.608C33.7653 100.693 34.0016 100.816 34.1651 100.977C34.3286 101.138 34.4104 101.333 34.4104 101.562C34.4104 101.79 34.3286 101.985 34.1651 102.146C34.0016 102.308 33.7664 102.43 33.4595 102.513C33.1526 102.596 32.7841 102.637 32.3541 102.637C31.924 102.637 31.5544 102.596 31.2453 102.513C30.9361 102.43 30.6998 102.308 30.5363 102.146C30.3728 101.985 30.291 101.79 30.291 101.562C30.291 101.333 30.3739 101.138 30.5397 100.977C30.7054 100.816 30.9429 100.693 31.252 100.608C31.5611 100.522 31.9285 100.48 32.3541 100.48ZM32.3541 100.897C32.036 100.897 31.7616 100.922 31.5309 100.974C31.3001 101.025 31.1254 101.102 31.0067 101.202C30.888 101.303 30.8286 101.423 30.8286 101.562C30.8286 101.696 30.8891 101.813 31.0101 101.911C31.131 102.01 31.3057 102.085 31.5342 102.136C31.7627 102.188 32.036 102.214 32.3541 102.214C32.6721 102.214 32.9454 102.188 33.1739 102.136C33.4024 102.085 33.5771 102.01 33.6981 101.911C33.819 101.813 33.8795 101.696 33.8795 101.562C33.8795 101.423 33.819 101.303 33.6981 101.202C33.5771 101.102 33.4024 101.025 33.1739 100.974C32.9454 100.922 32.6721 100.897 32.3541 100.897ZM32.4817 97.3955C32.4817 97.7046 32.3742 97.9835 32.1592 98.2321C31.9441 98.4808 31.6574 98.6846 31.299 98.8436C30.9406 99.0027 30.5509 99.1091 30.1298 99.1628L29.9416 98.7395C30.3 98.6991 30.6382 98.6151 30.9563 98.4875C31.2744 98.3598 31.5297 98.2008 31.7224 98.0104C31.915 97.82 32.0113 97.615 32.0113 97.3955V97.214H32.4817V97.3955ZM32.6968 97.3955C32.6968 97.615 32.7931 97.82 32.9857 98.0104C33.1784 98.2008 33.4337 98.3598 33.7518 98.4875C34.0699 98.6151 34.4104 98.6991 34.7732 98.7395L34.5784 99.1628C34.1617 99.1091 33.7742 99.0027 33.4158 98.8436C33.0574 98.6846 32.7696 98.4808 32.5523 98.2321C32.335 97.9835 32.2264 97.7046 32.2264 97.3955V97.214H32.6968V97.3955ZM34.5918 97.4224H30.1298V96.9856H34.5918V97.4224ZM41.93 102.65H41.4059V96.6764H41.93V102.65ZM42.8977 99.5526H41.7956V99.1091H42.8977V99.5526ZM40.3844 97.3216C40.3844 97.904 40.2892 98.4528 40.0988 98.9679C39.9084 99.4831 39.6094 99.958 39.2017 100.393C38.794 100.827 38.2743 101.201 37.6427 101.515L37.347 101.098C37.9025 100.82 38.3673 100.496 38.7414 100.124C39.1155 99.7519 39.3966 99.3387 39.5847 98.8839C39.7729 98.4292 39.867 97.9376 39.867 97.4089V97.3216H40.3844ZM40.1358 97.7651H37.6225V97.3216H40.1358V97.7651ZM48.0788 98.7865H43.9998V98.3497H48.0788V98.7865ZM44.5239 98.5446H43.9998V96.7974H44.5239V98.5446ZM48.7037 99.9222H43.2538V99.4854H48.7037V99.9222ZM45.9754 100.46C46.4055 100.46 46.774 100.501 47.0809 100.584C47.3877 100.667 47.6229 100.79 47.7865 100.954C47.95 101.117 48.0317 101.313 48.0317 101.542C48.0317 101.77 47.95 101.965 47.7865 102.126C47.6229 102.288 47.3877 102.411 47.0809 102.496C46.774 102.581 46.4055 102.624 45.9754 102.624C45.5453 102.624 45.1757 102.581 44.8666 102.496C44.5575 102.411 44.3212 102.288 44.1577 102.126C43.9942 101.965 43.9124 101.77 43.9124 101.542C43.9124 101.313 43.9942 101.117 44.1577 100.954C44.3212 100.79 44.5575 100.667 44.8666 100.584C45.1757 100.501 45.5453 100.46 45.9754 100.46ZM45.9754 100.876C45.6573 100.876 45.3829 100.902 45.1522 100.954C44.9215 101.005 44.7468 101.081 44.6281 101.182C44.5094 101.283 44.45 101.403 44.45 101.542C44.45 101.681 44.5105 101.8 44.6314 101.901C44.7524 102.002 44.9271 102.079 45.1556 102.133C45.3841 102.187 45.6573 102.214 45.9754 102.214C46.289 102.214 46.5612 102.187 46.7919 102.133C47.0226 102.079 47.1985 102.002 47.3194 101.901C47.4404 101.8 47.5009 101.681 47.5009 101.542C47.5009 101.403 47.4404 101.283 47.3194 101.182C47.1985 101.081 47.0237 101.005 46.7953 100.954C46.5668 100.902 46.2935 100.876 45.9754 100.876ZM53.8714 101.159H53.3472V96.6832H53.8714V101.159ZM54.7719 99.0956H53.7034V98.6521H54.7719V99.0956ZM52.776 97.8457H49.2144V97.4156H52.776V97.8457ZM50.9952 98.175C51.2775 98.175 51.5272 98.2209 51.7445 98.3128C51.9618 98.4046 52.1309 98.5345 52.2519 98.7025C52.3728 98.8705 52.4333 99.0665 52.4333 99.2905C52.4333 99.51 52.3728 99.7027 52.2519 99.8684C52.1309 100.034 51.9618 100.163 51.7445 100.255C51.5272 100.347 51.2775 100.393 50.9952 100.393C50.713 100.393 50.4621 100.347 50.2426 100.255C50.0231 100.163 49.854 100.034 49.7352 99.8684C49.6165 99.7027 49.5572 99.51 49.5572 99.2905C49.5572 99.0665 49.6165 98.8705 49.7352 98.7025C49.854 98.5345 50.0231 98.4046 50.2426 98.3128C50.4621 98.2209 50.713 98.175 50.9952 98.175ZM50.9952 98.5916C50.8116 98.5916 50.648 98.6196 50.5047 98.6756C50.3613 98.7316 50.2516 98.8134 50.1754 98.9209C50.0992 99.0284 50.0612 99.1516 50.0612 99.2905C50.0612 99.4294 50.0992 99.5503 50.1754 99.6534C50.2516 99.7564 50.3613 99.8359 50.5047 99.8919C50.648 99.9479 50.8116 99.9759 50.9952 99.9759C51.1789 99.9759 51.3424 99.9479 51.4858 99.8919C51.6292 99.8359 51.74 99.7564 51.8184 99.6534C51.8968 99.5503 51.936 99.4294 51.936 99.2905C51.936 99.1516 51.8968 99.0284 51.8184 98.9209C51.74 98.8134 51.6292 98.7316 51.4858 98.6756C51.3424 98.6196 51.1789 98.5916 50.9952 98.5916ZM51.2573 97.6374H50.7332V96.6832H51.2573V97.6374ZM54.1469 102.523H50.1351V102.079H54.1469V102.523ZM50.6525 102.261H50.1351V100.802H50.6525V102.261ZM61.8278 101.098H61.2969V96.6832H61.8278V101.098ZM61.4045 98.9679H59.9731V98.5244H61.4045V98.9679ZM60 97.1401C60 97.6419 59.8858 98.1056 59.6573 98.5312C59.4288 98.9567 59.1051 99.3275 58.6862 99.6433C58.2674 99.9591 57.7712 100.211 57.1978 100.399L56.9693 99.9759C57.4666 99.8102 57.9 99.5985 58.2696 99.3409C58.6392 99.0833 58.9259 98.7843 59.1298 98.4438C59.3336 98.1033 59.4355 97.7404 59.4355 97.3552V97.1401H60ZM59.7782 97.5836H57.2717V97.1401H59.7782V97.5836ZM61.9824 102.523H58.0243V102.079H61.9824V102.523ZM58.5619 102.294H58.0243V100.648H58.5619V102.294ZM67.4659 98.2153H65.9136V97.7785H67.4659V98.2153ZM67.775 99.7676H67.2441V96.6764H67.775V99.7676ZM67.775 101.495H64.4352V102.409H63.9177V101.091H67.2508V100.493H63.9043V100.07H67.775V101.495ZM67.9967 102.57H63.9177V102.146H67.9967V102.57ZM64.7644 97.4358C64.7644 97.7987 64.6961 98.1358 64.5595 98.4472C64.4228 98.7585 64.2291 99.0284 63.9782 99.2569C63.7273 99.4854 63.4361 99.6601 63.1046 99.7811L62.8157 99.3577C63.1158 99.2591 63.3801 99.1135 63.6086 98.9209C63.8371 98.7283 64.0163 98.5043 64.1462 98.2489C64.2761 97.9936 64.3411 97.7225 64.3411 97.4358V96.8713H64.7644V97.4358ZM64.8585 97.4358C64.8585 97.6912 64.9212 97.9376 65.0467 98.175C65.1721 98.4124 65.348 98.6219 65.5742 98.8033C65.8004 98.9847 66.0569 99.1247 66.3436 99.2233L66.0614 99.6332C65.7433 99.5167 65.46 99.3499 65.2113 99.1326C64.9627 98.9153 64.7689 98.6611 64.63 98.3699C64.4912 98.0787 64.4217 97.7673 64.4217 97.4358V96.8713H64.8585V97.4358ZM73.4198 98.5446H71.8002V98.1078H73.4198V98.5446ZM70.4159 96.9587C70.7116 96.9542 70.9759 97.0102 71.2089 97.1267C71.4419 97.2432 71.6255 97.4067 71.7599 97.6172C71.8943 97.8278 71.9615 98.0675 71.9615 98.3363C71.9615 98.6051 71.8943 98.8447 71.7599 99.0553C71.6255 99.2659 71.4419 99.4294 71.2089 99.5459C70.9759 99.6623 70.7116 99.7206 70.4159 99.7206C70.1158 99.7206 69.8481 99.6623 69.6129 99.5459C69.3777 99.4294 69.194 99.2659 69.0619 99.0553C68.9297 98.8447 68.8636 98.6051 68.8636 98.3363C68.8636 98.0675 68.9297 97.8278 69.0619 97.6172C69.194 97.4067 69.3788 97.2432 69.6163 97.1267C69.8537 97.0102 70.1203 96.9542 70.4159 96.9587ZM70.4159 97.4089C70.2143 97.4044 70.034 97.4414 69.875 97.5198C69.7159 97.5982 69.5916 97.708 69.502 97.8491C69.4124 97.9902 69.3676 98.1526 69.3676 98.3363C69.3676 98.5155 69.4124 98.6767 69.502 98.8201C69.5916 98.9635 69.7159 99.0755 69.875 99.1561C70.034 99.2367 70.2143 99.2771 70.4159 99.2771C70.6175 99.2771 70.7967 99.2367 70.9535 99.1561C71.1103 99.0755 71.2324 98.9635 71.3198 98.8201C71.4071 98.6767 71.4508 98.5155 71.4508 98.3363C71.4508 98.1526 71.4071 97.9902 71.3198 97.8491C71.2324 97.708 71.1103 97.5982 70.9535 97.5198C70.7967 97.4414 70.6175 97.4044 70.4159 97.4089ZM73.7222 99.8819H73.1913V96.6764H73.7222V99.8819ZM70.4025 100.944H73.1913V100.184H73.7222V102.57H69.8716V100.184H70.4025V100.944ZM73.1913 102.14V101.367H70.4025V102.14H73.1913ZM81.8936 99.9625H76.4437V99.519H81.8936V99.9625ZM81.2552 98.9478H77.1359V98.5177H81.2552V98.9478ZM81.2149 97.3619H77.6533V98.726H77.1359V96.9184H81.2149V97.3619ZM79.1653 100.487C79.5909 100.487 79.9583 100.528 80.2674 100.611C80.5765 100.694 80.8128 100.816 80.9764 100.977C81.1399 101.138 81.2216 101.333 81.2216 101.562C81.2216 101.79 81.1399 101.985 80.9764 102.146C80.8128 102.308 80.5776 102.43 80.2708 102.513C79.9639 102.596 79.5954 102.637 79.1653 102.637C78.7352 102.637 78.3656 102.596 78.0565 102.513C77.7474 102.43 77.5111 102.308 77.3476 102.146C77.1841 101.985 77.1023 101.79 77.1023 101.562C77.1023 101.333 77.1841 101.138 77.3476 100.977C77.5111 100.816 77.7474 100.694 78.0565 100.611C78.3656 100.528 78.7352 100.487 79.1653 100.487ZM79.1653 100.897C78.8472 100.897 78.574 100.923 78.3455 100.977C78.117 101.031 77.9423 101.107 77.8213 101.206C77.7004 101.304 77.6399 101.423 77.6399 101.562C77.6399 101.701 77.7004 101.819 77.8213 101.918C77.9423 102.017 78.117 102.092 78.3455 102.143C78.574 102.195 78.8472 102.22 79.1653 102.22C79.4834 102.22 79.7567 102.195 79.9852 102.143C80.2136 102.092 80.3884 102.017 80.5093 101.918C80.6303 101.819 80.6908 101.701 80.6908 101.562C80.6908 101.423 80.6303 101.304 80.5093 101.206C80.3884 101.107 80.2136 101.031 79.9852 100.977C79.7567 100.923 79.4834 100.897 79.1653 100.897ZM87.8542 100.406H82.3842V99.9692H87.8542V100.406ZM87.1486 98.2758H83.6207V99.0889H83.0965V97.8793H86.6178V97.2611H83.0763V96.831H87.1486V98.2758ZM87.2763 99.3375H83.0965V98.9142H87.2763V99.3375ZM85.3746 100.184H84.8571V99.1292H85.3746V100.184ZM87.1822 102.597H86.6514V101.293H82.9957V100.863H87.1822V102.597ZM93.7813 99.9558H88.3381V99.519H93.7813V99.9558ZM91.0597 100.48C91.4853 100.48 91.8526 100.522 92.1617 100.608C92.4709 100.693 92.7072 100.816 92.8707 100.977C93.0342 101.138 93.116 101.333 93.116 101.562C93.116 101.79 93.0342 101.985 92.8707 102.146C92.7072 102.308 92.472 102.43 92.1651 102.513C91.8582 102.596 91.4897 102.637 91.0597 102.637C90.6296 102.637 90.26 102.596 89.9509 102.513C89.6418 102.43 89.4054 102.308 89.2419 102.146C89.0784 101.985 88.9966 101.79 88.9966 101.562C88.9966 101.333 89.0795 101.138 89.2453 100.977C89.411 100.816 89.6485 100.693 89.9576 100.608C90.2667 100.522 90.6341 100.48 91.0597 100.48ZM91.0597 100.897C90.7416 100.897 90.4672 100.922 90.2365 100.974C90.0058 101.025 89.831 101.102 89.7123 101.202C89.5936 101.303 89.5342 101.423 89.5342 101.562C89.5342 101.696 89.5947 101.813 89.7157 101.911C89.8366 102.01 90.0114 102.085 90.2398 102.136C90.4683 102.188 90.7416 102.214 91.0597 102.214C91.3777 102.214 91.651 102.188 91.8795 102.136C92.108 102.085 92.2827 102.01 92.4037 101.911C92.5246 101.813 92.5851 101.696 92.5851 101.562C92.5851 101.423 92.5246 101.303 92.4037 101.202C92.2827 101.102 92.108 101.025 91.8795 100.974C91.651 100.922 91.3777 100.897 91.0597 100.897ZM91.1873 97.3955C91.1873 97.7046 91.0798 97.9835 90.8648 98.2321C90.6497 98.4808 90.363 98.6846 90.0046 98.8436C89.6462 99.0027 89.2565 99.1091 88.8354 99.1628L88.6472 98.7395C89.0056 98.6991 89.3438 98.6151 89.6619 98.4875C89.98 98.3598 90.2353 98.2008 90.428 98.0104C90.6206 97.82 90.7169 97.615 90.7169 97.3955V97.214H91.1873V97.3955ZM91.4024 97.3955C91.4024 97.615 91.4987 97.82 91.6913 98.0104C91.884 98.2008 92.1393 98.3598 92.4574 98.4875C92.7755 98.6151 93.116 98.6991 93.4789 98.7395L93.284 99.1628C92.8673 99.1091 92.4798 99.0027 92.1214 98.8436C91.763 98.6846 91.4752 98.4808 91.2579 98.2321C91.0406 97.9835 90.932 97.7046 90.932 97.3955V97.214H91.4024V97.3955ZM93.2974 97.4224H88.8354V96.9856H93.2974V97.4224ZM96.3819 100.251C96.3864 99.6243 96.4704 99.0441 96.6339 98.511C96.7974 97.9779 97.0359 97.4851 97.3495 97.0326H97.8603C97.7079 97.2566 97.5646 97.5467 97.4302 97.9028C97.2958 98.259 97.1871 98.6431 97.1043 99.0553C97.0214 99.4675 96.9799 99.8662 96.9799 100.251C96.9799 100.637 97.0214 101.037 97.1043 101.451C97.1871 101.865 97.2958 102.251 97.4302 102.607C97.5646 102.963 97.7079 103.253 97.8603 103.477H97.3495C97.0359 103.016 96.7974 102.518 96.6339 101.985C96.4704 101.452 96.3864 100.874 96.3819 100.251ZM98.5793 98.4572H99.1371V99.0351H99.2043C99.2759 98.9187 99.3454 98.8201 99.4126 98.7395C99.4798 98.6588 99.5839 98.5838 99.7251 98.5144C99.8662 98.4449 100.044 98.4102 100.259 98.4102C100.564 98.4102 100.834 98.4864 101.069 98.6387C101.304 98.791 101.487 99.0094 101.617 99.2939C101.747 99.5783 101.812 99.911 101.812 100.292C101.812 100.668 101.747 101 101.617 101.286C101.487 101.573 101.304 101.794 101.069 101.948C100.834 102.103 100.566 102.18 100.266 102.18C100.055 102.18 99.8785 102.144 99.7351 102.073C99.5918 102.001 99.4843 101.924 99.4126 101.841C99.3409 101.758 99.2715 101.66 99.2043 101.548H99.1572V103.477H98.5793V98.4572ZM99.1438 100.278C99.1438 100.552 99.1841 100.792 99.2647 101.001C99.3454 101.209 99.4641 101.371 99.6209 101.488C99.7777 101.604 99.9659 101.663 100.185 101.663C100.409 101.663 100.601 101.602 100.76 101.481C100.919 101.36 101.038 101.196 101.116 100.987C101.194 100.779 101.234 100.543 101.234 100.278C101.234 100.019 101.194 99.7867 101.116 99.5828C101.038 99.379 100.92 99.2188 100.763 99.1023C100.606 98.9859 100.414 98.9276 100.185 98.9276C99.9614 98.9276 99.7721 98.9836 99.6175 99.0956C99.463 99.2076 99.3454 99.3644 99.2647 99.566C99.1841 99.7676 99.1438 100.005 99.1438 100.278ZM103.942 102.18C103.642 102.18 103.374 102.103 103.139 101.948C102.904 101.794 102.72 101.573 102.588 101.286C102.456 101 102.39 100.668 102.39 100.292C102.39 99.911 102.456 99.5783 102.588 99.2939C102.72 99.0094 102.904 98.791 103.139 98.6387C103.374 98.4864 103.644 98.4102 103.949 98.4102C104.164 98.4102 104.342 98.4449 104.483 98.5144C104.624 98.5838 104.728 98.6588 104.795 98.7395C104.862 98.8201 104.932 98.9187 105.004 99.0351H105.044V97.2409H105.629V102.106H105.064V101.548H105.004C104.927 101.665 104.856 101.763 104.789 101.844C104.721 101.925 104.617 102.001 104.476 102.073C104.335 102.144 104.157 102.18 103.942 102.18ZM104.022 101.663C104.242 101.663 104.43 101.604 104.587 101.488C104.744 101.371 104.862 101.209 104.943 101.001C105.024 100.792 105.064 100.552 105.064 100.278C105.064 100.005 105.025 99.7676 104.946 99.566C104.868 99.3644 104.75 99.2076 104.594 99.0956C104.437 98.9836 104.246 98.9276 104.022 98.9276C103.798 98.9276 103.608 98.9859 103.451 99.1023C103.294 99.2188 103.176 99.379 103.095 99.5828C103.014 99.7867 102.974 100.019 102.974 100.278C102.974 100.543 103.014 100.779 103.095 100.987C103.176 101.196 103.294 101.36 103.451 101.481C103.608 101.602 103.798 101.663 104.022 101.663ZM108.263 98.9411H106.287V98.4572H108.263V98.9411ZM106.872 97.96C106.872 97.7628 106.914 97.5937 106.999 97.4526C107.085 97.3115 107.205 97.2028 107.362 97.1267C107.519 97.0505 107.703 97.0124 107.913 97.0124C107.981 97.0124 108.052 97.0158 108.128 97.0225C108.205 97.0292 108.276 97.0393 108.343 97.0528V97.5702C108.236 97.5523 108.135 97.5433 108.041 97.5433C107.839 97.5433 107.692 97.587 107.597 97.6744C107.503 97.7617 107.456 97.8995 107.456 98.0876V102.106H106.872V97.96ZM108.8 103.484H108.303L108.673 101.656H109.325L108.8 103.484ZM113.632 102.173C113.345 102.173 113.083 102.117 112.846 102.005C112.608 101.893 112.42 101.74 112.281 101.545C112.142 101.35 112.066 101.13 112.053 100.883H112.637C112.655 101.026 112.71 101.155 112.802 101.27C112.894 101.384 113.013 101.474 113.158 101.542C113.304 101.609 113.462 101.642 113.632 101.642C113.838 101.642 114.024 101.595 114.19 101.501C114.356 101.407 114.485 101.278 114.58 101.115C114.674 100.951 114.721 100.769 114.721 100.567C114.721 100.357 114.672 100.169 114.576 100.003C114.48 99.8371 114.345 99.706 114.173 99.6097C114 99.5134 113.807 99.4652 113.592 99.4652C113.381 99.4607 113.2 99.4932 113.047 99.5627C112.895 99.6321 112.774 99.7452 112.685 99.902H112.1L112.443 97.2409H115.077V97.7785H112.947L112.765 99.2031H112.812C112.924 99.118 113.059 99.0497 113.215 98.9982C113.372 98.9467 113.533 98.9209 113.699 98.9209C114.004 98.9209 114.279 98.9903 114.526 99.1292C114.772 99.2681 114.965 99.4619 115.104 99.7105C115.243 99.9591 115.312 100.24 115.312 100.554C115.312 100.863 115.239 101.141 115.094 101.387C114.948 101.634 114.748 101.826 114.492 101.965C114.237 102.104 113.95 102.173 113.632 102.173ZM116.159 98.4572H116.716V99.0284H116.764C116.844 98.8313 116.968 98.679 117.136 98.5715C117.304 98.464 117.507 98.4102 117.745 98.4102C117.901 98.4102 118.043 98.4337 118.168 98.4808C118.293 98.5278 118.402 98.5972 118.494 98.6891C118.586 98.7809 118.661 98.894 118.719 99.0284H118.759C118.822 98.8985 118.906 98.7876 119.011 98.6958C119.117 98.6039 119.241 98.5334 119.384 98.4841C119.528 98.4348 119.684 98.4102 119.855 98.4102C120.079 98.4102 120.274 98.4561 120.439 98.5479C120.605 98.6398 120.735 98.7787 120.829 98.9646C120.923 99.1505 120.97 99.3846 120.97 99.6668V102.106H120.392V99.6735C120.392 99.4182 120.323 99.23 120.184 99.1091C120.045 98.9881 119.868 98.9276 119.653 98.9276C119.487 98.9276 119.344 98.9623 119.223 99.0318C119.102 99.1012 119.01 99.1964 118.948 99.3174C118.885 99.4383 118.853 99.5772 118.853 99.734V102.106H118.269V99.6131C118.269 99.4787 118.239 99.3588 118.178 99.2535C118.118 99.1483 118.034 99.0676 117.926 99.0116C117.819 98.9556 117.695 98.9276 117.556 98.9276C117.413 98.9276 117.279 98.9657 117.153 99.0419C117.028 99.118 116.927 99.2244 116.851 99.3611C116.775 99.4977 116.737 99.6534 116.737 99.8281V102.106H116.159V98.4572ZM121.971 97.2409H122.549V99.0351H122.596C122.686 98.9007 122.76 98.7977 122.818 98.726C122.876 98.6543 122.976 98.5838 123.117 98.5144C123.258 98.4449 123.436 98.4102 123.651 98.4102C123.956 98.4102 124.226 98.4864 124.461 98.6387C124.696 98.791 124.88 99.0094 125.012 99.2939C125.144 99.5783 125.211 99.911 125.211 100.292C125.211 100.668 125.144 101 125.012 101.286C124.88 101.573 124.698 101.794 124.465 101.948C124.232 102.103 123.963 102.18 123.658 102.18C123.448 102.18 123.272 102.144 123.131 102.073C122.99 102.001 122.884 101.925 122.815 101.844C122.745 101.763 122.673 101.665 122.596 101.548H122.529V102.106H121.971V97.2409ZM122.536 100.278C122.536 100.552 122.576 100.792 122.657 101.001C122.738 101.209 122.856 101.371 123.013 101.488C123.17 101.604 123.356 101.663 123.571 101.663C123.795 101.663 123.986 101.602 124.145 101.481C124.304 101.36 124.424 101.196 124.505 100.987C124.586 100.779 124.626 100.543 124.626 100.278C124.626 100.019 124.587 99.7867 124.508 99.5828C124.43 99.379 124.311 99.2188 124.152 99.1023C123.993 98.9859 123.799 98.9276 123.571 98.9276C123.351 98.9276 123.164 98.9836 123.01 99.0956C122.855 99.2076 122.738 99.3644 122.657 99.566C122.576 99.7676 122.536 100.005 122.536 100.278ZM132.394 102.664H131.863V96.6764H132.394V102.664ZM129.216 97.1401C129.511 97.1401 129.774 97.2264 130.005 97.3988C130.236 97.5713 130.416 97.8144 130.546 98.128C130.676 98.4416 130.741 98.8067 130.741 99.2233C130.741 99.6399 130.676 100.005 130.546 100.319C130.416 100.632 130.236 100.874 130.005 101.044C129.774 101.215 129.511 101.3 129.216 101.3C128.92 101.3 128.657 101.215 128.426 101.044C128.195 100.874 128.015 100.632 127.885 100.319C127.755 100.005 127.69 99.6399 127.69 99.2233C127.69 98.8067 127.755 98.4416 127.885 98.128C128.015 97.8144 128.195 97.5713 128.426 97.3988C128.657 97.2264 128.92 97.1401 129.216 97.1401ZM129.216 97.6105C129.018 97.6105 128.843 97.6777 128.688 97.8121C128.534 97.9465 128.414 98.1347 128.329 98.3766C128.243 98.6185 128.201 98.9007 128.201 99.2233C128.201 99.5414 128.243 99.8225 128.329 100.067C128.414 100.311 128.534 100.499 128.688 100.631C128.843 100.763 129.018 100.829 129.216 100.829C129.413 100.829 129.589 100.763 129.743 100.631C129.898 100.499 130.018 100.311 130.103 100.067C130.188 99.8225 130.23 99.5414 130.23 99.2233C130.23 98.9007 130.188 98.6185 130.103 98.3766C130.018 98.1347 129.899 97.9465 129.746 97.8121C129.594 97.6777 129.417 97.6105 129.216 97.6105ZM138.039 102.65H137.515V96.6764H138.039V102.65ZM139.04 99.5795H137.918V99.1427H139.04V99.5795ZM136.937 98.0742H133.382V97.6374H136.937V98.0742ZM135.19 98.5715C135.472 98.5715 135.724 98.6297 135.946 98.7462C136.167 98.8627 136.341 99.0251 136.466 99.2334C136.592 99.4417 136.655 99.678 136.655 99.9423C136.655 100.207 136.592 100.443 136.466 100.651C136.341 100.86 136.167 101.022 135.946 101.138C135.724 101.255 135.472 101.313 135.19 101.313C134.907 101.313 134.655 101.255 134.434 101.138C134.212 101.022 134.038 100.86 133.913 100.651C133.787 100.443 133.725 100.207 133.725 99.9423C133.725 99.678 133.787 99.4417 133.913 99.2334C134.038 99.0251 134.212 98.8627 134.434 98.7462C134.655 98.6297 134.907 98.5715 135.19 98.5715ZM135.19 99.015C135.006 99.015 134.841 99.0542 134.696 99.1326C134.55 99.211 134.436 99.3207 134.353 99.4619C134.27 99.603 134.229 99.7631 134.229 99.9423C134.229 100.122 134.27 100.281 134.353 100.419C134.436 100.558 134.55 100.667 134.696 100.745C134.841 100.824 135.006 100.863 135.19 100.863C135.373 100.863 135.538 100.824 135.684 100.745C135.829 100.667 135.943 100.558 136.026 100.419C136.109 100.281 136.151 100.122 136.151 99.9423C136.151 99.7631 136.109 99.603 136.026 99.4619C135.943 99.3207 135.829 99.211 135.684 99.1326C135.538 99.0542 135.373 99.015 135.19 99.015ZM135.445 97.839H134.921V96.7504H135.445V97.839ZM140.603 98.511C140.766 99.0441 140.85 99.6243 140.855 100.251C140.85 100.874 140.766 101.452 140.603 101.985C140.439 102.518 140.201 103.016 139.887 103.477H139.376C139.529 103.253 139.672 102.963 139.806 102.607C139.941 102.251 140.049 101.865 140.132 101.451C140.215 101.037 140.257 100.637 140.257 100.251C140.257 99.8662 140.215 99.4675 140.132 99.0553C140.049 98.6431 139.941 98.259 139.806 97.9028C139.672 97.5467 139.529 97.2566 139.376 97.0326H139.887C140.201 97.4851 140.439 97.9779 140.603 98.511Z" fill="#868686"/>
<defs>
<clipPath id="clip0_4477_12663">
<rect width="35" height="14" fill="white" transform="translate(18.9971 73.1968)"/>
</clipPath>
</defs>
</svg>
