<svg viewBox="0 0 183 115" fill="none" xmlns="http://www.w3.org/2000/svg">
<rect x="0.286718" y="0.286718" width="181.779" height="113.708" rx="2.00703" fill="white"/>
<rect x="0.286718" y="0.286718" width="181.779" height="113.708" rx="2.00703" stroke="#DDDDDD" stroke-width="0.573437"/>
<path d="M15.8389 17.9163H9.45717V17.4067H15.8389V17.9163ZM12.9303 17.5635H12.3266V15.7211H12.9303V17.5635ZM10.8292 13.5965H14.4512V12.3342H15.0549V15.9014H10.2098V12.3342H10.8292V13.5965ZM14.4512 15.3996V14.0982H10.8292V15.3996H14.4512ZM18.677 18.81H18.0419V16.1444H18.677V18.81ZM21.0838 18.81H20.4645V16.1444H21.0838V18.81ZM22.7694 16.3248H16.3877V15.8152H22.7694V16.3248ZM19.5629 12.1225C20.0489 12.1225 20.4775 12.184 20.8486 12.3068C21.2197 12.4296 21.5072 12.606 21.711 12.836C21.9149 13.0659 22.0168 13.3351 22.0168 13.6435C22.0168 13.9466 21.9149 14.2119 21.711 14.4392C21.5072 14.6666 21.2197 14.8417 20.8486 14.9645C20.4775 15.0874 20.0489 15.1488 19.5629 15.1488C19.0768 15.1488 18.6495 15.0874 18.281 14.9645C17.9126 14.8417 17.6251 14.6666 17.4186 14.4392C17.2122 14.2119 17.109 13.9466 17.109 13.6435C17.109 13.3351 17.2109 13.0659 17.4147 12.836C17.6186 12.606 17.906 12.4296 18.2771 12.3068C18.6482 12.184 19.0768 12.1225 19.5629 12.1225ZM19.5629 12.6243C19.2022 12.6243 18.8847 12.6661 18.6103 12.7497C18.3359 12.8334 18.1229 12.9523 17.9714 13.1065C17.8198 13.2606 17.744 13.4397 17.744 13.6435C17.744 13.8473 17.8198 14.025 17.9714 14.1766C18.1229 14.3282 18.3359 14.4458 18.6103 14.5294C18.8847 14.613 19.2022 14.6548 19.5629 14.6548C19.9235 14.6548 20.2423 14.613 20.5193 14.5294C20.7964 14.4458 21.0107 14.3282 21.1622 14.1766C21.3138 14.025 21.3896 13.8473 21.3896 13.6435C21.3896 13.4397 21.3138 13.2606 21.1622 13.1065C21.0107 12.9523 20.7964 12.8334 20.5193 12.7497C20.2423 12.6661 19.9235 12.6243 19.5629 12.6243ZM30.6956 13.5886H28.7199V13.0712H30.6956V13.5886ZM30.7113 15.0782H28.7199V14.5686H30.7113V15.0782ZM28.8767 15.7054H25.678V12.4518H28.8767V15.7054ZM26.2896 15.2115H28.2731V12.9614H26.2896V15.2115ZM31.1268 16.9363H30.5075V11.8481H31.1268V16.9363ZM31.2836 18.6611H26.6188V18.1436H31.2836V18.6611ZM27.2382 18.371H26.6188V16.4816H27.2382V18.371ZM36.4345 13.471H32.2871V12.9614H36.4345V13.471ZM34.3647 14.0512C34.6783 14.0512 34.9592 14.1191 35.2075 14.255C35.4558 14.3909 35.6505 14.5804 35.7916 14.8234C35.9327 15.0664 36.0033 15.3421 36.0033 15.6505C36.0033 15.9537 35.9314 16.2268 35.7877 16.4698C35.6439 16.7128 35.4479 16.9036 35.1997 17.0421C34.9514 17.1806 34.6731 17.2499 34.3647 17.2499C34.0563 17.2499 33.7767 17.1806 33.5258 17.0421C33.275 16.9036 33.0777 16.7128 32.9339 16.4698C32.7902 16.2268 32.7183 15.9537 32.7183 15.6505C32.7183 15.3421 32.7902 15.0664 32.9339 14.8234C33.0777 14.5804 33.2737 14.3909 33.5219 14.255C33.7702 14.1191 34.0511 14.0512 34.3647 14.0512ZM34.3647 14.5764C34.1661 14.5764 33.9845 14.6235 33.8198 14.7176C33.6552 14.8116 33.5271 14.9397 33.4357 15.1017C33.3442 15.2637 33.2985 15.4467 33.2985 15.6505C33.2985 15.8544 33.3442 16.0386 33.4357 16.2032C33.5271 16.3679 33.6552 16.4946 33.8198 16.5835C33.9845 16.6723 34.1661 16.7168 34.3647 16.7168C34.5686 16.7168 34.7515 16.6723 34.9135 16.5835C35.0755 16.4946 35.2036 16.3679 35.2977 16.2032C35.3917 16.0386 35.4388 15.8544 35.4388 15.6505C35.4388 15.4467 35.3917 15.2637 35.2977 15.1017C35.2036 14.9397 35.0755 14.8116 34.9135 14.7176C34.7515 14.6235 34.5686 14.5764 34.3647 14.5764ZM34.6626 13.2123H34.0511V11.9265H34.6626V13.2123ZM38.0652 18.81H37.4537V11.8403H38.0652V18.81ZM37.9005 15.2899H36.2855V14.7724H37.9005V15.2899ZM43.4983 18.175H42.7848V13.2358H42.7535L41.3736 14.1531V13.4397L42.7848 12.4989H43.4983V18.175Z" fill="black"/>
<rect x="50.0491" y="13.168" width="4.01406" height="4.01406" rx="2.00703" fill="#DDDDDD"/>
<mask id="path-4-inside-1_4477_12515" fill="white">
<path fill-rule="evenodd" clip-rule="evenodd" d="M167.443 19.4758C169.819 19.4758 171.744 17.5502 171.744 15.175C171.744 12.7997 169.819 10.8742 167.443 10.8742C165.068 10.8742 163.143 12.7997 163.143 15.175C163.143 17.5502 165.068 19.4758 167.443 19.4758ZM166.98 17.2207L170.206 13.9952C170.273 13.9279 170.311 13.8367 170.311 13.7416C170.311 13.6465 170.273 13.5553 170.206 13.488C170.139 13.4208 170.048 13.383 169.952 13.383C169.857 13.383 169.766 13.4208 169.699 13.488L166.727 16.4605L165.188 14.9216C165.121 14.8544 165.03 14.8166 164.935 14.8166C164.84 14.8166 164.749 14.8544 164.681 14.9216C164.614 14.9889 164.576 15.0801 164.576 15.1752C164.576 15.2703 164.614 15.3615 164.681 15.4287L166.473 17.2207C166.507 17.2541 166.546 17.2805 166.59 17.2985C166.633 17.3166 166.68 17.3259 166.727 17.3259C166.774 17.3259 166.821 17.3166 166.864 17.2985C166.908 17.2805 166.947 17.2541 166.98 17.2207Z"/>
</mask>
<path fill-rule="evenodd" clip-rule="evenodd" d="M167.443 19.4758C169.819 19.4758 171.744 17.5502 171.744 15.175C171.744 12.7997 169.819 10.8742 167.443 10.8742C165.068 10.8742 163.143 12.7997 163.143 15.175C163.143 17.5502 165.068 19.4758 167.443 19.4758ZM166.98 17.2207L170.206 13.9952C170.273 13.9279 170.311 13.8367 170.311 13.7416C170.311 13.6465 170.273 13.5553 170.206 13.488C170.139 13.4208 170.048 13.383 169.952 13.383C169.857 13.383 169.766 13.4208 169.699 13.488L166.727 16.4605L165.188 14.9216C165.121 14.8544 165.03 14.8166 164.935 14.8166C164.84 14.8166 164.749 14.8544 164.681 14.9216C164.614 14.9889 164.576 15.0801 164.576 15.1752C164.576 15.2703 164.614 15.3615 164.681 15.4287L166.473 17.2207C166.507 17.2541 166.546 17.2805 166.59 17.2985C166.633 17.3166 166.68 17.3259 166.727 17.3259C166.774 17.3259 166.821 17.3166 166.864 17.2985C166.908 17.2805 166.947 17.2541 166.98 17.2207Z" fill="#4ECC8F"/>
<path d="M166.98 17.2207L166.474 16.7139L166.473 16.7142L166.98 17.2207ZM169.699 13.488L169.192 12.9812L169.192 12.9812L169.699 13.488ZM166.727 16.4605L166.22 16.9673L166.727 17.4743L167.234 16.9673L166.727 16.4605ZM165.188 14.9216L165.695 14.4148L165.695 14.4148L165.188 14.9216ZM164.681 14.9216L165.188 15.4285L165.188 15.4285L164.681 14.9216ZM164.681 15.4287L164.174 15.9356L164.174 15.9356L164.681 15.4287ZM166.473 17.2207L166.98 16.7142L166.98 16.7139L166.473 17.2207ZM166.59 17.2985L166.864 16.6364L166.864 16.6364L166.59 17.2985ZM166.864 17.2985L166.59 16.6364L166.59 16.6364L166.864 17.2985ZM171.027 15.175C171.027 17.1544 169.423 18.759 167.443 18.759V20.1926C170.215 20.1926 172.461 17.9461 172.461 15.175H171.027ZM167.443 11.591C169.423 11.591 171.027 13.1956 171.027 15.175H172.461C172.461 12.4039 170.215 10.1574 167.443 10.1574V11.591ZM163.859 15.175C163.859 13.1956 165.464 11.591 167.443 11.591V10.1574C164.672 10.1574 162.426 12.4039 162.426 15.175H163.859ZM167.443 18.759C165.464 18.759 163.859 17.1544 163.859 15.175H162.426C162.426 17.9461 164.672 20.1926 167.443 20.1926V18.759ZM169.699 13.4883L166.474 16.7139L167.487 17.7276L170.713 14.502L169.699 13.4883ZM169.594 13.7416C169.594 13.6466 169.632 13.5555 169.699 13.4883L170.713 14.502C170.915 14.3003 171.028 14.0268 171.028 13.7416H169.594ZM169.699 13.9949C169.632 13.9277 169.594 13.8366 169.594 13.7416H171.028C171.028 13.4564 170.915 13.1828 170.713 12.9812L169.699 13.9949ZM169.952 14.0998C169.857 14.0998 169.766 14.062 169.699 13.9949L170.713 12.9812C170.511 12.7795 170.238 12.6662 169.952 12.6662V14.0998ZM170.206 13.9949C170.139 14.0621 170.047 14.0998 169.952 14.0998V12.6662C169.667 12.6662 169.394 12.7795 169.192 12.9812L170.206 13.9949ZM167.234 16.9673L170.206 13.9948L169.192 12.9812L166.22 15.9537L167.234 16.9673ZM164.682 15.4284L166.22 16.9673L167.234 15.9537L165.695 14.4148L164.682 15.4284ZM164.935 15.5334C164.84 15.5334 164.749 15.4956 164.682 15.4285L165.695 14.4148C165.494 14.2131 165.22 14.0998 164.935 14.0998V15.5334ZM165.188 15.4285C165.121 15.4956 165.03 15.5334 164.935 15.5334V14.0998C164.65 14.0998 164.376 14.2131 164.174 14.4148L165.188 15.4285ZM165.293 15.1752C165.293 15.2702 165.255 15.3613 165.188 15.4285L164.174 14.4148C163.973 14.6164 163.859 14.89 163.859 15.1752H165.293ZM165.188 14.9219C165.255 14.9891 165.293 15.0802 165.293 15.1752H163.859C163.859 15.4604 163.973 15.7339 164.174 15.9356L165.188 14.9219ZM166.98 16.7139L165.188 14.9219L164.174 15.9356L165.966 17.7276L166.98 16.7139ZM166.864 16.6364C166.908 16.6544 166.947 16.6808 166.98 16.7142L165.966 17.7273C166.066 17.8273 166.185 17.9066 166.315 17.9607L166.864 16.6364ZM166.727 16.6091C166.774 16.6091 166.821 16.6183 166.864 16.6364L166.315 17.9607C166.446 18.0148 166.586 18.0426 166.727 18.0426V16.6091ZM166.59 16.6364C166.633 16.6183 166.68 16.6091 166.727 16.6091V18.0426C166.868 18.0426 167.008 18.0148 167.139 17.9607L166.59 16.6364ZM166.473 16.7142C166.507 16.6808 166.546 16.6544 166.59 16.6364L167.139 17.9607C167.269 17.9066 167.388 17.8273 167.488 17.7273L166.473 16.7142Z" fill="#4ECC8F" mask="url(#path-4-inside-1_4477_12515)"/>
<path d="M9.46165 25.7625C9.46165 24.654 10.3602 23.7555 11.4687 23.7555H170.884C171.993 23.7555 172.891 24.654 172.891 25.7625V46.4062C172.891 47.5147 171.993 48.4132 170.884 48.4132H11.4687C10.3602 48.4132 9.46165 47.5147 9.46165 46.4062V25.7625Z" fill="white"/>
<path d="M9.46165 25.7625C9.46165 24.654 10.3602 23.7555 11.4687 23.7555H170.884C171.993 23.7555 172.891 24.654 172.891 25.7625V46.4062C172.891 47.5147 171.993 48.4132 170.884 48.4132H11.4687C10.3602 48.4132 9.46165 47.5147 9.46165 46.4062V25.7625Z" stroke="#DDDDDD" stroke-width="0.573437"/>
<path d="M21.2709 33.4127C21.2709 33.8189 21.1739 34.1982 20.9797 34.5506C20.7856 34.903 20.5153 35.2062 20.1688 35.4601C19.8224 35.7139 19.4222 35.9036 18.9682 36.029L18.6457 35.4824C19.0399 35.3749 19.3923 35.2181 19.7029 35.0121C20.0135 34.806 20.257 34.5641 20.4332 34.2863C20.6094 34.0085 20.6975 33.7173 20.6975 33.4127V33.0633H21.2709V33.4127ZM21.3874 33.4127C21.3874 33.6994 21.4785 33.9712 21.6607 34.2281C21.8429 34.4849 22.0908 34.7089 22.4044 34.9001C22.718 35.0912 23.0719 35.2346 23.4661 35.3301L23.1435 35.8677C22.6956 35.7542 22.2953 35.5795 21.9429 35.3436C21.5905 35.1076 21.3172 34.8239 21.1231 34.4924C20.9289 34.1609 20.8319 33.801 20.8319 33.4127V33.0633H21.3874V33.4127ZM23.1883 33.2245H18.8965V32.6511H23.1883V33.2245ZM21.4053 32.9737H20.6975V31.8089H21.4053V32.9737ZM25.0251 34.4073H22.9464V33.8338H25.0251V34.4073ZM25.2671 36.029H24.5682V31.8447H25.2671V36.029ZM25.2671 38.2959H20.8229V39.4696H20.124V37.7583H24.5682V36.9698H20.1061V36.4143H25.2671V38.2959ZM25.5717 39.7205H20.124V39.156H25.5717V39.7205ZM32.659 32.902H27.525V32.3285H32.659V32.902ZM33.8955 36.1007H26.6021V35.5093H33.8955V36.1007ZM32.9368 32.9468C32.9368 33.4485 32.9218 33.91 32.892 34.3311C32.8621 34.7522 32.7904 35.2286 32.6769 35.7602L31.987 35.6975C32.0647 35.3271 32.1214 34.9807 32.1573 34.6581C32.1931 34.3356 32.2155 34.0518 32.2245 33.8069C32.2334 33.562 32.2379 33.2753 32.2379 32.9468V32.3285H32.9368V32.9468ZM33.1787 39.6309H27.5698V39.0396H33.1787V39.6309ZM28.2686 39.1292H27.5698V36.9967H28.2686V39.1292ZM40.5707 32.8124H35.4008V32.2389H40.5707V32.8124ZM40.8843 32.902C40.8843 33.2365 40.8813 33.5247 40.8753 33.7666C40.8693 34.0085 40.8499 34.2803 40.8171 34.582C40.7842 34.8836 40.7349 35.2047 40.6692 35.5452L39.9703 35.4824C40.042 35.1539 40.0943 34.8418 40.1271 34.5461C40.16 34.2505 40.1794 33.9846 40.1854 33.7487C40.1914 33.5128 40.1943 33.2305 40.1943 32.902V32.2389H40.8843V32.902ZM35.3022 34.4521L35.2036 33.8517L40.3915 33.6815V34.2101L35.3022 34.4521ZM41.7892 36.6562H34.5406V36.0828H41.7892V36.6562ZM38.2052 36.4501H37.4974V34.909H38.2052V36.4501ZM41.0724 39.6847H35.4635V39.1112H41.0724V39.6847ZM36.1713 39.3442H35.4635V37.3372H36.1713V39.3442ZM48.4285 33.2514H43.3393V32.6601H48.4285V33.2514ZM49.7188 38.6901H42.4612V38.0988H49.7188V38.6901ZM48.8138 33.6457C48.8138 34.1594 48.8093 34.5909 48.8004 34.9404C48.7914 35.2898 48.763 35.6796 48.7153 36.1096C48.6675 36.5397 48.5898 37.0086 48.4823 37.5164L47.7745 37.4536C47.882 36.9817 47.9611 36.5323 48.0119 36.1052C48.0627 35.6781 48.0955 35.2943 48.1105 34.9538C48.1254 34.6133 48.1329 34.1773 48.1329 33.6457V32.6601H48.8138V33.6457ZM43.2228 35.6706L43.1242 35.0882L48.3121 34.8732V35.3929L43.2228 35.6706ZM56.9674 39.828H56.2685V31.8447H56.9674V39.828ZM51.5197 37.3013C52.2544 37.3013 52.9324 37.2804 53.5536 37.2386C54.1748 37.1968 54.823 37.1221 55.4979 37.0146L55.5696 37.606C54.8827 37.7135 54.2241 37.7881 53.5939 37.83C52.9638 37.8718 52.2724 37.8927 51.5197 37.8927H50.8567V37.3013H51.5197ZM54.5482 35.4197H51.5735V37.5253H50.8567V34.8463H53.8403V33.1708H50.8388V32.5884H54.5482V35.4197ZM64.7715 36.7279H59.2611V36.1544H64.7715V36.7279ZM65.6137 38.7708H58.3203V38.1884H65.6137V38.7708ZM64.6819 33.126H59.9779V36.3247H59.2611V32.5346H64.6819V33.126ZM64.5116 34.8732H59.7539V34.3087H64.5116V34.8732Z" fill="black"/>
<path d="M162.485 35.1404L159.618 38.0075C159.592 38.0342 159.56 38.0553 159.525 38.0698C159.49 38.0842 159.453 38.0916 159.415 38.0916C159.378 38.0916 159.34 38.0842 159.305 38.0698C159.271 38.0553 159.239 38.0342 159.212 38.0075L156.345 35.1404C156.291 35.0866 156.261 35.0136 156.261 34.9375C156.261 34.8614 156.291 34.7884 156.345 34.7346C156.399 34.6808 156.472 34.6506 156.548 34.6506C156.624 34.6506 156.697 34.6808 156.751 34.7346L159.415 37.3993L162.08 34.7346C162.106 34.708 162.138 34.6869 162.173 34.6725C162.207 34.658 162.245 34.6506 162.282 34.6506C162.32 34.6506 162.357 34.658 162.392 34.6725C162.427 34.6869 162.459 34.708 162.485 34.7346C162.512 34.7613 162.533 34.7929 162.548 34.8277C162.562 34.8625 162.569 34.8998 162.569 34.9375C162.569 34.9752 162.562 35.0125 162.548 35.0473C162.533 35.0821 162.512 35.1137 162.485 35.1404Z" fill="black"/>
<path d="M15.2352 61.1115H14.6159V55.9606H15.2352V61.1115ZM14.7413 58.6262H13.0714V58.1088H14.7413V58.6262ZM13.1027 56.4937C13.1027 57.0791 12.9695 57.6201 12.7029 58.1166C12.4363 58.6131 12.0587 59.0456 11.57 59.4141C11.0813 59.7826 10.5025 60.0766 9.83348 60.2961L9.56692 59.8022C10.1471 59.6088 10.6528 59.3618 11.084 59.0613C11.5152 58.7608 11.8497 58.4119 12.0875 58.0147C12.3253 57.6175 12.4442 57.1941 12.4442 56.7446V56.4937H13.1027ZM12.844 57.0112H9.91972V56.4937H12.844V57.0112ZM15.4155 62.7735H10.7978V62.2561H15.4155V62.7735ZM11.425 62.507H10.7978V60.5862H11.425V62.507ZM21.8129 57.7481H20.0019V57.2385H21.8129V57.7481ZM22.1736 59.5592H21.5542V55.9528H22.1736V59.5592ZM22.1736 61.574H18.2771V62.6403H17.6734V61.1036H21.5621V60.4059H17.6578V59.912H22.1736V61.574ZM22.4323 62.8284H17.6734V62.3345H22.4323V62.8284ZM18.6613 56.8387C18.6613 57.262 18.5816 57.6554 18.4222 58.0186C18.2627 58.3819 18.0367 58.6968 17.744 58.9633C17.4513 59.2299 17.1116 59.4337 16.7248 59.5748L16.3877 59.0809C16.7379 58.9659 17.0462 58.7961 17.3128 58.5713C17.5794 58.3466 17.7884 58.0852 17.94 57.7873C18.0916 57.4894 18.1674 57.1732 18.1674 56.8387V56.1801H18.6613V56.8387ZM18.771 56.8387C18.771 57.1366 18.8442 57.4241 18.9906 57.7011C19.1369 57.9781 19.342 58.2224 19.606 58.4341C19.8699 58.6458 20.1692 58.8091 20.5037 58.9241L20.1744 59.4024C19.8033 59.2665 19.4727 59.0718 19.1826 58.8183C18.8926 58.5648 18.6665 58.2682 18.5045 57.9284C18.3425 57.5887 18.2614 57.2255 18.2614 56.8387V56.1801H18.771V56.8387ZM28.7591 58.1323H26.8697V57.6227H28.7591V58.1323ZM25.2547 56.2821C25.5996 56.2768 25.908 56.3422 26.1798 56.4781C26.4516 56.6139 26.6659 56.8047 26.8227 57.0504C26.9795 57.296 27.0579 57.5756 27.0579 57.8892C27.0579 58.2028 26.9795 58.4825 26.8227 58.7281C26.6659 58.9738 26.4516 59.1645 26.1798 59.3004C25.908 59.4363 25.5996 59.5043 25.2547 59.5043C24.9045 59.5043 24.5922 59.4363 24.3178 59.3004C24.0434 59.1645 23.8291 58.9738 23.6749 58.7281C23.5207 58.4825 23.4437 58.2028 23.4437 57.8892C23.4437 57.5756 23.5207 57.296 23.6749 57.0504C23.8291 56.8047 24.0447 56.6139 24.3217 56.4781C24.5987 56.3422 24.9097 56.2768 25.2547 56.2821ZM25.2547 56.8073C25.0195 56.8021 24.8091 56.8452 24.6236 56.9367C24.438 57.0282 24.293 57.1562 24.1884 57.3208C24.0839 57.4855 24.0316 57.675 24.0316 57.8892C24.0316 58.0983 24.0839 58.2865 24.1884 58.4537C24.293 58.621 24.438 58.7516 24.6236 58.8457C24.8091 58.9398 25.0195 58.9868 25.2547 58.9868C25.4899 58.9868 25.6989 58.9398 25.8819 58.8457C26.0648 58.7516 26.2072 58.621 26.3092 58.4537C26.4111 58.2865 26.462 58.0983 26.462 57.8892C26.462 57.675 26.4111 57.4855 26.3092 57.3208C26.2072 57.1562 26.0648 57.0282 25.8819 56.9367C25.6989 56.8452 25.4899 56.8021 25.2547 56.8073ZM29.1119 59.6924H28.4926V55.9528H29.1119V59.6924ZM25.239 60.9311H28.4926V60.0452H29.1119V62.8284H24.6196V60.0452H25.239V60.9311ZM28.4926 62.3267V61.4251H25.239V62.3267H28.4926ZM38.6453 59.7865H32.2871V59.2691H38.6453V59.7865ZM37.9005 58.6027H33.0946V58.1009H37.9005V58.6027ZM37.8535 56.7524H33.6983V58.344H33.0946V56.235H37.8535V56.7524ZM35.4623 60.398C35.9588 60.398 36.3874 60.4464 36.7481 60.5431C37.1087 60.6398 37.3844 60.7822 37.5752 60.9703C37.7659 61.1585 37.8613 61.3859 37.8613 61.6524C37.8613 61.919 37.7659 62.1463 37.5752 62.3345C37.3844 62.5227 37.11 62.6651 36.752 62.7618C36.394 62.8585 35.9641 62.9068 35.4623 62.9068C34.9605 62.9068 34.5294 62.8585 34.1687 62.7618C33.8081 62.6651 33.5324 62.5227 33.3416 62.3345C33.1508 62.1463 33.0554 61.919 33.0554 61.6524C33.0554 61.3859 33.1508 61.1585 33.3416 60.9703C33.5324 60.7822 33.8081 60.6398 34.1687 60.5431C34.5294 60.4464 34.9605 60.398 35.4623 60.398ZM35.4623 60.8763C35.0912 60.8763 34.7724 60.9076 34.5058 60.9703C34.2393 61.0331 34.0354 61.1219 33.8943 61.2369C33.7532 61.3519 33.6826 61.4904 33.6826 61.6524C33.6826 61.8144 33.7532 61.953 33.8943 62.0679C34.0354 62.1829 34.2393 62.2705 34.5058 62.3306C34.7724 62.3907 35.0912 62.4207 35.4623 62.4207C35.8334 62.4207 36.1522 62.3907 36.4188 62.3306C36.6853 62.2705 36.8892 62.1829 37.0303 62.0679C37.1714 61.953 37.242 61.8144 37.242 61.6524C37.242 61.4904 37.1714 61.3519 37.0303 61.2369C36.8892 61.1219 36.6853 61.0331 36.4188 60.9703C36.1522 60.9076 35.8334 60.8763 35.4623 60.8763ZM45.5994 60.304H39.2176V59.7944H45.5994V60.304ZM44.7762 57.8187H40.6602V58.7673H40.0487V57.3561H44.1568V56.6349H40.0252V56.1331H44.7762V57.8187ZM44.9251 59.0574H40.0487V58.5635H44.9251V59.0574ZM42.7064 60.0452H42.1028V58.8144H42.7064V60.0452ZM44.8154 62.8598H44.196V61.3388H39.9311V60.8371H44.8154V62.8598ZM52.5142 59.7787H46.1638V59.2691H52.5142V59.7787ZM49.339 60.3902C49.8356 60.3902 50.2641 60.4398 50.6248 60.5391C50.9854 60.6385 51.2611 60.7822 51.4519 60.9703C51.6427 61.1585 51.7381 61.3859 51.7381 61.6524C51.7381 61.919 51.6427 62.1463 51.4519 62.3345C51.2611 62.5227 50.9867 62.6651 50.6287 62.7618C50.2707 62.8585 49.8408 62.9068 49.339 62.9068C48.8373 62.9068 48.4061 62.8585 48.0454 62.7618C47.6848 62.6651 47.4091 62.5227 47.2183 62.3345C47.0276 62.1463 46.9322 61.919 46.9322 61.6524C46.9322 61.3859 47.0289 61.1585 47.2222 60.9703C47.4156 60.7822 47.6926 60.6385 48.0533 60.5391C48.4139 60.4398 48.8425 60.3902 49.339 60.3902ZM49.339 60.8763C48.9679 60.8763 48.6478 60.9063 48.3786 60.9664C48.1095 61.0265 47.9056 61.1154 47.7671 61.233C47.6286 61.3506 47.5594 61.4904 47.5594 61.6524C47.5594 61.8092 47.6299 61.9451 47.771 62.0601C47.9122 62.1751 48.116 62.2626 48.3826 62.3227C48.6491 62.3828 48.9679 62.4129 49.339 62.4129C49.7101 62.4129 50.0289 62.3828 50.2955 62.3227C50.5621 62.2626 50.7659 62.1751 50.907 62.0601C51.0481 61.9451 51.1187 61.8092 51.1187 61.6524C51.1187 61.4904 51.0481 61.3506 50.907 61.233C50.7659 61.1154 50.5621 61.0265 50.2955 60.9664C50.0289 60.9063 49.7101 60.8763 49.339 60.8763ZM49.488 56.7916C49.488 57.1523 49.3626 57.4776 49.1117 57.7677C48.8608 58.0578 48.5263 58.2956 48.1082 58.4812C47.69 58.6667 47.2353 58.7908 46.744 58.8536L46.5245 58.3596C46.9426 58.3126 47.3372 58.2146 47.7083 58.0656C48.0794 57.9167 48.3773 57.7311 48.6021 57.509C48.8268 57.2869 48.9392 57.0478 48.9392 56.7916V56.58H49.488V56.7916ZM49.7389 56.7916C49.7389 57.0478 49.8512 57.2869 50.076 57.509C50.3007 57.7311 50.5987 57.9167 50.9697 58.0656C51.3408 58.2146 51.7381 58.3126 52.1614 58.3596L51.9341 58.8536C51.448 58.7908 50.9959 58.6667 50.5777 58.4812C50.1596 58.2956 49.8238 58.0578 49.5703 57.7677C49.3168 57.4776 49.1901 57.1523 49.1901 56.7916V56.58H49.7389V56.7916ZM51.9497 56.823H46.744V56.3134H51.9497V56.823Z" fill="black"/>
<rect x="58.0491" y="57.2804" width="4.01406" height="4.01406" rx="2.00703" fill="#DDDDDD"/>
<mask id="path-11-inside-2_4477_12515" fill="white">
<path fill-rule="evenodd" clip-rule="evenodd" d="M167.443 63.5882C169.819 63.5882 171.744 61.6627 171.744 59.2875C171.744 56.9122 169.819 54.9867 167.443 54.9867C165.068 54.9867 163.143 56.9122 163.143 59.2875C163.143 61.6627 165.068 63.5882 167.443 63.5882ZM166.98 61.3332L170.206 58.1076C170.273 58.0404 170.311 57.9492 170.311 57.8541C170.311 57.759 170.273 57.6677 170.206 57.6005C170.139 57.5332 170.048 57.4955 169.952 57.4955C169.857 57.4955 169.766 57.5332 169.699 57.6005L166.727 60.573L165.188 59.0341C165.121 58.9668 165.03 58.9291 164.935 58.9291C164.84 58.9291 164.749 58.9668 164.681 59.0341C164.614 59.1013 164.576 59.1925 164.576 59.2877C164.576 59.3828 164.614 59.474 164.681 59.5412L166.473 61.3332C166.507 61.3665 166.546 61.393 166.59 61.411C166.633 61.429 166.68 61.4383 166.727 61.4383C166.774 61.4383 166.821 61.429 166.864 61.411C166.908 61.393 166.947 61.3665 166.98 61.3332Z"/>
</mask>
<path fill-rule="evenodd" clip-rule="evenodd" d="M167.443 63.5882C169.819 63.5882 171.744 61.6627 171.744 59.2875C171.744 56.9122 169.819 54.9867 167.443 54.9867C165.068 54.9867 163.143 56.9122 163.143 59.2875C163.143 61.6627 165.068 63.5882 167.443 63.5882ZM166.98 61.3332L170.206 58.1076C170.273 58.0404 170.311 57.9492 170.311 57.8541C170.311 57.759 170.273 57.6677 170.206 57.6005C170.139 57.5332 170.048 57.4955 169.952 57.4955C169.857 57.4955 169.766 57.5332 169.699 57.6005L166.727 60.573L165.188 59.0341C165.121 58.9668 165.03 58.9291 164.935 58.9291C164.84 58.9291 164.749 58.9668 164.681 59.0341C164.614 59.1013 164.576 59.1925 164.576 59.2877C164.576 59.3828 164.614 59.474 164.681 59.5412L166.473 61.3332C166.507 61.3665 166.546 61.393 166.59 61.411C166.633 61.429 166.68 61.4383 166.727 61.4383C166.774 61.4383 166.821 61.429 166.864 61.411C166.908 61.393 166.947 61.3665 166.98 61.3332Z" fill="#4ECC8F"/>
<path d="M166.98 61.3332L166.474 60.8264L166.473 60.8266L166.98 61.3332ZM169.699 57.6005L169.192 57.0936L169.192 57.0937L169.699 57.6005ZM166.727 60.573L166.22 61.0797L166.727 61.5868L167.234 61.0798L166.727 60.573ZM165.188 59.0341L165.695 58.5273L165.695 58.5272L165.188 59.0341ZM164.681 59.0341L165.188 59.5409L165.188 59.5409L164.681 59.0341ZM164.681 59.5412L164.174 60.0481L164.174 60.0481L164.681 59.5412ZM166.473 61.3332L166.98 60.8266L166.98 60.8264L166.473 61.3332ZM166.59 61.411L166.864 60.7488L166.864 60.7488L166.59 61.411ZM166.864 61.411L166.59 60.7488L166.59 60.7488L166.864 61.411ZM171.027 59.2875C171.027 61.2668 169.423 62.8714 167.443 62.8714V64.305C170.215 64.305 172.461 62.0586 172.461 59.2875H171.027ZM167.443 55.7035C169.423 55.7035 171.027 57.3081 171.027 59.2875H172.461C172.461 56.5163 170.215 54.2699 167.443 54.2699V55.7035ZM163.859 59.2875C163.859 57.3081 165.464 55.7035 167.443 55.7035V54.2699C164.672 54.2699 162.426 56.5163 162.426 59.2875H163.859ZM167.443 62.8714C165.464 62.8714 163.859 61.2668 163.859 59.2875H162.426C162.426 62.0586 164.672 64.305 167.443 64.305V62.8714ZM169.699 57.6008L166.474 60.8264L167.487 61.8401L170.713 58.6145L169.699 57.6008ZM169.594 57.8541C169.594 57.7591 169.632 57.668 169.699 57.6008L170.713 58.6145C170.915 58.4128 171.028 58.1393 171.028 57.8541H169.594ZM169.699 58.1073C169.632 58.0402 169.594 57.9491 169.594 57.8541H171.028C171.028 57.5688 170.915 57.2953 170.713 57.0936L169.699 58.1073ZM169.952 58.2123C169.857 58.2123 169.766 58.1745 169.699 58.1073L170.713 57.0936C170.511 56.892 170.238 56.7787 169.952 56.7787V58.2123ZM170.206 58.1073C170.139 58.1745 170.047 58.2123 169.952 58.2123V56.7787C169.667 56.7787 169.394 56.892 169.192 57.0936L170.206 58.1073ZM167.234 61.0798L170.206 58.1073L169.192 57.0937L166.22 60.0661L167.234 61.0798ZM164.682 59.5409L166.22 61.0797L167.234 60.0662L165.695 58.5273L164.682 59.5409ZM164.935 59.6459C164.84 59.6459 164.749 59.6081 164.682 59.5409L165.695 58.5272C165.494 58.3256 165.22 58.2123 164.935 58.2123V59.6459ZM165.188 59.5409C165.121 59.6081 165.03 59.6459 164.935 59.6459V58.2123C164.65 58.2123 164.376 58.3256 164.174 58.5272L165.188 59.5409ZM165.293 59.2877C165.293 59.3827 165.255 59.4738 165.188 59.5409L164.174 58.5272C163.973 58.7289 163.859 59.0024 163.859 59.2877H165.293ZM165.188 59.0344C165.255 59.1015 165.293 59.1927 165.293 59.2877H163.859C163.859 59.5729 163.973 59.8464 164.174 60.0481L165.188 59.0344ZM166.98 60.8264L165.188 59.0344L164.174 60.0481L165.966 61.8401L166.98 60.8264ZM166.864 60.7488C166.908 60.7669 166.947 60.7933 166.98 60.8266L165.966 61.8398C166.066 61.9397 166.185 62.0191 166.315 62.0732L166.864 60.7488ZM166.727 60.7215C166.774 60.7215 166.821 60.7308 166.864 60.7488L166.315 62.0732C166.446 62.1273 166.586 62.1551 166.727 62.1551V60.7215ZM166.59 60.7488C166.633 60.7308 166.68 60.7215 166.727 60.7215V62.1551C166.868 62.1551 167.008 62.1273 167.139 62.0732L166.59 60.7488ZM166.473 60.8266C166.507 60.7933 166.546 60.7669 166.59 60.7488L167.139 62.0732C167.269 62.0191 167.388 61.9397 167.488 61.8398L166.473 60.8266Z" fill="#4ECC8F" mask="url(#path-11-inside-2_4477_12515)"/>
<rect x="9.46165" y="67.8679" width="163.43" height="24.6578" rx="2.00703" fill="white"/>
<rect x="9.46165" y="67.8679" width="163.43" height="24.6578" rx="2.00703" stroke="#DDDDDD" stroke-width="0.573437"/>
<g clip-path="url(#clip0_4477_12515)">
<path d="M23.2511 77.4087H18.7711V76.8263H23.2511V77.4087ZM18.574 81.3511C19.4998 81.3511 20.3899 81.3361 21.244 81.3063C22.0982 81.2764 22.8927 81.2167 23.6274 81.1271L23.6632 81.6468C22.9166 81.7662 22.137 81.8454 21.3247 81.8842C20.5123 81.923 19.6253 81.9454 18.6636 81.9514L18.574 81.3511ZM20.3301 81.5124H19.6492V77.2564H20.3301V81.5124ZM22.364 81.5124H21.692V77.2564H22.364V81.5124ZM24.837 83.9226H24.1381V75.9572H24.837V83.9226ZM26.172 79.7472H24.6757V79.1559H26.172V79.7472ZM28.86 76.2529C29.2542 76.2529 29.6082 76.3275 29.9218 76.4769C30.2354 76.6262 30.4803 76.8353 30.6565 77.1041C30.8327 77.3729 30.9208 77.6775 30.9208 78.018C30.9208 78.3584 30.8327 78.6616 30.6565 78.9274C30.4803 79.1932 30.2354 79.4008 29.9218 79.5501C29.6082 79.6995 29.2542 79.7741 28.86 79.7741C28.4598 79.7741 28.1029 79.6995 27.7893 79.5501C27.4757 79.4008 27.2308 79.1932 27.0546 78.9274C26.8784 78.6616 26.7903 78.3584 26.7903 78.018C26.7903 77.6775 26.8784 77.3729 27.0546 77.1041C27.2308 76.8353 27.4757 76.6262 27.7893 76.4769C28.1029 76.3275 28.4598 76.2529 28.86 76.2529ZM28.86 76.8442C28.5972 76.8442 28.3612 76.8935 28.1522 76.9921C27.9431 77.0906 27.7788 77.2295 27.6594 77.4087C27.5399 77.5879 27.4802 77.791 27.4802 78.018C27.4802 78.245 27.5399 78.448 27.6594 78.6272C27.7788 78.8064 27.9431 78.9468 28.1522 79.0484C28.3612 79.1499 28.5972 79.2007 28.86 79.2007C29.1228 79.2007 29.3588 79.1499 29.5678 79.0484C29.7769 78.9468 29.9412 78.8064 30.0606 78.6272C30.1801 78.448 30.2398 78.245 30.2398 78.018C30.2398 77.791 30.1801 77.5879 30.0606 77.4087C29.9412 77.2295 29.7769 77.0906 29.5678 76.9921C29.3588 76.8935 29.1228 76.8442 28.86 76.8442ZM33.1787 80.0519H32.4798V75.9572H33.1787V80.0519ZM33.1787 82.3546H28.7077V83.5642H28.0178V81.826H32.4798V81.0016H27.9998V80.4372H33.1787V82.3546ZM33.4654 83.8151H28.0178V83.2506H33.4654V83.8151ZM42.9898 78.4301H40.9559V77.8388H42.9898V78.4301ZM39.4327 77.4356C39.4327 77.9373 39.3402 78.4107 39.155 78.8557C38.9698 79.3007 38.7115 79.689 38.3799 80.0205C38.0484 80.352 37.6617 80.6074 37.2196 80.7866L36.8433 80.2132C37.2376 80.0638 37.587 79.8488 37.8916 79.568C38.1963 79.2873 38.4352 78.9618 38.6084 78.5914C38.7817 78.2211 38.8683 77.8358 38.8683 77.4356V76.45H39.4327V77.4356ZM39.5582 77.4625C39.5582 77.8268 39.6418 78.1807 39.8091 78.5242C39.9763 78.8677 40.2093 79.1708 40.5079 79.4336C40.8066 79.6965 41.1471 79.8996 41.5294 80.0429L41.1351 80.5895C40.717 80.4222 40.3467 80.1818 40.0241 79.8682C39.7015 79.5546 39.4492 79.1902 39.267 78.7751C39.0848 78.3599 38.9937 77.9224 38.9937 77.4625V76.45H39.5582V77.4625ZM43.4378 81.9335H42.73V75.9661H43.4378V81.9335ZM43.617 83.7523H38.2859V83.161H43.617V83.7523ZM38.9937 83.4208H38.2859V81.2525H38.9937V83.4208ZM45.6241 79.7831C46.2931 79.7831 46.8396 79.7681 47.2637 79.7383C47.6878 79.7084 48.1119 79.6517 48.5361 79.568L48.6077 80.1504C48.1538 80.2341 47.7117 80.2923 47.2817 80.3252C46.8516 80.358 46.2991 80.3744 45.6241 80.3744H45.1223V79.7831H45.6241ZM48.2135 77.1309H45.7943V80.0967H45.1223V76.5396H48.2135V77.1309ZM48.1239 78.681H45.5793V78.1255H48.1239V78.681ZM51.5287 80.7956H50.8567V75.9661H51.5287V80.7956ZM51.0717 78.6183H49.5396V78.0449H51.0717V78.6183ZM49.7367 80.7418H49.0826V76.1185H49.7367V80.7418ZM51.5287 83.9226H50.8388V81.7812H46.1617V81.2077H51.5287V83.9226Z" fill="#868686"/>
</g>
<path d="M61.1493 77.5252C61.1493 77.9314 61.0522 78.3107 60.8581 78.6631C60.6639 79.0155 60.3936 79.3187 60.0472 79.5725C59.7007 79.8264 59.3005 80.016 58.8465 80.1415L58.524 79.5949C58.9182 79.4874 59.2706 79.3306 59.5813 79.1245C59.8919 78.9184 60.1353 78.6765 60.3115 78.3988C60.4877 78.121 60.5758 77.8298 60.5758 77.5252V77.1757H61.1493V77.5252ZM61.2657 77.5252C61.2657 77.8119 61.3568 78.0837 61.539 78.3405C61.7212 78.5974 61.9691 78.8214 62.2827 79.0125C62.5963 79.2037 62.9502 79.347 63.3444 79.4426L63.0219 79.9802C62.5739 79.8667 62.1737 79.692 61.8212 79.456C61.4688 79.2201 61.1955 78.9364 61.0014 78.6048C60.8073 78.2733 60.7102 77.9134 60.7102 77.5252V77.1757H61.2657V77.5252ZM63.0667 77.337H58.7749V76.7636H63.0667V77.337ZM61.2836 77.0861H60.5758V75.9213H61.2836V77.0861ZM64.9035 78.5197H62.8248V77.9463H64.9035V78.5197ZM65.1454 80.1415H64.4465V75.9572H65.1454V80.1415ZM65.1454 82.4083H60.7013V83.5821H60.0024V81.8708H64.4465V81.0823H59.9845V80.5268H65.1454V82.4083ZM65.45 83.833H60.0024V83.2685H65.45V83.833ZM72.5373 77.0145H67.4033V76.441H72.5373V77.0145ZM73.7738 80.2132H66.4804V79.6218H73.7738V80.2132ZM72.8151 77.0593C72.8151 77.561 72.8002 78.0225 72.7703 78.4436C72.7404 78.8647 72.6688 79.3411 72.5553 79.8727L71.8654 79.81C71.943 79.4396 71.9998 79.0932 72.0356 78.7706C72.0714 78.448 72.0938 78.1643 72.1028 77.9194C72.1118 77.6745 72.1162 77.3878 72.1162 77.0593V76.441H72.8151V77.0593ZM73.057 83.7434H67.4481V83.152H73.057V83.7434ZM68.147 83.2416H67.4481V81.1092H68.147V83.2416ZM80.449 76.9249H75.2791V76.3514H80.449V76.9249ZM80.7626 77.0145C80.7626 77.349 80.7596 77.6372 80.7536 77.8791C80.7477 78.121 80.7282 78.3928 80.6954 78.6944C80.6625 78.9961 80.6133 79.3172 80.5475 79.6576L79.8487 79.5949C79.9204 79.2664 79.9726 78.9543 80.0055 78.6586C80.0383 78.3629 80.0577 78.0971 80.0637 77.8612C80.0697 77.6252 80.0727 77.343 80.0727 77.0145V76.3514H80.7626V77.0145ZM75.1805 78.5645L75.082 77.9642L80.2698 77.794V78.3226L75.1805 78.5645ZM81.6675 80.7687H74.4189V80.1952H81.6675V80.7687ZM78.0836 80.5626H77.3757V79.0215H78.0836V80.5626ZM80.9507 83.7971H75.3418V83.2237H80.9507V83.7971ZM76.0497 83.4567H75.3418V81.4496H76.0497V83.4567ZM88.3069 77.3639H83.2176V76.7725H88.3069V77.3639ZM89.5971 82.8026H82.3395V82.2112H89.5971V82.8026ZM88.6921 77.7581C88.6921 78.2718 88.6877 78.7034 88.6787 79.0528C88.6697 79.4023 88.6414 79.792 88.5936 80.2221C88.5458 80.6522 88.4681 81.1211 88.3606 81.6288L87.6528 81.5661C87.7603 81.0942 87.8395 80.6447 87.8902 80.2176C87.941 79.7905 87.9739 79.4068 87.9888 79.0663C88.0037 78.7258 88.0112 78.2898 88.0112 77.7581V76.7725H88.6921V77.7581ZM83.1011 79.7831L83.0026 79.2007L88.1904 78.9856V79.5053L83.1011 79.7831ZM96.8457 83.9405H96.1468V75.9572H96.8457V83.9405ZM91.398 81.4138C92.1328 81.4138 92.8107 81.3929 93.432 81.3511C94.0532 81.3093 94.7013 81.2346 95.3763 81.1271L95.4479 81.7184C94.761 81.826 94.1025 81.9006 93.4723 81.9424C92.8421 81.9842 92.1507 82.0051 91.398 82.0051H90.735V81.4138H91.398ZM94.4265 79.5322H91.4518V81.6378H90.735V78.9588H93.7187V77.2833H90.7171V76.7009H94.4265V79.5322ZM104.65 80.8404H99.1394V80.2669H104.65V80.8404ZM105.492 82.8832H98.1986V82.3008H105.492V82.8832ZM104.56 77.2385H99.8562V80.4372H99.1394V76.6471H104.56V77.2385ZM104.39 78.9856H99.6322V78.4212H104.39V78.9856ZM109.784 83.9047H105.725V83.1968H109.784V83.9047ZM117.292 80.3386H110.026V79.7472H117.292V80.3386ZM116.441 78.9856H110.949V78.4122H116.441V78.9856ZM116.387 76.8711H111.639V78.69H110.949V76.2797H116.387V76.8711ZM113.655 81.0375C114.222 81.0375 114.712 81.0927 115.124 81.2032C115.536 81.3137 115.851 81.4765 116.069 81.6916C116.287 81.9066 116.396 82.1664 116.396 82.4711C116.396 82.7757 116.287 83.0355 116.069 83.2506C115.851 83.4656 115.538 83.6284 115.128 83.7389C114.719 83.8494 114.228 83.9047 113.655 83.9047C113.081 83.9047 112.588 83.8494 112.176 83.7389C111.764 83.6284 111.449 83.4656 111.231 83.2506C111.013 83.0355 110.904 82.7757 110.904 82.4711C110.904 82.1664 111.013 81.9066 111.231 81.6916C111.449 81.4765 111.764 81.3137 112.176 81.2032C112.588 81.0927 113.081 81.0375 113.655 81.0375ZM113.655 81.584C113.23 81.584 112.866 81.6199 112.561 81.6916C112.257 81.7632 112.024 81.8648 111.863 81.9962C111.701 82.1276 111.621 82.2859 111.621 82.4711C111.621 82.6562 111.701 82.8145 111.863 82.9459C112.024 83.0774 112.257 83.1774 112.561 83.2461C112.866 83.3148 113.23 83.3491 113.655 83.3491C114.079 83.3491 114.443 83.3148 114.748 83.2461C115.052 83.1774 115.285 83.0774 115.447 82.9459C115.608 82.8145 115.688 82.6562 115.688 82.4711C115.688 82.2859 115.608 82.1276 115.447 81.9962C115.285 81.8648 115.052 81.7632 114.748 81.6916C114.443 81.6199 114.079 81.584 113.655 81.584ZM125.24 80.93H117.946V80.3476H125.24V80.93ZM124.299 78.0897H119.595V79.1738H118.896V77.561H123.591V76.7367H118.869V76.1633H124.299V78.0897ZM124.469 79.5053H118.896V78.9408H124.469V79.5053ZM121.934 80.6343H121.244V79.2276H121.934V80.6343ZM124.344 83.8509H123.636V82.1127H118.762V81.5392H124.344V83.8509ZM133.142 80.3296H125.885V79.7472H133.142V80.3296ZM129.514 81.0285C130.081 81.0285 130.571 81.0853 130.983 81.1988C131.395 81.3122 131.71 81.4765 131.928 81.6916C132.146 81.9066 132.255 82.1664 132.255 82.4711C132.255 82.7757 132.146 83.0355 131.928 83.2506C131.71 83.4656 131.397 83.6284 130.988 83.7389C130.578 83.8494 130.087 83.9047 129.514 83.9047C128.94 83.9047 128.447 83.8494 128.035 83.7389C127.623 83.6284 127.308 83.4656 127.09 83.2506C126.872 83.0355 126.763 82.7757 126.763 82.4711C126.763 82.1664 126.873 81.9066 127.094 81.6916C127.316 81.4765 127.632 81.3122 128.044 81.1988C128.456 81.0853 128.946 81.0285 129.514 81.0285ZM129.514 81.584C129.09 81.584 128.724 81.6184 128.416 81.6871C128.108 81.7558 127.876 81.8573 127.717 81.9917C127.559 82.1261 127.48 82.2859 127.48 82.4711C127.48 82.6503 127.56 82.8056 127.722 82.937C127.883 83.0684 128.116 83.1684 128.421 83.2371C128.725 83.3058 129.09 83.3402 129.514 83.3402C129.938 83.3402 130.302 83.3058 130.607 83.2371C130.911 83.1684 131.144 83.0684 131.306 82.937C131.467 82.8056 131.548 82.6503 131.548 82.4711C131.548 82.2859 131.467 82.1261 131.306 81.9917C131.144 81.8573 130.911 81.7558 130.607 81.6871C130.302 81.6184 129.938 81.584 129.514 81.584ZM129.684 76.9159C129.684 77.3281 129.541 77.6999 129.254 78.0314C128.967 78.3629 128.585 78.6347 128.107 78.8468C127.629 79.0588 127.109 79.2007 126.548 79.2724L126.297 78.7079C126.775 78.6541 127.226 78.5421 127.65 78.3719C128.074 78.2016 128.415 77.9896 128.671 77.7357C128.928 77.4819 129.057 77.2086 129.057 76.9159V76.674H129.684V76.9159ZM129.971 76.9159C129.971 77.2086 130.099 77.4819 130.356 77.7357C130.613 77.9896 130.953 78.2016 131.377 78.3719C131.801 78.5421 132.255 78.6541 132.739 78.7079L132.479 79.2724C131.924 79.2007 131.407 79.0588 130.929 78.8468C130.451 78.6347 130.068 78.3629 129.778 78.0314C129.488 77.6999 129.343 77.3281 129.343 76.9159V76.674H129.971V76.9159ZM132.497 76.9517H126.548V76.3693H132.497V76.9517ZM134.657 83.2506C134.555 83.2506 134.46 83.2237 134.37 83.1699C134.28 83.1162 134.21 83.0445 134.159 82.9549C134.109 82.8653 134.083 82.7697 134.083 82.6682C134.083 82.5666 134.109 82.4711 134.159 82.3815C134.21 82.2919 134.28 82.2217 134.37 82.1709C134.46 82.1201 134.555 82.0947 134.657 82.0947C134.758 82.0947 134.854 82.1201 134.943 82.1709C135.033 82.2217 135.103 82.2919 135.154 82.3815C135.205 82.4711 135.23 82.5666 135.23 82.6682C135.23 82.7697 135.205 82.8653 135.154 82.9549C135.103 83.0445 135.033 83.1162 134.943 83.1699C134.854 83.2237 134.758 83.2506 134.657 83.2506ZM136.44 78.3316H137.183V79.1021H137.273C137.369 78.9468 137.461 78.8154 137.551 78.7079C137.64 78.6004 137.779 78.5003 137.967 78.4077C138.156 78.3151 138.393 78.2688 138.68 78.2688C139.086 78.2688 139.446 78.3704 139.759 78.5735C140.073 78.7766 140.316 79.0678 140.49 79.4471C140.663 79.8264 140.749 80.2699 140.749 80.7776C140.749 81.2794 140.663 81.7214 140.49 82.1037C140.316 82.486 140.073 82.7802 139.759 82.9863C139.446 83.1923 139.089 83.2954 138.689 83.2954C138.408 83.2954 138.172 83.2476 137.981 83.152C137.79 83.0565 137.646 82.9534 137.551 82.8429C137.455 82.7324 137.363 82.6025 137.273 82.4531H137.21V85.0247H136.44V78.3316ZM137.192 80.7597C137.192 81.1241 137.246 81.4452 137.354 81.7229C137.461 82.0007 137.619 82.2172 137.829 82.3725C138.038 82.5278 138.288 82.6055 138.581 82.6055C138.88 82.6055 139.135 82.5248 139.347 82.3635C139.559 82.2023 139.718 81.9827 139.822 81.705C139.927 81.4272 139.979 81.1121 139.979 80.7597C139.979 80.4133 139.927 80.1041 139.822 79.8324C139.718 79.5606 139.561 79.347 139.352 79.1917C139.143 79.0364 138.886 78.9588 138.581 78.9588C138.282 78.9588 138.03 79.0334 137.824 79.1828C137.618 79.3321 137.461 79.5412 137.354 79.81C137.246 80.0788 137.192 80.3953 137.192 80.7597ZM143.59 83.2954C143.19 83.2954 142.833 83.1923 142.519 82.9863C142.205 82.7802 141.961 82.486 141.784 82.1037C141.608 81.7214 141.52 81.2794 141.52 80.7776C141.52 80.2699 141.608 79.8264 141.784 79.4471C141.961 79.0678 142.205 78.7766 142.519 78.5735C142.833 78.3704 143.193 78.2688 143.599 78.2688C143.885 78.2688 144.123 78.3151 144.311 78.4077C144.499 78.5003 144.638 78.6004 144.728 78.7079C144.817 78.8154 144.91 78.9468 145.005 79.1021H145.059V76.7098H145.839V83.1968H145.086V82.4531H145.005C144.904 82.6085 144.808 82.7399 144.719 82.8474C144.629 82.9549 144.49 83.0565 144.302 83.152C144.114 83.2476 143.876 83.2954 143.59 83.2954ZM143.697 82.6055C143.99 82.6055 144.241 82.5278 144.45 82.3725C144.659 82.2172 144.817 82.0007 144.925 81.7229C145.032 81.4452 145.086 81.1241 145.086 80.7597C145.086 80.3953 145.034 80.0788 144.929 79.81C144.825 79.5412 144.668 79.3321 144.459 79.1828C144.25 79.0334 143.996 78.9588 143.697 78.9588C143.399 78.9588 143.145 79.0364 142.936 79.1917C142.727 79.347 142.568 79.5606 142.461 79.8324C142.353 80.1041 142.3 80.4133 142.3 80.7597C142.3 81.1121 142.353 81.4272 142.461 81.705C142.568 81.9827 142.727 82.2023 142.936 82.3635C143.145 82.5248 143.399 82.6055 143.697 82.6055ZM149.351 78.9767H146.717V78.3316H149.351V78.9767ZM147.496 77.6685C147.496 77.4057 147.553 77.1802 147.667 76.9921C147.78 76.8039 147.941 76.659 148.15 76.5575C148.359 76.456 148.604 76.4052 148.885 76.4052C148.975 76.4052 149.07 76.4097 149.172 76.4186C149.273 76.4276 149.369 76.441 149.459 76.4589V77.1489C149.315 77.125 149.181 77.113 149.055 77.113C148.787 77.113 148.589 77.1713 148.464 77.2877C148.339 77.4042 148.276 77.5879 148.276 77.8388V83.1968H147.496V77.6685Z" fill="black"/>
<path d="M162.199 82.5745C162.225 82.6011 162.246 82.6327 162.261 82.6675C162.275 82.7023 162.283 82.7396 162.283 82.7773C162.283 82.815 162.275 82.8523 162.261 82.8871C162.246 82.9219 162.225 82.9535 162.199 82.9802C162.172 83.0068 162.14 83.0279 162.105 83.0423C162.071 83.0568 162.033 83.0642 161.996 83.0642C161.958 83.0642 161.921 83.0568 161.886 83.0423C161.851 83.0279 161.819 83.0068 161.793 82.9802L159.415 80.6022L157.038 82.9802C156.984 83.034 156.911 83.0642 156.835 83.0642C156.759 83.0642 156.686 83.034 156.632 82.9802C156.578 82.9264 156.548 82.8534 156.548 82.7773C156.548 82.7012 156.578 82.6283 156.632 82.5745L159.01 80.1968L156.632 77.8192C156.578 77.7654 156.548 77.6925 156.548 77.6164C156.548 77.5403 156.578 77.4673 156.632 77.4135C156.686 77.3597 156.759 77.3295 156.835 77.3295C156.911 77.3295 156.984 77.3597 157.038 77.4135L159.415 79.7915L161.793 77.4135C161.847 77.3597 161.92 77.3295 161.996 77.3295C162.072 77.3295 162.145 77.3597 162.199 77.4135C162.252 77.4673 162.283 77.5403 162.283 77.6164C162.283 77.6925 162.252 77.7654 162.199 77.8192L159.821 80.1968L162.199 82.5745Z" fill="#868686"/>
<path d="M13.9999 98.175H12.3064V97.7315H13.9999V98.175ZM14.0133 99.4518H12.3064V99.015H14.0133V99.4518ZM12.4408 99.9894H9.69908V97.2006H12.4408V99.9894ZM10.2232 99.566H11.9234V97.6374H10.2232V99.566ZM14.3695 101.044H13.8386V96.6832H14.3695V101.044ZM14.5039 102.523H10.5055V102.079H14.5039V102.523ZM11.0364 102.274H10.5055V100.655H11.0364V102.274ZM18.9189 98.0742H15.364V97.6374H18.9189V98.0742ZM17.1448 98.5715C17.4136 98.5715 17.6544 98.6297 17.8672 98.7462C18.08 98.8627 18.2469 99.0251 18.3678 99.2334C18.4888 99.4417 18.5493 99.678 18.5493 99.9423C18.5493 100.202 18.4877 100.436 18.3645 100.645C18.2413 100.853 18.0733 101.016 17.8605 101.135C17.6477 101.254 17.4091 101.313 17.1448 101.313C16.8805 101.313 16.6408 101.254 16.4258 101.135C16.2107 101.016 16.0416 100.853 15.9184 100.645C15.7952 100.436 15.7336 100.202 15.7336 99.9423C15.7336 99.678 15.7952 99.4417 15.9184 99.2334C16.0416 99.0251 16.2096 98.8627 16.4224 98.7462C16.6352 98.6297 16.876 98.5715 17.1448 98.5715ZM17.1448 99.0217C16.9746 99.0217 16.8189 99.062 16.6778 99.1427C16.5366 99.2233 16.4269 99.3331 16.3485 99.4719C16.2701 99.6108 16.2309 99.7676 16.2309 99.9423C16.2309 100.117 16.2701 100.275 16.3485 100.416C16.4269 100.557 16.5366 100.666 16.6778 100.742C16.8189 100.818 16.9746 100.856 17.1448 100.856C17.3195 100.856 17.4763 100.818 17.6152 100.742C17.7541 100.666 17.8638 100.557 17.9445 100.416C18.0251 100.275 18.0654 100.117 18.0654 99.9423C18.0654 99.7676 18.0251 99.6108 17.9445 99.4719C17.8638 99.3331 17.7541 99.2233 17.6152 99.1427C17.4763 99.062 17.3195 99.0217 17.1448 99.0217ZM17.4002 97.8524H16.876V96.7504H17.4002V97.8524ZM20.3166 102.65H19.7925V96.6764H20.3166V102.65ZM20.1755 99.6332H18.7912V99.1897H20.1755V99.6332ZM27.9707 101.051H27.4465V96.6832H27.9707V101.051ZM28.1588 102.523H24.1134V102.079H28.1588V102.523ZM24.6376 102.227H24.1134V100.608H24.6376V102.227ZM24.7451 97.0998C25.0408 97.0998 25.3084 97.1614 25.5481 97.2846C25.7878 97.4078 25.9748 97.5814 26.1092 97.8054C26.2436 98.0294 26.3108 98.2825 26.3108 98.5647C26.3108 98.8515 26.2436 99.1057 26.1092 99.3275C25.9748 99.5492 25.7878 99.7228 25.5481 99.8483C25.3084 99.9737 25.0408 100.036 24.7451 100.036C24.4494 100.036 24.1828 99.9737 23.9454 99.8483C23.708 99.7228 23.5209 99.5492 23.3843 99.3275C23.2477 99.1057 23.1793 98.8515 23.1793 98.5647C23.1793 98.2825 23.2477 98.0294 23.3843 97.8054C23.5209 97.5814 23.708 97.4078 23.9454 97.2846C24.1828 97.1614 24.4494 97.0998 24.7451 97.0998ZM24.7451 97.5635C24.548 97.5635 24.3688 97.606 24.2075 97.6912C24.0462 97.7763 23.9208 97.895 23.8312 98.0473C23.7416 98.1996 23.6968 98.3721 23.6968 98.5647C23.6968 98.7574 23.7416 98.931 23.8312 99.0855C23.9208 99.2401 24.0462 99.3599 24.2075 99.4451C24.3688 99.5302 24.548 99.5727 24.7451 99.5727C24.9422 99.5727 25.1203 99.5302 25.2793 99.4451C25.4384 99.3599 25.5638 99.2401 25.6556 99.0855C25.7475 98.931 25.7934 98.7574 25.7934 98.5647C25.7934 98.3721 25.7475 98.1996 25.6556 98.0473C25.5638 97.895 25.4384 97.7763 25.2793 97.6912C25.1203 97.606 24.9422 97.5635 24.7451 97.5635ZM34.4286 99.9558H28.9854V99.519H34.4286V99.9558ZM31.707 100.48C32.1326 100.48 32.4999 100.522 32.809 100.608C33.1182 100.693 33.3545 100.816 33.518 100.977C33.6815 101.138 33.7633 101.333 33.7633 101.562C33.7633 101.79 33.6815 101.985 33.518 102.146C33.3545 102.308 33.1193 102.43 32.8124 102.513C32.5055 102.596 32.137 102.637 31.707 102.637C31.2769 102.637 30.9073 102.596 30.5982 102.513C30.2891 102.43 30.0527 102.308 29.8892 102.146C29.7257 101.985 29.6439 101.79 29.6439 101.562C29.6439 101.333 29.7268 101.138 29.8926 100.977C30.0583 100.816 30.2958 100.693 30.6049 100.608C30.914 100.522 31.2814 100.48 31.707 100.48ZM31.707 100.897C31.3889 100.897 31.1145 100.922 30.8838 100.974C30.6531 101.025 30.4783 101.102 30.3596 101.202C30.2409 101.303 30.1815 101.423 30.1815 101.562C30.1815 101.696 30.242 101.813 30.363 101.911C30.4839 102.01 30.6587 102.085 30.8871 102.136C31.1156 102.188 31.3889 102.214 31.707 102.214C32.025 102.214 32.2983 102.188 32.5268 102.136C32.7553 102.085 32.93 102.01 33.051 101.911C33.1719 101.813 33.2324 101.696 33.2324 101.562C33.2324 101.423 33.1719 101.303 33.051 101.202C32.93 101.102 32.7553 101.025 32.5268 100.974C32.2983 100.922 32.025 100.897 31.707 100.897ZM31.8346 97.3955C31.8346 97.7046 31.7271 97.9835 31.5121 98.2321C31.297 98.4808 31.0103 98.6846 30.6519 98.8436C30.2935 99.0027 29.9038 99.1091 29.4827 99.1628L29.2945 98.7395C29.6529 98.6991 29.9911 98.6151 30.3092 98.4875C30.6273 98.3598 30.8827 98.2008 31.0753 98.0104C31.2679 97.82 31.3642 97.615 31.3642 97.3955V97.214H31.8346V97.3955ZM32.0497 97.3955C32.0497 97.615 32.146 97.82 32.3386 98.0104C32.5313 98.2008 32.7866 98.3598 33.1047 98.4875C33.4228 98.6151 33.7633 98.6991 34.1262 98.7395L33.9313 99.1628C33.5146 99.1091 33.1271 99.0027 32.7687 98.8436C32.4103 98.6846 32.1225 98.4808 31.9052 98.2321C31.6879 97.9835 31.5793 97.7046 31.5793 97.3955V97.214H32.0497V97.3955ZM33.9447 97.4224H29.4827V96.9856H33.9447V97.4224ZM41.2829 102.65H40.7588V96.6764H41.2829V102.65ZM42.2506 99.5526H41.1485V99.1091H42.2506V99.5526ZM39.7373 97.3216C39.7373 97.904 39.6421 98.4528 39.4517 98.9679C39.2613 99.4831 38.9623 99.958 38.5546 100.393C38.1469 100.827 37.6273 101.201 36.9956 101.515L36.6999 101.098C37.2554 100.82 37.7202 100.496 38.0943 100.124C38.4684 99.7519 38.7495 99.3387 38.9376 98.8839C39.1258 98.4292 39.2199 97.9376 39.2199 97.4089V97.3216H39.7373ZM39.4887 97.7651H36.9754V97.3216H39.4887V97.7651ZM47.4317 98.7865H43.3527V98.3497H47.4317V98.7865ZM43.8768 98.5446H43.3527V96.7974H43.8768V98.5446ZM48.0566 99.9222H42.6067V99.4854H48.0566V99.9222ZM45.3283 100.46C45.7584 100.46 46.1269 100.501 46.4338 100.584C46.7406 100.667 46.9758 100.79 47.1394 100.954C47.3029 101.117 47.3846 101.313 47.3846 101.542C47.3846 101.77 47.3029 101.965 47.1394 102.126C46.9758 102.288 46.7406 102.411 46.4338 102.496C46.1269 102.581 45.7584 102.624 45.3283 102.624C44.8983 102.624 44.5287 102.581 44.2195 102.496C43.9104 102.411 43.6741 102.288 43.5106 102.126C43.3471 101.965 43.2653 101.77 43.2653 101.542C43.2653 101.313 43.3471 101.117 43.5106 100.954C43.6741 100.79 43.9104 100.667 44.2195 100.584C44.5287 100.501 44.8983 100.46 45.3283 100.46ZM45.3283 100.876C45.0103 100.876 44.7359 100.902 44.5051 100.954C44.2744 101.005 44.0997 101.081 43.981 101.182C43.8623 101.283 43.8029 101.403 43.8029 101.542C43.8029 101.681 43.8634 101.8 43.9843 101.901C44.1053 102.002 44.28 102.079 44.5085 102.133C44.737 102.187 45.0103 102.214 45.3283 102.214C45.6419 102.214 45.9141 102.187 46.1448 102.133C46.3755 102.079 46.5514 102.002 46.6723 101.901C46.7933 101.8 46.8538 101.681 46.8538 101.542C46.8538 101.403 46.7933 101.283 46.6723 101.182C46.5514 101.081 46.3766 101.005 46.1482 100.954C45.9197 100.902 45.6464 100.876 45.3283 100.876ZM53.2243 101.159H52.7001V96.6832H53.2243V101.159ZM54.1248 99.0956H53.0563V98.6521H54.1248V99.0956ZM52.1289 97.8457H48.5674V97.4156H52.1289V97.8457ZM50.3481 98.175C50.6304 98.175 50.8801 98.2209 51.0974 98.3128C51.3147 98.4046 51.4838 98.5345 51.6048 98.7025C51.7257 98.8705 51.7862 99.0665 51.7862 99.2905C51.7862 99.51 51.7257 99.7027 51.6048 99.8684C51.4838 100.034 51.3147 100.163 51.0974 100.255C50.8801 100.347 50.6304 100.393 50.3481 100.393C50.0659 100.393 49.815 100.347 49.5955 100.255C49.376 100.163 49.2069 100.034 49.0882 99.8684C48.9694 99.7027 48.9101 99.51 48.9101 99.2905C48.9101 99.0665 48.9694 98.8705 49.0882 98.7025C49.2069 98.5345 49.376 98.4046 49.5955 98.3128C49.815 98.2209 50.0659 98.175 50.3481 98.175ZM50.3481 98.5916C50.1645 98.5916 50.0009 98.6196 49.8576 98.6756C49.7142 98.7316 49.6045 98.8134 49.5283 98.9209C49.4522 99.0284 49.4141 99.1516 49.4141 99.2905C49.4141 99.4294 49.4522 99.5503 49.5283 99.6534C49.6045 99.7564 49.7142 99.8359 49.8576 99.8919C50.0009 99.9479 50.1645 99.9759 50.3481 99.9759C50.5318 99.9759 50.6953 99.9479 50.8387 99.8919C50.9821 99.8359 51.0929 99.7564 51.1713 99.6534C51.2497 99.5503 51.2889 99.4294 51.2889 99.2905C51.2889 99.1516 51.2497 99.0284 51.1713 98.9209C51.0929 98.8134 50.9821 98.7316 50.8387 98.6756C50.6953 98.6196 50.5318 98.5916 50.3481 98.5916ZM50.6102 97.6374H50.0861V96.6832H50.6102V97.6374ZM53.4998 102.523H49.488V102.079H53.4998V102.523ZM50.0054 102.261H49.488V100.802H50.0054V102.261ZM61.1807 101.098H60.6498V96.6832H61.1807V101.098ZM60.7574 98.9679H59.326V98.5244H60.7574V98.9679ZM59.3529 97.1401C59.3529 97.6419 59.2387 98.1056 59.0102 98.5312C58.7817 98.9567 58.458 99.3275 58.0391 99.6433C57.6203 99.9591 57.1241 100.211 56.5507 100.399L56.3222 99.9759C56.8195 99.8102 57.2529 99.5985 57.6225 99.3409C57.9921 99.0833 58.2788 98.7843 58.4827 98.4438C58.6865 98.1033 58.7884 97.7404 58.7884 97.3552V97.1401H59.3529ZM59.1311 97.5836H56.6246V97.1401H59.1311V97.5836ZM61.3353 102.523H57.3772V102.079H61.3353V102.523ZM57.9148 102.294H57.3772V100.648H57.9148V102.294ZM66.8188 98.2153H65.2665V97.7785H66.8188V98.2153ZM67.1279 99.7676H66.597V96.6764H67.1279V99.7676ZM67.1279 101.495H63.7881V102.409H63.2706V101.091H66.6037V100.493H63.2572V100.07H67.1279V101.495ZM67.3497 102.57H63.2706V102.146H67.3497V102.57ZM64.1173 97.4358C64.1173 97.7987 64.049 98.1358 63.9124 98.4472C63.7758 98.7585 63.582 99.0284 63.3311 99.2569C63.0802 99.4854 62.789 99.6601 62.4575 99.7811L62.1686 99.3577C62.4687 99.2591 62.733 99.1135 62.9615 98.9209C63.19 98.7283 63.3692 98.5043 63.4991 98.2489C63.629 97.9936 63.694 97.7225 63.694 97.4358V96.8713H64.1173V97.4358ZM64.2114 97.4358C64.2114 97.6912 64.2741 97.9376 64.3996 98.175C64.525 98.4124 64.7009 98.6219 64.9271 98.8033C65.1533 98.9847 65.4098 99.1247 65.6965 99.2233L65.4143 99.6332C65.0962 99.5167 64.8129 99.3499 64.5642 99.1326C64.3156 98.9153 64.1218 98.6611 63.9829 98.3699C63.8441 98.0787 63.7746 97.7673 63.7746 97.4358V96.8713H64.2114V97.4358ZM72.7727 98.5446H71.1532V98.1078H72.7727V98.5446ZM69.7688 96.9587C70.0645 96.9542 70.3288 97.0102 70.5618 97.1267C70.7948 97.2432 70.9784 97.4067 71.1128 97.6172C71.2472 97.8278 71.3144 98.0675 71.3144 98.3363C71.3144 98.6051 71.2472 98.8447 71.1128 99.0553C70.9784 99.2659 70.7948 99.4294 70.5618 99.5459C70.3288 99.6623 70.0645 99.7206 69.7688 99.7206C69.4687 99.7206 69.201 99.6623 68.9658 99.5459C68.7306 99.4294 68.5469 99.2659 68.4148 99.0553C68.2826 98.8447 68.2165 98.6051 68.2165 98.3363C68.2165 98.0675 68.2826 97.8278 68.4148 97.6172C68.5469 97.4067 68.7317 97.2432 68.9692 97.1267C69.2066 97.0102 69.4732 96.9542 69.7688 96.9587ZM69.7688 97.4089C69.5672 97.4044 69.3869 97.4414 69.2279 97.5198C69.0688 97.5982 68.9445 97.708 68.8549 97.8491C68.7653 97.9902 68.7205 98.1526 68.7205 98.3363C68.7205 98.5155 68.7653 98.6767 68.8549 98.8201C68.9445 98.9635 69.0688 99.0755 69.2279 99.1561C69.3869 99.2367 69.5672 99.2771 69.7688 99.2771C69.9704 99.2771 70.1496 99.2367 70.3064 99.1561C70.4632 99.0755 70.5853 98.9635 70.6727 98.8201C70.76 98.6767 70.8037 98.5155 70.8037 98.3363C70.8037 98.1526 70.76 97.9902 70.6727 97.8491C70.5853 97.708 70.4632 97.5982 70.3064 97.5198C70.1496 97.4414 69.9704 97.4044 69.7688 97.4089ZM73.0751 99.8819H72.5442V96.6764H73.0751V99.8819ZM69.7554 100.944H72.5442V100.184H73.0751V102.57H69.2245V100.184H69.7554V100.944ZM72.5442 102.14V101.367H69.7554V102.14H72.5442ZM81.2465 99.9625H75.7966V99.519H81.2465V99.9625ZM80.6081 98.9478H76.4888V98.5177H80.6081V98.9478ZM80.5678 97.3619H77.0062V98.726H76.4888V96.9184H80.5678V97.3619ZM78.5182 100.487C78.9438 100.487 79.3112 100.528 79.6203 100.611C79.9294 100.694 80.1657 100.816 80.3293 100.977C80.4928 101.138 80.5745 101.333 80.5745 101.562C80.5745 101.79 80.4928 101.985 80.3293 102.146C80.1657 102.308 79.9305 102.43 79.6237 102.513C79.3168 102.596 78.9483 102.637 78.5182 102.637C78.0882 102.637 77.7186 102.596 77.4094 102.513C77.1003 102.43 76.864 102.308 76.7005 102.146C76.537 101.985 76.4552 101.79 76.4552 101.562C76.4552 101.333 76.537 101.138 76.7005 100.977C76.864 100.816 77.1003 100.694 77.4094 100.611C77.7186 100.528 78.0882 100.487 78.5182 100.487ZM78.5182 100.897C78.2002 100.897 77.9269 100.923 77.6984 100.977C77.4699 101.031 77.2952 101.107 77.1742 101.206C77.0533 101.304 76.9928 101.423 76.9928 101.562C76.9928 101.701 77.0533 101.819 77.1742 101.918C77.2952 102.017 77.4699 102.092 77.6984 102.143C77.9269 102.195 78.2002 102.22 78.5182 102.22C78.8363 102.22 79.1096 102.195 79.3381 102.143C79.5665 102.092 79.7413 102.017 79.8622 101.918C79.9832 101.819 80.0437 101.701 80.0437 101.562C80.0437 101.423 79.9832 101.304 79.8622 101.206C79.7413 101.107 79.5665 101.031 79.3381 100.977C79.1096 100.923 78.8363 100.897 78.5182 100.897ZM87.2071 100.406H81.7371V99.9692H87.2071V100.406ZM86.5015 98.2758H82.9736V99.0889H82.4494V97.8793H85.9707V97.2611H82.4292V96.831H86.5015V98.2758ZM86.6292 99.3375H82.4494V98.9142H86.6292V99.3375ZM84.7275 100.184H84.21V99.1292H84.7275V100.184ZM86.5351 102.597H86.0043V101.293H82.3486V100.863H86.5351V102.597ZM93.1342 99.9558H87.691V99.519H93.1342V99.9558ZM90.4126 100.48C90.8382 100.48 91.2055 100.522 91.5146 100.608C91.8238 100.693 92.0601 100.816 92.2236 100.977C92.3871 101.138 92.4689 101.333 92.4689 101.562C92.4689 101.79 92.3871 101.985 92.2236 102.146C92.0601 102.308 91.8249 102.43 91.518 102.513C91.2111 102.596 90.8426 102.637 90.4126 102.637C89.9825 102.637 89.6129 102.596 89.3038 102.513C88.9947 102.43 88.7583 102.308 88.5948 102.146C88.4313 101.985 88.3495 101.79 88.3495 101.562C88.3495 101.333 88.4324 101.138 88.5982 100.977C88.7639 100.816 89.0014 100.693 89.3105 100.608C89.6196 100.522 89.987 100.48 90.4126 100.48ZM90.4126 100.897C90.0945 100.897 89.8201 100.922 89.5894 100.974C89.3587 101.025 89.1839 101.102 89.0652 101.202C88.9465 101.303 88.8871 101.423 88.8871 101.562C88.8871 101.696 88.9476 101.813 89.0686 101.911C89.1895 102.01 89.3643 102.085 89.5927 102.136C89.8212 102.188 90.0945 102.214 90.4126 102.214C90.7306 102.214 91.0039 102.188 91.2324 102.136C91.4609 102.085 91.6356 102.01 91.7566 101.911C91.8775 101.813 91.938 101.696 91.938 101.562C91.938 101.423 91.8775 101.303 91.7566 101.202C91.6356 101.102 91.4609 101.025 91.2324 100.974C91.0039 100.922 90.7306 100.897 90.4126 100.897ZM90.5402 97.3955C90.5402 97.7046 90.4327 97.9835 90.2177 98.2321C90.0027 98.4808 89.7159 98.6846 89.3575 98.8436C88.9991 99.0027 88.6094 99.1091 88.1883 99.1628L88.0001 98.7395C88.3585 98.6991 88.6967 98.6151 89.0148 98.4875C89.3329 98.3598 89.5883 98.2008 89.7809 98.0104C89.9735 97.82 90.0699 97.615 90.0699 97.3955V97.214H90.5402V97.3955ZM90.7553 97.3955C90.7553 97.615 90.8516 97.82 91.0442 98.0104C91.2369 98.2008 91.4922 98.3598 91.8103 98.4875C92.1284 98.6151 92.4689 98.6991 92.8318 98.7395L92.6369 99.1628C92.2202 99.1091 91.8327 99.0027 91.4743 98.8436C91.1159 98.6846 90.8281 98.4808 90.6108 98.2321C90.3935 97.9835 90.2849 97.7046 90.2849 97.3955V97.214H90.7553V97.3955ZM92.6503 97.4224H88.1883V96.9856H92.6503V97.4224ZM95.7348 100.251C95.7393 99.6243 95.8233 99.0441 95.9868 98.511C96.1503 97.9779 96.3889 97.4851 96.7025 97.0326H97.2132C97.0609 97.2566 96.9175 97.5467 96.7831 97.9028C96.6487 98.259 96.5401 98.6431 96.4572 99.0553C96.3743 99.4675 96.3329 99.8662 96.3329 100.251C96.3329 100.637 96.3743 101.037 96.4572 101.451C96.5401 101.865 96.6487 102.251 96.7831 102.607C96.9175 102.963 97.0609 103.253 97.2132 103.477H96.7025C96.3889 103.016 96.1503 102.518 95.9868 101.985C95.8233 101.452 95.7393 100.874 95.7348 100.251ZM97.9322 98.4572H98.49V99.0351H98.5572C98.6288 98.9187 98.6983 98.8201 98.7655 98.7395C98.8327 98.6588 98.9368 98.5838 99.078 98.5144C99.2191 98.4449 99.3972 98.4102 99.6122 98.4102C99.9168 98.4102 100.187 98.4864 100.422 98.6387C100.657 98.791 100.84 99.0094 100.97 99.2939C101.1 99.5783 101.165 99.911 101.165 100.292C101.165 100.668 101.1 101 100.97 101.286C100.84 101.573 100.657 101.794 100.422 101.948C100.187 102.103 99.9191 102.18 99.6189 102.18C99.4084 102.18 99.2314 102.144 99.088 102.073C98.9447 102.001 98.8372 101.924 98.7655 101.841C98.6938 101.758 98.6244 101.66 98.5572 101.548H98.5101V103.477H97.9322V98.4572ZM98.4967 100.278C98.4967 100.552 98.537 100.792 98.6176 101.001C98.6983 101.209 98.817 101.371 98.9738 101.488C99.1306 101.604 99.3188 101.663 99.5383 101.663C99.7623 101.663 99.9538 101.602 100.113 101.481C100.272 101.36 100.391 101.196 100.469 100.987C100.547 100.779 100.587 100.543 100.587 100.278C100.587 100.019 100.547 99.7867 100.469 99.5828C100.391 99.379 100.273 99.2188 100.116 99.1023C99.9594 98.9859 99.7668 98.9276 99.5383 98.9276C99.3143 98.9276 99.125 98.9836 98.9704 99.0956C98.8159 99.2076 98.6983 99.3644 98.6176 99.566C98.537 99.7676 98.4967 100.005 98.4967 100.278ZM103.295 102.18C102.995 102.18 102.727 102.103 102.492 101.948C102.257 101.794 102.073 101.573 101.941 101.286C101.809 101 101.742 100.668 101.742 100.292C101.742 99.911 101.809 99.5783 101.941 99.2939C102.073 99.0094 102.257 98.791 102.492 98.6387C102.727 98.4864 102.997 98.4102 103.301 98.4102C103.516 98.4102 103.695 98.4449 103.836 98.5144C103.977 98.5838 104.081 98.6588 104.148 98.7395C104.215 98.8201 104.285 98.9187 104.356 99.0351H104.397V97.2409H104.981V102.106H104.417V101.548H104.356C104.28 101.665 104.209 101.763 104.141 101.844C104.074 101.925 103.97 102.001 103.829 102.073C103.688 102.144 103.51 102.18 103.295 102.18ZM103.375 101.663C103.595 101.663 103.783 101.604 103.94 101.488C104.097 101.371 104.215 101.209 104.296 101.001C104.377 100.792 104.417 100.552 104.417 100.278C104.417 100.005 104.378 99.7676 104.299 99.566C104.221 99.3644 104.103 99.2076 103.947 99.0956C103.79 98.9836 103.599 98.9276 103.375 98.9276C103.151 98.9276 102.961 98.9859 102.804 99.1023C102.647 99.2188 102.529 99.379 102.448 99.5828C102.367 99.7867 102.327 100.019 102.327 100.278C102.327 100.543 102.367 100.779 102.448 100.987C102.529 101.196 102.647 101.36 102.804 101.481C102.961 101.602 103.151 101.663 103.375 101.663ZM107.616 98.9411H105.64V98.4572H107.616V98.9411ZM106.225 97.96C106.225 97.7628 106.267 97.5937 106.352 97.4526C106.437 97.3115 106.558 97.2028 106.715 97.1267C106.872 97.0505 107.056 97.0124 107.266 97.0124C107.333 97.0124 107.405 97.0158 107.481 97.0225C107.557 97.0292 107.629 97.0393 107.696 97.0528V97.5702C107.589 97.5523 107.488 97.5433 107.394 97.5433C107.192 97.5433 107.044 97.587 106.95 97.6744C106.856 97.7617 106.809 97.8995 106.809 98.0876V102.106H106.225V97.96ZM108.153 103.484H107.656L108.026 101.656H108.677L108.153 103.484ZM112.985 102.173C112.698 102.173 112.436 102.117 112.199 102.005C111.961 101.893 111.773 101.74 111.634 101.545C111.495 101.35 111.419 101.13 111.406 100.883H111.99C112.008 101.026 112.063 101.155 112.155 101.27C112.247 101.384 112.366 101.474 112.511 101.542C112.657 101.609 112.815 101.642 112.985 101.642C113.191 101.642 113.377 101.595 113.543 101.501C113.708 101.407 113.838 101.278 113.932 101.115C114.027 100.951 114.074 100.769 114.074 100.567C114.074 100.357 114.025 100.169 113.929 100.003C113.833 99.8371 113.698 99.706 113.526 99.6097C113.353 99.5134 113.16 99.4652 112.945 99.4652C112.734 99.4607 112.553 99.4932 112.4 99.5627C112.248 99.6321 112.127 99.7452 112.037 99.902H111.453L111.795 97.2409H114.43V97.7785H112.299L112.118 99.2031H112.165C112.277 99.118 112.411 99.0497 112.568 98.9982C112.725 98.9467 112.886 98.9209 113.052 98.9209C113.357 98.9209 113.632 98.9903 113.879 99.1292C114.125 99.2681 114.318 99.4619 114.457 99.7105C114.595 99.9591 114.665 100.24 114.665 100.554C114.665 100.863 114.592 101.141 114.447 101.387C114.301 101.634 114.1 101.826 113.845 101.965C113.59 102.104 113.303 102.173 112.985 102.173ZM115.512 98.4572H116.069V99.0284H116.116C116.197 98.8313 116.321 98.679 116.489 98.5715C116.657 98.464 116.86 98.4102 117.098 98.4102C117.254 98.4102 117.395 98.4337 117.521 98.4808C117.646 98.5278 117.755 98.5972 117.847 98.6891C117.939 98.7809 118.014 98.894 118.072 99.0284H118.112C118.175 98.8985 118.259 98.7876 118.364 98.6958C118.47 98.6039 118.594 98.5334 118.737 98.4841C118.881 98.4348 119.037 98.4102 119.208 98.4102C119.432 98.4102 119.626 98.4561 119.792 98.5479C119.958 98.6398 120.088 98.7787 120.182 98.9646C120.276 99.1505 120.323 99.3846 120.323 99.6668V102.106H119.745V99.6735C119.745 99.4182 119.676 99.23 119.537 99.1091C119.398 98.9881 119.221 98.9276 119.006 98.9276C118.84 98.9276 118.697 98.9623 118.576 99.0318C118.455 99.1012 118.363 99.1964 118.3 99.3174C118.238 99.4383 118.206 99.5772 118.206 99.734V102.106H117.622V99.6131C117.622 99.4787 117.591 99.3588 117.531 99.2535C117.47 99.1483 117.386 99.0676 117.279 99.0116C117.171 98.9556 117.048 98.9276 116.909 98.9276C116.766 98.9276 116.632 98.9657 116.506 99.0419C116.381 99.118 116.28 99.2244 116.204 99.3611C116.128 99.4977 116.09 99.6534 116.09 99.8281V102.106H115.512V98.4572ZM121.324 97.2409H121.902V99.0351H121.949C122.039 98.9007 122.113 98.7977 122.171 98.726C122.229 98.6543 122.329 98.5838 122.47 98.5144C122.611 98.4449 122.789 98.4102 123.004 98.4102C123.309 98.4102 123.579 98.4864 123.814 98.6387C124.049 98.791 124.233 99.0094 124.365 99.2939C124.497 99.5783 124.563 99.911 124.563 100.292C124.563 100.668 124.497 101 124.365 101.286C124.233 101.573 124.05 101.794 123.818 101.948C123.585 102.103 123.316 102.18 123.011 102.18C122.801 102.18 122.625 102.144 122.484 102.073C122.342 102.001 122.237 101.925 122.168 101.844C122.098 101.763 122.026 101.665 121.949 101.548H121.882V102.106H121.324V97.2409ZM121.889 100.278C121.889 100.552 121.929 100.792 122.01 101.001C122.09 101.209 122.209 101.371 122.366 101.488C122.523 101.604 122.709 101.663 122.924 101.663C123.148 101.663 123.339 101.602 123.498 101.481C123.657 101.36 123.777 101.196 123.858 100.987C123.938 100.779 123.979 100.543 123.979 100.278C123.979 100.019 123.94 99.7867 123.861 99.5828C123.783 99.379 123.664 99.2188 123.505 99.1023C123.346 98.9859 123.152 98.9276 122.924 98.9276C122.704 98.9276 122.517 98.9836 122.363 99.0956C122.208 99.2076 122.09 99.3644 122.01 99.566C121.929 99.7676 121.889 100.005 121.889 100.278ZM131.747 102.664H131.216V96.6764H131.747V102.664ZM128.569 97.1401C128.864 97.1401 129.127 97.2264 129.358 97.3988C129.589 97.5713 129.769 97.8144 129.899 98.128C130.029 98.4416 130.094 98.8067 130.094 99.2233C130.094 99.6399 130.029 100.005 129.899 100.319C129.769 100.632 129.589 100.874 129.358 101.044C129.127 101.215 128.864 101.3 128.569 101.3C128.273 101.3 128.01 101.215 127.779 101.044C127.548 100.874 127.368 100.632 127.238 100.319C127.108 100.005 127.043 99.6399 127.043 99.2233C127.043 98.8067 127.108 98.4416 127.238 98.128C127.368 97.8144 127.548 97.5713 127.779 97.3988C128.01 97.2264 128.273 97.1401 128.569 97.1401ZM128.569 97.6105C128.371 97.6105 128.196 97.6777 128.041 97.8121C127.886 97.9465 127.767 98.1347 127.681 98.3766C127.596 98.6185 127.554 98.9007 127.554 99.2233C127.554 99.5414 127.596 99.8225 127.681 100.067C127.767 100.311 127.886 100.499 128.041 100.631C128.196 100.763 128.371 100.829 128.569 100.829C128.766 100.829 128.941 100.763 129.096 100.631C129.251 100.499 129.37 100.311 129.456 100.067C129.541 99.8225 129.583 99.5414 129.583 99.2233C129.583 98.9007 129.541 98.6185 129.456 98.3766C129.37 98.1347 129.252 97.9465 129.099 97.8121C128.947 97.6777 128.77 97.6105 128.569 97.6105ZM137.392 102.65H136.868V96.6764H137.392V102.65ZM138.393 99.5795H137.271V99.1427H138.393V99.5795ZM136.29 98.0742H132.735V97.6374H136.29V98.0742ZM134.543 98.5715C134.825 98.5715 135.077 98.6297 135.299 98.7462C135.52 98.8627 135.694 99.0251 135.819 99.2334C135.945 99.4417 136.008 99.678 136.008 99.9423C136.008 100.207 135.945 100.443 135.819 100.651C135.694 100.86 135.52 101.022 135.299 101.138C135.077 101.255 134.825 101.313 134.543 101.313C134.26 101.313 134.008 101.255 133.787 101.138C133.565 101.022 133.391 100.86 133.266 100.651C133.14 100.443 133.078 100.207 133.078 99.9423C133.078 99.678 133.14 99.4417 133.266 99.2334C133.391 99.0251 133.565 98.8627 133.787 98.7462C134.008 98.6297 134.26 98.5715 134.543 98.5715ZM134.543 99.015C134.359 99.015 134.194 99.0542 134.049 99.1326C133.903 99.211 133.789 99.3207 133.706 99.4619C133.623 99.603 133.582 99.7631 133.582 99.9423C133.582 100.122 133.623 100.281 133.706 100.419C133.789 100.558 133.903 100.667 134.049 100.745C134.194 100.824 134.359 100.863 134.543 100.863C134.726 100.863 134.891 100.824 135.036 100.745C135.182 100.667 135.296 100.558 135.379 100.419C135.462 100.281 135.504 100.122 135.504 99.9423C135.504 99.7631 135.462 99.603 135.379 99.4619C135.296 99.3207 135.182 99.211 135.036 99.1326C134.891 99.0542 134.726 99.015 134.543 99.015ZM134.798 97.839H134.274V96.7504H134.798V97.839ZM139.956 98.511C140.119 99.0441 140.203 99.6243 140.208 100.251C140.203 100.874 140.119 101.452 139.956 101.985C139.792 102.518 139.553 103.016 139.24 103.477H138.729C138.881 103.253 139.025 102.963 139.159 102.607C139.294 102.251 139.402 101.865 139.485 101.451C139.568 101.037 139.609 100.637 139.609 100.251C139.609 99.8662 139.568 99.4675 139.485 99.0553C139.402 98.6431 139.294 98.259 139.159 97.9028C139.025 97.5467 138.881 97.2566 138.729 97.0326H139.24C139.553 97.4851 139.792 97.9779 139.956 98.511Z" fill="#868686"/>
<defs>
<clipPath id="clip0_4477_12515">
<rect width="35" height="14" fill="white" transform="translate(18.35 73.1968)"/>
</clipPath>
</defs>
</svg>
