<svg viewBox="0 0 16 16" fill="currentColor" xmlns="http://www.w3.org/2000/svg">
<path d="M1.74807 8.25195C1.7461 7.4632 1.90059 6.68189 2.20258 5.95324C2.50458 5.22459 2.94809 4.56306 3.50744 4.00695C3.96744 3.55258 4.40994 3.14883 4.87307 2.75195L3.74807 2.75195C3.61546 2.75195 3.48828 2.69927 3.39451 2.60551C3.30074 2.51174 3.24807 2.38456 3.24807 2.25195C3.24807 2.11934 3.30074 1.99217 3.39451 1.8984C3.48828 1.80463 3.61546 1.75195 3.74807 1.75195L6.24807 1.75195C6.38067 1.75195 6.50785 1.80463 6.60162 1.8984C6.69539 1.99217 6.74807 2.11934 6.74807 2.25195L6.74807 4.75195C6.74807 4.88456 6.69539 5.01174 6.60162 5.10551C6.50785 5.19927 6.38067 5.25195 6.24807 5.25195C6.11546 5.25195 5.98828 5.19927 5.89451 5.10551C5.80074 5.01174 5.74807 4.88456 5.74807 4.75195L5.74807 3.31445C5.22182 3.76133 4.72619 4.20633 4.21244 4.71383C3.51754 5.40874 3.04282 6.29302 2.84761 7.25618C2.65241 8.21935 2.74536 9.21868 3.11487 10.1293C3.48437 11.04 4.11404 11.8215 4.9252 12.3763C5.73635 12.9311 6.69302 13.2346 7.67566 13.2488C8.6583 13.263 9.62335 12.9874 10.4502 12.4562C11.2771 11.9251 11.9291 11.1621 12.3248 10.2625C12.7205 9.36298 12.8423 8.36676 12.675 7.39835C12.5078 6.42994 12.0588 5.5323 11.3843 4.81758C11.3392 4.76981 11.3039 4.71362 11.2805 4.65221C11.257 4.5908 11.2459 4.52538 11.2478 4.45969C11.2496 4.39399 11.2644 4.3293 11.2913 4.26931C11.3181 4.20933 11.3565 4.15522 11.4043 4.11008C11.4521 4.06494 11.5083 4.02965 11.5697 4.00622C11.6311 3.98279 11.6965 3.97169 11.7622 3.97355C11.8279 3.97541 11.8926 3.99019 11.9526 4.01704C12.0126 4.0439 12.0667 4.08231 12.1118 4.13008C12.7839 4.84223 13.2714 5.70805 13.5319 6.65196C13.7924 7.59586 13.8179 8.58918 13.6062 9.54521C13.3945 10.5012 12.952 11.3909 12.3174 12.1366C11.6828 12.8823 10.8753 13.4614 9.96545 13.8233C9.05558 14.1852 8.07097 14.3188 7.09756 14.2127C6.12414 14.1065 5.1915 13.7637 4.38102 13.2142C3.57055 12.6647 2.90688 11.9252 2.44793 11.0603C1.98898 10.1953 1.7487 9.23114 1.74807 8.25195Z" fill="currentColor"/>
</svg>
