<svg viewBox="0 0 20 20" fill="currentColor" xmlns="http://www.w3.org/2000/svg">
<path fill-rule="evenodd" clip-rule="evenodd" d="M2.5 8.75C2.5 8.40482 2.77982 8.125 3.125 8.125H6.875C7.22018 8.125 7.5 8.40482 7.5 8.75V10.5324H12.5V8.75C12.5 8.40482 12.7798 8.125 13.125 8.125H16.875C17.2202 8.125 17.5 8.40482 17.5 8.75V16.875C17.5 17.2202 17.2202 17.5 16.875 17.5H3.125C2.77982 17.5 2.5 17.2202 2.5 16.875V8.75Z" fill="currentColor"/>
<path fill-rule="evenodd" clip-rule="evenodd" d="M4.375 3.125C4.375 2.77982 4.65482 2.5 5 2.5H15C15.3452 2.5 15.625 2.77982 15.625 3.125V6.875H13.25C12.1454 6.875 11.25 7.77043 11.25 8.875V9.375H8.75V8.875C8.75 7.77043 7.85457 6.875 6.75 6.875H4.375V3.125Z" fill="currentColor"/>
</svg>
