<svg  viewBox="0 0 16 16" fill="currentColor" xmlns="http://www.w3.org/2000/svg">
<mask id="path-1-inside-1_4134_643" fill="currentColor">
<path fill-rule="evenodd" clip-rule="evenodd" d="M8 15.5C12.1421 15.5 15.5 12.1421 15.5 8C15.5 3.85786 12.1421 0.5 8 0.5C3.85786 0.5 0.5 3.85786 0.5 8C0.5 12.1421 3.85786 15.5 8 15.5ZM7.19254 11.5675L12.8175 5.94254C12.9348 5.82526 13.0007 5.6662 13.0007 5.50035C13.0007 5.3345 12.9348 5.17544 12.8175 5.05816C12.7003 4.94088 12.5412 4.875 12.3753 4.875C12.2095 4.875 12.0504 4.94088 11.9332 5.05816L6.75035 10.2418L4.06753 7.55816C3.95026 7.44088 3.7912 7.375 3.62535 7.375C3.4595 7.375 3.30044 7.44088 3.18316 7.55816C3.06588 7.67544 3 7.8345 3 8.00035C3 8.1662 3.06588 8.32526 3.18316 8.44254L6.30816 11.5675C6.36621 11.6256 6.43514 11.6717 6.51101 11.7032C6.58688 11.7347 6.66821 11.7508 6.75035 11.7508C6.83248 11.7508 6.91381 11.7347 6.98969 11.7032C7.06556 11.6717 7.13449 11.6256 7.19254 11.5675Z"/>
</mask>
<path fill-rule="evenodd" clip-rule="evenodd" d="M8 15.5C12.1421 15.5 15.5 12.1421 15.5 8C15.5 3.85786 12.1421 0.5 8 0.5C3.85786 0.5 0.5 3.85786 0.5 8C0.5 12.1421 3.85786 15.5 8 15.5ZM7.19254 11.5675L12.8175 5.94254C12.9348 5.82526 13.0007 5.6662 13.0007 5.50035C13.0007 5.3345 12.9348 5.17544 12.8175 5.05816C12.7003 4.94088 12.5412 4.875 12.3753 4.875C12.2095 4.875 12.0504 4.94088 11.9332 5.05816L6.75035 10.2418L4.06753 7.55816C3.95026 7.44088 3.7912 7.375 3.62535 7.375C3.4595 7.375 3.30044 7.44088 3.18316 7.55816C3.06588 7.67544 3 7.8345 3 8.00035C3 8.1662 3.06588 8.32526 3.18316 8.44254L6.30816 11.5675C6.36621 11.6256 6.43514 11.6717 6.51101 11.7032C6.58688 11.7347 6.66821 11.7508 6.75035 11.7508C6.83248 11.7508 6.91381 11.7347 6.98969 11.7032C7.06556 11.6717 7.13449 11.6256 7.19254 11.5675Z" fill="currentColor"/>
<path d="M12.8175 5.94254L11.9337 5.05865L11.9337 5.05865L12.8175 5.94254ZM7.19254 11.5675L6.30865 10.6837L6.30816 10.6841L7.19254 11.5675ZM12.8175 5.05816L11.9337 5.94204L11.9337 5.94205L12.8175 5.05816ZM11.9332 5.05816L11.0493 4.17428L11.0492 4.17434L11.9332 5.05816ZM6.75035 10.2418L5.86634 11.1255L6.75029 12.0097L7.6343 11.1256L6.75035 10.2418ZM4.06753 7.55816L4.95155 6.67441L4.95142 6.67428L4.06753 7.55816ZM3.18316 7.55816L4.06704 8.44204L4.06704 8.44204L3.18316 7.55816ZM3.18316 8.44254L2.29928 9.32642L2.29928 9.32642L3.18316 8.44254ZM6.30816 11.5675L7.19254 10.6842L7.19204 10.6837L6.30816 11.5675ZM14.25 8C14.25 11.4518 11.4518 14.25 8 14.25V16.75C12.8325 16.75 16.75 12.8325 16.75 8H14.25ZM8 1.75C11.4518 1.75 14.25 4.54822 14.25 8H16.75C16.75 3.16751 12.8325 -0.75 8 -0.75V1.75ZM1.75 8C1.75 4.54822 4.54822 1.75 8 1.75V-0.75C3.16751 -0.75 -0.75 3.16751 -0.75 8H1.75ZM8 14.25C4.54822 14.25 1.75 11.4518 1.75 8H-0.75C-0.75 12.8325 3.16751 16.75 8 16.75V14.25ZM11.9337 5.05865L6.30865 10.6837L8.07642 12.4514L13.7014 6.82642L11.9337 5.05865ZM11.7507 5.50035C11.7507 5.33468 11.8165 5.1758 11.9337 5.05865L13.7014 6.82642C14.0531 6.47472 14.2507 5.99772 14.2507 5.50035H11.7507ZM11.9337 5.94205C11.8165 5.8249 11.7507 5.66601 11.7507 5.50035H14.2507C14.2507 5.00298 14.0531 4.52597 13.7014 4.17427L11.9337 5.94205ZM12.3753 6.125C12.2097 6.125 12.0508 6.05919 11.9337 5.94204L13.7014 4.17428C13.3497 3.82258 12.8727 3.625 12.3753 3.625V6.125ZM12.817 5.94204C12.6999 6.05919 12.541 6.125 12.3753 6.125V3.625C11.878 3.625 11.401 3.82258 11.0493 4.17428L12.817 5.94204ZM7.6343 11.1256L12.8171 5.94198L11.0492 4.17434L5.8664 9.35794L7.6343 11.1256ZM3.18352 8.44191L5.86634 11.1255L7.63436 9.358L4.95155 6.67441L3.18352 8.44191ZM3.62535 8.625C3.45968 8.625 3.3008 8.55919 3.18365 8.44204L4.95142 6.67428C4.59972 6.32258 4.12272 6.125 3.62535 6.125V8.625ZM4.06704 8.44204C3.9499 8.55919 3.79102 8.625 3.62535 8.625V6.125C3.12797 6.125 2.65097 6.32258 2.29928 6.67428L4.06704 8.44204ZM4.25 8.00035C4.25 8.16601 4.18419 8.3249 4.06704 8.44204L2.29928 6.67428C1.94758 7.02597 1.75 7.50298 1.75 8.00035H4.25ZM4.06704 7.55865C4.18419 7.6758 4.25 7.83468 4.25 8.00035H1.75C1.75 8.49772 1.94758 8.97472 2.29928 9.32642L4.06704 7.55865ZM7.19204 10.6837L4.06704 7.55865L2.29928 9.32642L5.42428 12.4514L7.19204 10.6837ZM6.98969 10.5485C7.06555 10.5799 7.13449 10.626 7.19254 10.6842L5.42378 12.4509C5.59792 12.6253 5.80472 12.7636 6.03233 12.8579L6.98969 10.5485ZM6.75035 10.5008C6.83247 10.5008 6.9138 10.517 6.98969 10.5485L6.03233 12.8579C6.25997 12.9523 6.50396 13.0008 6.75035 13.0008V10.5008ZM6.511 10.5485C6.58689 10.517 6.66823 10.5008 6.75035 10.5008V13.0008C6.99674 13.0008 7.24073 12.9523 7.46837 12.8579L6.511 10.5485ZM6.30816 10.6841C6.36621 10.626 6.43514 10.5799 6.511 10.5485L7.46837 12.8579C7.69598 12.7636 7.90277 12.6253 8.07692 12.4509L6.30816 10.6841Z" fill="currentColor" mask="url(#path-1-inside-1_4134_643)"/>
</svg>
