<svg viewBox="0 0 16 16" fill="none" xmlns="http://www.w3.org/2000/svg">
<path d="M5.5 4.5V4.5C5.5 3.39543 6.39543 2.5 7.5 2.5H8.5C9.60457 2.5 10.5 3.39543 10.5 4.5V4.5" stroke="#868686" stroke-width="2"/>
<path fill-rule="evenodd" clip-rule="evenodd" d="M2 4.5C1.72386 4.5 1.5 4.71266 1.5 4.975V7C1.5 7.82843 2.17157 8.5 3 8.5H7.25C7.25 8.08579 7.58579 7.75 8 7.75C8.41421 7.75 8.75 8.08579 8.75 8.5H13C13.8279 8.5 14.4991 7.82935 14.5 7.00171C14.5 7.00114 14.5 7.00057 14.5 7L14.5 4.975C14.5 4.71266 14.2761 4.5 14 4.5H2ZM14.5 9.00018C14.0822 9.31403 13.5628 9.5 13 9.5H8.75C8.75 9.91421 8.41421 10.25 8 10.25C7.58579 10.25 7.25 9.91421 7.25 9.5H3C2.4372 9.5 1.91783 9.31403 1.5 9.00018V13.525C1.5 13.7873 1.72386 14 2 14H14C14.2761 14 14.5 13.7873 14.5 13.525V9.00018Z" fill="#868686"/>
</svg>
