<svg viewBox="0 0 18 18" fill="currentColor" xmlns="http://www.w3.org/2000/svg">
<path fill-rule="evenodd" clip-rule="evenodd" d="M4.36128 1.46457C4.92854 1.24509 5.54466 1.125 6.1875 1.125C8.98344 1.125 11.25 3.39156 11.25 6.1875C11.25 6.66425 11.1839 7.12636 11.0603 7.56476L15.9227 12.4273C16.888 13.3925 16.888 14.9575 15.9227 15.9227C14.9575 16.888 13.3925 16.888 12.4273 15.9227L7.56476 11.0603C7.12636 11.1839 6.66425 11.25 6.1875 11.25C3.39156 11.25 1.125 8.98344 1.125 6.1875C1.125 5.53694 1.24799 4.91375 1.47251 4.34088C1.54176 4.16419 1.69543 4.03433 1.8812 3.99552C2.06697 3.95671 2.25978 4.01419 2.39397 4.14839L5.18051 6.93492C5.21189 6.9663 5.26277 6.9663 5.29415 6.93492L6.94751 5.28157C6.97889 5.25018 6.97889 5.19931 6.94751 5.16792L4.1665 2.38692C4.032 2.25242 3.97459 2.05906 4.01389 1.87295C4.05319 1.68684 4.18388 1.5332 4.36128 1.46457ZM5.65606 2.28549L7.743 4.37243C8.21372 4.84315 8.21372 5.60634 7.743 6.07706L6.08965 7.73042C5.61893 8.20114 4.85574 8.20114 4.38501 7.73042L2.28854 5.63394C2.26314 5.81466 2.25 5.99945 2.25 6.1875C2.25 8.36212 4.01288 10.125 6.1875 10.125C6.65932 10.125 7.11057 10.0423 7.52834 9.89097C7.73357 9.81665 7.96327 9.86777 8.11761 10.0221L13.2227 15.1273C13.7487 15.6532 14.6013 15.6532 15.1273 15.1273C15.6532 14.6013 15.6532 13.7487 15.1273 13.2227L10.0221 8.11761C9.86777 7.96327 9.81665 7.73357 9.89097 7.52834C10.0423 7.11057 10.125 6.65932 10.125 6.1875C10.125 4.01288 8.36212 2.25 6.1875 2.25C6.00712 2.25 5.82973 2.26209 5.65606 2.28549Z" fill="currentColor"/>
</svg>
