<svg viewBox="0 0 32 32" fill="currentColor" xmlns="http://www.w3.org/2000/svg">
<path d="M25.8806 22.1369L16.5605 12.8168L12.4183 16.9591L21.7384 26.2792C22.8822 27.423 24.7368 27.423 25.8806 26.2792C27.0245 25.1353 27.0245 23.2807 25.8806 22.1369Z" fill="currentColor"/>
<path fill-rule="evenodd" clip-rule="evenodd" d="M15.9503 12.2066C16.2873 11.8695 16.8337 11.8695 17.1708 12.2066L26.4909 21.5267C27.9717 23.0075 27.9717 25.4085 26.4909 26.8893C25.01 28.3702 22.609 28.3702 21.1282 26.8893L11.8081 17.5692C11.471 17.2322 11.471 16.6858 11.8081 16.3488L15.9503 12.2066ZM13.6387 16.959L22.3486 25.6689C23.1554 26.4758 24.4636 26.4758 25.2704 25.6689C26.0773 24.8621 26.0773 23.5539 25.2704 22.7471L16.5605 14.0372L13.6387 16.959Z" fill="currentColor"/>
<path fill-rule="evenodd" clip-rule="evenodd" d="M4.0394 8.95846C3.67814 9.88024 3.4798 10.8838 3.4798 11.9336C3.4798 16.4385 7.1317 20.0904 11.6366 20.0904C16.1414 20.0904 19.7933 16.4385 19.7933 11.9336C19.7933 7.42877 16.1414 3.77687 11.6366 3.77687C10.5991 3.77687 9.60698 3.97054 8.69423 4.32368L13.7351 9.36457C14.1902 9.81963 14.1902 10.5574 13.7351 11.0125L10.7382 14.0094C10.2832 14.4644 9.54536 14.4644 9.09031 14.0094L4.0394 8.95846Z" fill="currentColor"/>
<path fill-rule="evenodd" clip-rule="evenodd" d="M9.58331 4.5342L14.0744 9.02529C14.7168 9.66772 14.7168 10.7093 14.0744 11.3518L11.0775 14.3486C10.4351 14.9911 9.39348 14.9911 8.75104 14.3486L4.24711 9.84471C4.05988 10.5084 3.95962 11.209 3.95962 11.9336C3.95962 16.1735 7.3967 19.6106 11.6366 19.6106C15.8764 19.6106 19.3135 16.1735 19.3135 11.9336C19.3135 7.69376 15.8764 4.25668 11.6366 4.25668C10.9249 4.25668 10.2365 4.35338 9.58331 4.5342ZM8.52111 3.8762C9.4882 3.50202 10.539 3.29706 11.6366 3.29706C16.4064 3.29706 20.2731 7.16378 20.2731 11.9336C20.2731 16.7035 16.4064 20.5702 11.6366 20.5702C6.86672 20.5702 3 16.7035 3 11.9336C3 10.8229 3.20992 9.76003 3.59268 8.78338C3.65175 8.63266 3.78284 8.52189 3.9413 8.48879C4.09975 8.45569 4.26422 8.50472 4.37869 8.61918L9.42959 13.6701C9.69727 13.9378 10.1313 13.9378 10.399 13.6701L13.3958 10.6732C13.6635 10.4055 13.6635 9.97152 13.3958 9.70384L8.35496 4.66296C8.24024 4.54823 8.19126 4.38329 8.22478 4.22454C8.25831 4.0658 8.36979 3.93474 8.52111 3.8762Z" fill="currentColor"/>
</svg>
