<svg  viewBox="0 0 32 33" fill="none" xmlns="http://www.w3.org/2000/svg">
<path d="M16 20.6645C11.7732 20.6645 8.01436 22.7054 5.62129 25.8725C5.10624 26.5542 4.84871 26.895 4.85713 27.3556C4.86364 27.7115 5.08711 28.1604 5.36712 28.3801C5.72955 28.6645 6.23179 28.6645 7.23627 28.6645H24.7637C25.7681 28.6645 26.2704 28.6645 26.6328 28.3801C26.9128 28.1604 27.1363 27.7115 27.1428 27.3556C27.1512 26.895 26.8937 26.5542 26.3786 25.8725C23.9856 22.7054 20.2267 20.6645 16 20.6645Z" fill="#DDDDDD"/>
<path d="M16 16.6645C19.3137 16.6645 22 13.9783 22 10.6646C22 7.35084 19.3137 4.66455 16 4.66455C12.6863 4.66455 9.99996 7.35084 9.99996 10.6646C9.99996 13.9783 12.6863 16.6645 16 16.6645Z" fill="#DDDDDD"/>
<path d="M16 20.6645C11.7732 20.6645 8.01436 22.7054 5.62129 25.8725C5.10624 26.5542 4.84871 26.895 4.85713 27.3556C4.86364 27.7115 5.08711 28.1604 5.36712 28.3801C5.72955 28.6645 6.23179 28.6645 7.23627 28.6645H24.7637C25.7681 28.6645 26.2704 28.6645 26.6328 28.3801C26.9128 28.1604 27.1363 27.7115 27.1428 27.3556C27.1512 26.895 26.8937 26.5542 26.3786 25.8725C23.9856 22.7054 20.2267 20.6645 16 20.6645Z" stroke="#DDDDDD" stroke-width="2.10244" stroke-linecap="round" stroke-linejoin="round"/>
<path d="M16 16.6645C19.3137 16.6645 22 13.9783 22 10.6646C22 7.35084 19.3137 4.66455 16 4.66455C12.6863 4.66455 9.99996 7.35084 9.99996 10.6646C9.99996 13.9783 12.6863 16.6645 16 16.6645Z" stroke="#DDDDDD" stroke-width="2.10244" stroke-linecap="round" stroke-linejoin="round"/>
</svg>
