<svg viewBox="0 0 19 18" fill="currentColor" xmlns="http://www.w3.org/2000/svg">
<path fill-rule="evenodd" clip-rule="evenodd" d="M5.6874 2.91988C6.88993 2.11637 8.30373 1.6875 9.75 1.6875C11.6888 1.68955 13.5475 2.46063 14.9185 3.83154C16.2894 5.20246 17.0605 7.06123 17.0625 9C17.0625 10.4463 16.6336 11.8601 15.8301 13.0626C15.0266 14.2651 13.8846 15.2024 12.5484 15.7559C11.2122 16.3093 9.74189 16.4541 8.32341 16.172C6.90492 15.8898 5.60196 15.1934 4.57928 14.1707C3.55661 13.148 2.86017 11.8451 2.57801 10.4266C2.29586 9.00811 2.44067 7.53781 2.99413 6.20163C3.5476 4.86544 4.48486 3.72339 5.6874 2.91988ZM10.0337 4.79366C9.91767 4.55849 9.58233 4.55849 9.46627 4.79366L8.33579 7.08426C8.2897 7.17764 8.20061 7.24237 8.09755 7.25735L5.56972 7.62466C5.3102 7.66237 5.20657 7.9813 5.39437 8.16435L7.22352 9.94734C7.29809 10.02 7.33212 10.1248 7.31452 10.2274L6.88271 12.745C6.83838 13.0035 7.10968 13.2006 7.3418 13.0786L9.60276 11.8899C9.69494 11.8414 9.80506 11.8414 9.89724 11.8899L12.1582 13.0786C12.3903 13.2006 12.6616 13.0035 12.6173 12.745L12.1855 10.2274C12.1679 10.1248 12.2019 10.02 12.2765 9.94734L14.1056 8.16435C14.2934 7.9813 14.1898 7.66237 13.9303 7.62466L11.4024 7.25735C11.2994 7.24237 11.2103 7.17764 11.1642 7.08426L10.0337 4.79366Z" fill="currentColor"/>
</svg>
